<mxfile host="app.diagrams.net" modified="2022-11-01T13:06:19.332Z" agent="5.0 (Windows NT 10.0; Win64; x64) AppleWebKit/537.36 (KHTML, like Gecko) Chrome/106.0.0.0 Safari/537.36" etag="8LqaEB5Jkina3MgNll-L" version="20.5.1" type="github">
  <diagram id="V1UiaJqtMPXgnIXomW9g" name="Page-1">
    <mxGraphModel dx="594" dy="322" grid="1" gridSize="10" guides="1" tooltips="1" connect="1" arrows="1" fold="1" page="1" pageScale="1" pageWidth="413" pageHeight="291" math="0" shadow="0">
      <root>
        <mxCell id="0" />
        <mxCell id="1" parent="0" />
        <mxCell id="f9QI1axeGucn3QY7SPFN-22" value="" style="html=1;fillColor=#dae8fc;strokeColor=#6c8ebf;shadow=0;fontSize=12;align=center;fontStyle=0;whiteSpace=wrap;rounded=0;" vertex="1" parent="1">
          <mxGeometry x="295" y="65" width="100" height="100" as="geometry" />
        </mxCell>
        <mxCell id="f9QI1axeGucn3QY7SPFN-23" value="" style="html=1;fillColor=#ffe6cc;strokeColor=#d79b00;shadow=0;fontSize=12;align=center;fontStyle=0;whiteSpace=wrap;rounded=0;" vertex="1" parent="1">
          <mxGeometry x="400" y="65" width="100" height="100" as="geometry" />
        </mxCell>
        <mxCell id="f9QI1axeGucn3QY7SPFN-24" value="" style="html=1;fillColor=#dae8fc;strokeColor=#6c8ebf;shadow=0;fontSize=12;align=center;fontStyle=0;whiteSpace=wrap;rounded=0;" vertex="1" parent="1">
          <mxGeometry x="295" y="170" width="100" height="100" as="geometry" />
        </mxCell>
        <mxCell id="f9QI1axeGucn3QY7SPFN-25" value="" style="html=1;fillColor=#ffe6cc;strokeColor=#d79b00;shadow=0;fontSize=12;align=center;fontStyle=0;whiteSpace=wrap;rounded=0;" vertex="1" parent="1">
          <mxGeometry x="400" y="170" width="100" height="100" as="geometry" />
        </mxCell>
        <mxCell id="f9QI1axeGucn3QY7SPFN-26" value="ReLu" style="html=1;fillColor=#CCCCCC;strokeColor=none;shadow=0;fontSize=14;fontColor=#FFFFFF;align=center;fontStyle=1;whiteSpace=wrap;horizontal=0;rounded=0;" vertex="1" parent="1">
          <mxGeometry x="260" y="65" width="30" height="100" as="geometry" />
        </mxCell>
        <mxCell id="f9QI1axeGucn3QY7SPFN-27" value="Tanh" style="html=1;fillColor=#CCCCCC;strokeColor=none;shadow=0;fontSize=14;fontColor=#FFFFFF;align=center;fontStyle=1;whiteSpace=wrap;horizontal=0;rounded=0;" vertex="1" parent="1">
          <mxGeometry x="260" y="170" width="30" height="100" as="geometry" />
        </mxCell>
        <mxCell id="f9QI1axeGucn3QY7SPFN-28" value="MSE" style="html=1;fillColor=#CCCCCC;strokeColor=none;shadow=0;fontSize=14;fontColor=#FFFFFF;align=center;fontStyle=1;whiteSpace=wrap;rounded=0;" vertex="1" parent="1">
          <mxGeometry x="295" y="30" width="100" height="30" as="geometry" />
        </mxCell>
        <mxCell id="f9QI1axeGucn3QY7SPFN-29" value="CrossEntropy" style="html=1;fillColor=#CCCCCC;strokeColor=none;shadow=0;fontSize=14;fontColor=#FFFFFF;align=center;fontStyle=1;whiteSpace=wrap;rounded=0;" vertex="1" parent="1">
          <mxGeometry x="400" y="30" width="100" height="30" as="geometry" />
        </mxCell>
        <mxCell id="f9QI1axeGucn3QY7SPFN-30" value="" style="shape=image;verticalLabelPosition=bottom;labelBackgroundColor=default;verticalAlign=top;imageAspect=0;image=data:image/png,iVBORw0KGgoAAAANSUhEUgAAAo0AAAHpCAYAAADnIAacAAAAAXNSR0IArs4c6QAAAARnQU1BAACxjwv8YQUAAAAJcEhZcwAADsMAAA7DAcdvqGQAAKoqSURBVHhe7N0FgJzlvTXwMy4765rdbHbjnpCEhGAJ7lCKFiiFtpQ6Nar39utt6a1w6wYtbSkUd3dPCAnE3X3dfXb0e8+zM2GTRonNZs/v+9479rzvzM6G5uT/mC1ugYiIiIjIXtgTtyIiIiIie6TQKCIiIiL7pNAoIiIiIvuk0CgiIiIi+6TQKCIiIiL7pNAoIpJiuKhFKBQyRywWSzy7/3h+JBJBMBjc5/lsGw6HTVstpiEie6PQKCKSYurq6nDDDTfgi1/8IpYuXZp4dv81NTXh3//+N8aOHYv33nvPBMg9qaysxP/93//huOOOw7Zt2z5SSBWR/kGhUUQkxTC4dXZ2oqurC9FoNPHs/ktWKtva2kxg3FsFke/V3d1t2qrSKCJ7o9AoIiIiIvuk0CgiIiIi+6RtBEVELK+//ro5LrnkErS3t2PBggVoaGhAUVERTj75ZEyZMsWMNXzmmWewceNG2O12TJ48Gaeeeqppk8Tu4JqaGrz22mtYvXq1mWCSk5ODqVOn4vjjj0deXl6iJUzXc21tLV566SWsXLnSPDdixAhMmDABt912GzIyMvCtb33LvDdxwgrHIL766qvYsGGD6VbOzs7GCSecYD5L8tr83I899hh++MMf4tFHH8VJJ50El8tlXtsVxzH+/e9/N8ecOXNQWlpqfjZatWoV5s6di/Xr15v3ys/Px6RJkzBjxgx4vV7Thpqbm825HH/J9yb+zBxTec455+xoy+/tnXfeMbfsfvd4PCgpKTHfDQ8RSW2O/7Ek7ouI9FtPPPEE/vznP5uxfQxJ69atM8Fs4cKFqKqqQiAQMIGRj6urq/HBBx9g+fLlKCwsNEGLAYjjAzdv3mwC2EMPPWRCZktLC5YtW2YOp9NpAiavRRUVFbjnnntw7733mmsySPE9eZ/vU1BQYAJfcXGxGaO4du1a3HHHHXjllVfMZJfGxkYT7Pg5eG22S0tLM2MhGULffPNNXHXVVebzORwO8567am1tNe/F47Of/SwyMzNhs9mwZMkS89lefPFFEyyT78Xnafz48aYdf2b+rA888IAJybwe227ZssX8/AzcPp/PhMk//vGP5nr8+diOgZnteJ3p06eb64pI6lL3tIhIL4sXLzZVsuuuu87MXma1jJW9v/71r6aSdv755+OrX/0qPvWpT5mqHwMcgw+x4vbWW2/h/vvvN+Hw85//PL7xjW/gE5/4hAlI9913H+bPn28qjKxmzps3zzyXlZWFL33pS/ja176Gs846y4QzBsreWL188skn8fzzz5vqJj/bN7/5TVx77bXmfR9//HET/A4FVhUZBF9++WUTOG+66SbzM5933nnm52C4ZoDlz8Hw+vDDD5tbvs6fgQc/F6ufDLPs0OJ3x2vyejfeeCO+/vWv4wtf+AIuuugilJeXJ95ZRFKZQqOISC/sGmZ17tJLL8UVV1yBj3/84+b5999/H9dcc40Jk2ecccaOQMnwxOoiMTy+8cYbprL23e9+11yHIfDLX/6yud7WrVtNaGSVjYFz9uzZpvs6GbLOPPNMc91TTjnFVPySWM1jBZKVTnZxf+973zPdvmz36U9/GhdeeKGpBvIzsgv7YG3fvt2E3wEDBpjr87PxPT7zmc+YAMzu5eeee868F6uK9fX1pludn+n000833w/PYdhkIE5+flZA+RqD92mnnWZueX1+NyKS+hQaRUR64fjAgQMHmvvsNmV4Y3WM4wsZ6pIYDBmqWJVj1ZDYHctwVFZWhhNPPNE8R+waZkhiewZLVhFZsWN3LscJMlgmcTzhzJkzMWjQoMQzMMGSQY7nsjv83XffNaGOx9tvv20+A8dSstuX3eEHi1VBVg7ZZTx8+HDzPRC7yxlUOUaR6z+y0sjvh59pzZo15rOwUrtp0yZzPsMi8Xx+p2yb/MzsPuf30NHRYdqISOpTaBQR6YVd0wyESZxA4vf7zXMMjr3xOYY1jjckVtI4LpFd08mglcRgxbGMrDJy3CTbMmzu+n7EtnzPJAYrVvNY1fvnP/+J66+/fqeDYwXZfc3PyoB5sPhe/JkYaNPT0xPP9oQ/flZOuGFAZShkkLz66qtNF/TPfvYzUzn80Y9+ZLrSWVllsGRoZgXy7LPPxqxZs0zllV33v/3tb83EGAZMEUl9Co0iIr2w0rdr4OPj5IziXe1uAYq9LUrR+9q7vk/Snq7JsHbLLbfgwQcf3O3BINZ7dvbB2t+fg+M7ORGGIZCVWo6t5JjFm2++2YRLYnWS4ZbjHznOk93W/Mxs86tf/Wqvu9aISGpQaBQROURYHeTsZXa7Jrtmk/gcK4zsouXBdqzisUub1cneON4x2eVNrFCyosegxvfgRJjdHRxXyFncB4uVUl6H1cve3d38mVj15PNcKqd3kObjyy67zATHp556yiwVxO53TtBJYvuJEyeaST8MjP/4xz/M9oXsbv8o2yWKyJGl0CgicogwbI0ePdpMjOGEmCR20XKWNYPj0KFDzXhFtuWyNQyNDFlJDGZsy8kmSazS8RwuqfP000+b2dLs8mV3dPLgpBR2Ke+penkgOOs5NzfXdB1zJncSlx7iTHK+F8docmY0Ay8f833dbrcJwxy/OGzYMPNzM2SyYsluef5s/Nz8eRiEOWuabfm5D0W3uogcXlqnUUTEwsWpeVxwwQUYOXKkCUTEWckMTww1nA3cG8MdAyK7ZFkxYxWQAYkLeydnMnNcH5fg4TqQo0aNMjOyObmEbRmieG1OKuFkFoZKVuD4mO/L4JVcp5FBi5/p2WefNUv1sALIiuSiRYvMTGYu4s3wxRndB7tOI4MfwyzXomS1kGMcuXYlxyny52DY+8EPfmDacuILu5f5mfh5GHa5SDorjPw8/M4YeO+++26zHiVnm/PnXLFihflZOMZx8ODBZrZ1cv1KEUlNqjSKiBwiDD2cXcyuWU4Y4aSV22+/3VTnuKsLAxR3VGE3LUMgl8/h2D92U7Orll27DFOcTc1g2Rsrf9ythsvtMIwyiP7yl780i31zNjKveajGMzKccmmdT37yk2asIdeS/MMf/mB2h+HOLf/1X/9lZoLzPfkzs6LI8PeXv/zFBEgGRoZiTnhh1ZJVSE744fhGBs9f//rX5noMqtOmTTNh9VCOxRSRw0PbCIqIWJLVNi53M2TIkB2VOXbJsmrISiCrdr0xKHEpHFYZ2S1NDFCc5cxtCFllZLWNs65ZvWSlkdW5JFYa2ZbXT+6Mwu7aMWPGmB1kOK6QoYvjGSl5bVYX+b6sKLJLmJNKuMwPu74ZLlkV5Y42rFhyfcVkwNsdjp3kjjIMq1deeaUJsMkubn4mViz5XgyP/OwMsxyXyPclns9z2Zbd5vyMDIysbrLqyZng/GuGVUhei98nu6z5ebgFIqup/G5Y3RSR1KbQKCIiIiL7pO5pEREREdknhUYRERER2SeFRhERERHZJ4VGEREREdknhUYRERER2SeFRhERERHZJy25kwL4K+AacNyXlgsCi4iIiBxJ3BKUa7FyDdY9bUeq0JgCuBAvFwn+8Y9/vMetvkREREQOFy7M/7Of/cxsi8qNBXZHoTEFsMrIvWNvueUWs58rtxcTERERORJYvGLh6l//+pfZxjS549OuFBpTAPeRfeGFF/D973/fVBy5jZeIiIjI4cYYyOFx3Af+zjvvxOmnnw6Xy5V4dWcKjSkgGRpZZZw7d65Co4iIiBwRjIHcQ5576N9xxx17DY2aPS0iIiIi+6TQKCIiIiL7pNDYx7CMHIvFdBziQ6M0RERE9k5jGlPA/oxp5K+J0+EjkYi5lUPLbrfD6XSaJY94X0REpD9gvtjfMY0KjSlgX6GRvyLObGpsbERXV1fiWTnUuNRRdna2Wdx0TwubioiIHEsUGvuYfYXGlpYWNDU1mSDD1/a2Wrt8NKFQyARzVnEZHLOyshKviIiIHLsUGvuYvYVGjrerqakxbRhk0tLSTGBUaDx0+J8AD26h1NzcbLqnBwwYoG5qERE55h1IaNTfiimOlS8e/AWy+zQ55i4ZHHUc/MHvk98rt01iFVfjRkVERP6TQmOKS1bBkkFRDh9+x8nqIr9zERER+ZBCYx+i0CgiIiJHi0Kj9Gm1tbVmg/WFCxeqS1lEROQwUmiUIyYYDOLVV1/F+++/b+4fCpy8smzZMjNZiJOGRERE5PBQaOwnOEQvGju64/S4pM3PfvYz/Pvf/zbLCO3N/o4pLC0txY9+9COcccYZe5ztJSIiIgdPobEfiFlhMRiKoL0rjNhRmuDBdRArKirMtP76+nqsXLkSS5cuNc9t2rQJW7duNV3Nq1evxpo1a0zA7O7uNs/zuRUrVpjnWVHktZJ4v7q62rRPBs0NGzaY61ZWVmLt2rXmvTZv3oyOjg7zuoiIiBw4rdOYAva2TiNDEYMSl4LJzc01W90l7c9vLm79v67uCCrqO6zACJQXBuBxOaxXDsGkGusS+3sVhj9WBO+//36zvI3f7zczla+//noTCLn+5MSJE/HMM8+YpYV+9atfIScnB//7v/+LxYsXo7W11Sy6feGFF+Lqq6/G2LFjzflLlizBJz/5Sdx8883m4LI5M2fOxJAhQ8y6luwKr6qqwoQJE/D5z38e55133h4nFHGpHS6izi5vrtPI71xERORYxhiodRqPcRy/FwxH9nl0h6OIROPm6LYeN7V1o9MKkbtre6BHyLr2/v6bo6SkBP/1X/+FqVOn4pprrsGbb75pKo28z8D47rvvYvv27fj9739vguXQoUPNlokzZszA3//+d7z00kv48pe/bM67++67zSLce/Pss8+aMM7Q+Zvf/MYExZ///Of77BYXERGR3UvZSuPrr79uxr598MEHpnp09tln46abbsLw4cMTLf4TuzEffvhhU61itWjcuHH46le/ilNOOcVUpVhJevTRR/Hcc89h1apVJpRwTNy5556LG264AXl5eYkr9Yy/++c//4knn3zSVKoGDx6MT3ziE+ZgJSxp3bp1+O1vf4vZs2ebIMf3YvXs5JNPTrTYtwOtNLK7eWNlC267a26i1b4lxzParfB0qFbuGVSUjv++aXqicrlv7H6+6qqrzO+FAbKwsND8HliB5Hfwne98x4RKViIZ8jgbms/zXzx8zO/i9ttvN13Nn/3sZ3HqqafusdLI/aO/8Y1vmN8Dz3viiSfwi1/8wgTQk046KfGJdqZKo4iI9Dd9vtLI4PTHP/7R/CD8i//aa681gXBvlaJt27aZCtR7771ngt13v/tdZGRkmPM5ro2BgGPkeB0GRT7PKhSDx4svvmju98b3f/75500I/OEPf4jRo0ebQHrvvfea1/nZOEbuW9/6lgmV7Pq85ZZbzHi9u+66y4TdwykSjaG5rXu/j7aOkDla2nf/+kc52jrCpvt7fzH4JY/kQtq8T8XFxRg2bJgJasnQyN8Xf6c33ngjzjnnHPMPBz7esmWL+Z73pqysbEfwYyWTXd28bl1dXaKFiIiIHAjH/1gS91MGk25DQwMuu+wyXHDBBRgzZoypFrFrkoFv5MiRiZYf4lIu7OKcNGkSPv3pT5sxb6xkMRDS5MmTzTi6gQMH4vjjjzfj51i1ZFhhVycrm5dffrlpwwkUrEpNmzbNBFBWv/Lz882EDVa2OC6OAeSVV14xXalf+9rXzOfke7Iytnz5cnPLwLk/WKFkxZKfgdVUVsuSWG1jOOX7JccBktftxMjyHJw6qWS/jpMmFmPk4FyMH5GPU44rwenHl2LGlIG7bbu/x7RxRSjKTTPVy/3BCh4rvQUFBabbORAImBDH3yurqKz4Jqt7/FfP3/72N1Mh5L9+pk+fjhNOOMF8r/wHwPjx403FklVYtpkyZYo5WInluo0MjWzPsMgAyskx/H75O+Gfp90xXf7BoHkPVnv5nYuIiBzrmLHuvPNOXHTRRaZndU9//6VcpZEhaf78+Rg0aJAJBQwTDHYMCbzPiQ27w25OYjhke4aFUaNGmcdvv/22qVrxSxgxYoQZL8dJFQwGDIM8GMySVS/OtmU3JUMIAyonVHAiBYMmx91t3LjRBAt2SXOsHl9jEGL3NgMpr82K5p7WIuTPyM/D7vHkwV/Y/uLnDPhcmDqm6ACOQkwZXYAxQ6zvZXAOJo0q2E2bAzvGDsmDIxFi91dP9/p/rqeYrDwm8Tth4Oefg0svvRRXXnml+cPM75vf/b5GVfA7Sv4+RURE5OClXGhkhYlVRgYwjktLYsDjc+yG3h1WrBgKGQCTWLXiLFqOgWN1alcML7weq4esPiXHErL7k9U+htRk1Y9VMV6bYYXBkcGP4ZGVS5/PtyOgsA0/N6uXnPG7O4sWLcIf/vAHM4aRB7u/OX7zQPD9HPb9P1wOOzL97Pq1IxyJmZ+DFcLdtT2Q40AwFDLMczkcdi/zd83fy54CYDJc8/fKoDhv3jwT6A8kYIuIiMihkXKhkdU5hgWGtd7Ly/A+B2ayArU7DBIMUr0nLzCkMNCxirhrMOHj9evXm3GLDDCcTJE8l92ovN+7PMtr8/35HD8Dz+d1OSmmd4WMbXguw9CeKo08lz8jg1Dy4OPDiZ/f53HCaQU9zqQOhWNHfM1GflccYNvY2Gi6kDmBiAF6dyGQv7dLLrnErMHICUksm7MbmyGSYxRFRETkyEq50JgMawwSvYMU7zOI9R7v1xvDGsNY74oiHzNk9J7tTHyeVULOjOayLxxLxzGJSWzPINe7GzV5bT7Hz2BCmBVs+Dl7t2MbHvwZegfY3thlzok4//d//2cOjp/k7O3Dzemwm7GQ1kdHV9j6nNEju+0ev9eLL77YjAllJZaLdfP3ytnMHIva+x8JDIacAMXgyPDNSjKHK3CNxvPPP9+MWSQOHeDvjsMOkuH9rLPOMuMgWR1O4pAFnscxsSIiInLgUi40souY3busRnHZmyRW9TjOkH/57w67PRne2LWdxEDHrmQGhWQgYfjjQtOckMHuTk7I4Ozc3sGS4+YYVDhTm+GR+Jjvz/coKioyAYXj7ThzmsE0iW3YLc2Z272713tjoGTwZOhMHnsKw4dawOu0PrsNwe6o6aY+kvhz87tllzxnmN933334zGc+g+9///s7VXqJ3y8nMt16661mQsxf/vIX83v63Oc+Z2apn3jiiaYdw+Mvf/lLE/yTSwSwu5+Bk+NMkzgeleGck2NERETkwKVcaGS448QShj3OeGVYZFWKXcnsqmRFisGN4+I4czYZ6jgTmlUr7i7CsMcuZrbhpBoGDIYyBkaec8899+Ctt94yM2k/9alPmddYHeTrxFnQnKm8bNkyEzB5LS7bw2sziLCqxYDCGb2sWHJWNYMix+jxHAZHTrZhGEw1Po/LjEVkYAxFokd9P2oRERHpG1IuNBJny3Kc4eOPP26WtXnsscfMwQof1+tj1Y+LQ7NrlyGQuIgzK1PcOYRVxDfeeMMs5Mxuzeuuu86EQAbMP/3pT3jkkUfMxBeGxuT+xAx+yfGSrF5x7N1rr71mrjVr1iw89NBDZjs7rhXIqiarYtzSjpXPv/71r2Zs5Msvv2yWf6EzzjjD3KYal9NuFuNmFzV3iwkf4S5qERER6ZtSMjSyy/jrX/+6CXzc5eMnP/mJmaV822237eiGZtjrXWksLy83C2yzSsn2HCPIMMg1H1k5ZGWQXddc/JszcLldHcfSsduSB8fZcVJGstrIxcE5No5dqFyrketAXnHFFeY9iGMa2QXNCRqsKHKR7y996Uvm+S984Qv7vUbj0eB3O+B02BAMWaHRCo4iIiIi+5Ky2wiymsiu6eSsaI455MQGdl/zIzMAcowcx0AmxysyQLIrOTm7mUGRryfHC7L7ml3HvccgJvFayQoiMZjy/Xk9nsf34OQMViz5eZLYrc2u6eQ1+V5sdyBjFPm5D2QbwYPFbumqhg4rNMaQl+lFdrpnvxfoPpbxd8k/H/ydaxtBERHpD5iX+vQ2gsSQyJDEv7zZLc1ZssnAxNDGNRu5iHbvEMUfkpNP2J7nsU3v8MZgyOc4GWPXg+fsOhGD4Y1d3uyC5lhGhsHegZH4/gybfD8evH8ggfFocFnfg9v5YRc1l98RERER2ZuUDY1y+DAserlmo8NuBUYrNEbURS0iIiJ7p9DYT/k8DjidNiswxkxwPNILfYuIiEjfotDYT7F7mgcxOB7pNRtFRESkb1Fo7Kc48cXrcsBlqo1RM7ZRREREZE8UGvsxj9sKjQ6HqTJy+Z2+0kO9bt06vPPOO2bxdhERETkyFBr7MY+TlUa7Gc/IauOR3ov6o+Ii6rfffjsWLFiQeEZEREQON4XGfox7UHN3GFYbGRi7QpHEKyIiIiI7U2js59xWaOSEmJ4u6sMXGrl4KBds577gu64nz4XRuZA6b7nQeVtbm9lvnAcXTucC57ueIyIiIkeWQmM/x0qjx2VHNGaFulDUuj08XdTcwYcrzU+ZMsXsutLb/fffb7ZnvOuuu8xe41deeaXZ+nHo0KFmr+8nn3zShE0RERE5ehQa+6pYFLFw50EftkgXnAjBGQ8h0t2Jjva23bbb3RGPBFlCTHygveNOPdxTnFsizps3z2zVR7xdtmyZ2WmHQZHbNF522WX497//jSeeeAJnnnmm2Ut89uzZZntIEREROTpSdu/p/uSA956OxxCqW4+G53+caHVwWGVMToLhLjEO+/7tQ+3MKUPehf8PNqc38cye8Y8Zf45rr73W7G/5ve99z2zNyJ/3t7/9LUaNGoVbb73VtOXPnNzju7GxEddffz3OOOMMfPKTn0RZWRn+9Kc/4aWXXsLNN9+MSy65xJxzKGjvaRER6W/493Of33ta9oy/4Hi4C6Hq1YfkiNauga1hnTl4f3dtdndE6jdZn2X/urMZAAOBAC666CK88cYbJpzx5/jggw/MPt+jR4+Gz+dDbW0tHnjgAXzjG9/AjTfeiK9//etYtWoVNm7caMY6ioiIyNGhSmMKOPBKYxzRjgZ0rnk90ergdYdjaOsKI2aFwIDXBb/Hep99sPuy4B95JmyOfbclVvLWrl2L8847z1QXp0+fjv/3//6fCYsc0+jxePDwww+bIDlhwgSkpaXB4XCYMY8TJ07EN7/5TfMvIVUaRUREDo0DqTQqNKaAAw6NZP3a4rH9ne1s/Yr5a7ax23n3Xc9cbqehtdu6DSPT70FBli/xyl5Y17PZ9y8wJnEG9cc+9jGMHz/eTIphVfG0004zAXDOnDkmEA4ZMgRf+cpXzDjIWCyGq6++GqWlpfjWt76FSZMmKTSKiIgcIgcSGtU93VcxsDlc+3VYyQ7R7lbEgi2I8TbUZh3tiQktXWZCixMR+F1xuGxxhK3w1BWOoztiQzhmnQsH4jYrHFoBcadrH2BgJAax888/3yzMzYkuXq8XI0eONEGZ4Zkhmfezs7NNe06aYWhmoBMREZGjR6GxH4hHw4i0VyPcVmkdFYi0ViLSVtVzWM9H2msQ76qDN9aEdHsr3NEWBNsb0NnejI6ONrR1dKK1oxttnWG0d4XRGbRCZXcEoTC3HjywQjXHNnIZnfr6esyaNQuDBg0yS+tQSUkJhg0bhvnz55vZ04888oipKHLM444Kq4iIiBwVCo39gM1mh93pg93lN7dwuK3fvMNUKzkTOx4LA9EgnLEgAo4gMuzt8Edq4QpVI9ZZi2BbA1pbGtHQ1Iy6phbUNbejvqUTTe3d6LaC44FgaBwzZozpkh43bhxOOukkExyJM6ivueYaM0OaYZGhku3Ync0xjpxIQ8XFxWZ5HnbXi4iIyJGhMY0p4CONaTxQZgwkZzpHem4ZFjnzOWaFvjgrhgyP1m0sglgkZD3fzT8cPW2sI2b9KYnEneiGG91xD0Jxdnu74Pd5UJgT2MNIyb5FYxpFRKS/0ZhG+U9mDKTDOjywu3ywu9Pg8KTD4cuCw2+F0bR8uNKL4M4cCG/uEHhyhsGZUWK9nm1lQy/s1rluRxTp9k7kORpR5KhFlq0eoe5OK2zt37I7IiIi0ncpNMpucaKLw5thBcliEyDd2UPMfbs3y/pT47EyaBweWxhedKKts9v8S0VERESOXQqNshc2U6Hk7Gu702uqjq6MYitADoLTn2u9FDPbD7Z0hhFj/7WIiIgcsxQaZf8kwiOX2TFd3JxYAy7RE0YkEjWzqWOqNoqIiByzFBr7CHb/pkoXsM1u/bHh+o9wmODoQBitXaFjotqobnYREZHdU2hMcVyjkMvURKNRc6QGm/WZnLA53dYtq42hnnUbI5yRnWjSByW/Y37f/N5FRETkQ/qbMcVx72Xuycxledra2sw2fFwa5qgfsTiiNpcVsqzQGO/u+XwdQXSHQrtvn+IHv1d+v1ziiN83v3cRERH5kNZpTAF7W6eRuG5gc3OzCTRcOzAVdkcx6zl2tyLa1YSIzYPGSAZc1ufKDnjgdvW9wMXgyN8Dv1tuYej3+xOviIiIHLsYA/d3nUaFxhSwr9BIDI78pXZ3p8byNlwgPNpZj64tcxGHDWviY9ERcmFgQTpK8gPwefrWtn/skmYg53evwCgiIv2FQmMfsz+hkfir4pi7mNnZ5ehiaAzVrkH9s99GLNyNFwOfw6LKTIwcUohLThmCIcUZiZZ9A8cwskua4VFERKS/OJDQqDGNfQgDDbtPWRE72ofH64U3kAF3WgCOYCeOL2iELRrG4jWNqG4MmqV5dndeqh78XhUYRURE9kyhUT4ybi/oKhgGG+Ioc1Yhyw8Eg2Gs3tKEmqbORCsRERE5Fig0ykdmc3rhzh8JKzMiXr8Ok0bmICvDg2Ub6rGlui3RSkRERI4FCo3ykdldPrjzRlv34ojUV+LEkZnISXejurYdmyta0NIR6mkoIiIifZ5Co3xkNocb7qxS2NwuxEMh5NgaMKTYB5/XhTVbm7ChsiXRUkRERPq6lJw9/d577+Hll1/Gxo0bzfInJ510Es455xwUFRUlWvynDRs24NVXX8X8+fPNmnujRo3CJZdcgjFjxiRaAMuXL8c777yDlStXor6+HtOnT8d1112H/Px88zpnJTc0NOB73/ueWRdxV7zmtddei7Fjx6K1tRWf/exn/2Mm8ymnnIJLL70UgwcPTjyzb/s7ezoVRTsbUPPIzQjXbEXGzM9hpfMkPDG7EbWNnbhk5lBcah0up/5tIiIikor69OzpZcuW4c477zSBsaSkxMxoff755/Hggw+atQp3p7q6Gg888ADeeOMNBAIBEwKXLFmC3/3ud+a1ZC6uqKhAZWWlWSR79erV+OCDD9DR0WFeo+RafZMnT8a0adN2HAUFBVi/fj1WrFhhrk+8xpNPPmmWapkwYcKOtsOGDetX6/zZ7C44i0ZZtw6E69djRKELA4vSEYpEsbGyBVtr2xMtRUREpC9LudDIIMZgd+aZZ+Lzn/88brrpJlNhZCBkaNsdVucWLFiAoUOH4nOf+5w579RTTzXPvf766ztC45AhQ3D++efjmmuuMdXCXTE0ZmRk4MYbb8SXv/zlHceJJ56IgQMHmnOKi4sTrXswkfMzJtueffbZOyqX/YLDBU/hGOvLc1qhcSMyXBGMLMtGXpYPmytbsWpzo/X9J9qKiIhIn5VSoZFdvexiHj9+vOmSLi8vN1U/3uei1vPmzUu03Bmf93q9mDFjhgl2rPbNnDnTdBG/+OKLO7qQhw8fjpNPPtlcPysryzy3KwbHtLQ0U1HkwcDJKiMrigyPu5ZsWdF85plnTPcyu79ZuWTbveHnYZc0q5XJg13qfRHXY/QUjjWVxmhTNeLd7RhTnoVBAzLQ0NyF9Vub0NQeTLQWERGRviplQiPDGbuft23bhrKyMmRmZprnGeLYPZyTk4MtW7aY53bFczgOsLCwMPEMTOBj5XHt2rU7Ko0fBc9ft24dBgwYYAJsEncP4RhHdnm/9NJLpnv8rrvuMpVNjpfcm61bt+K1117D448/bo4nnngCc+bMSbzatzA0unIGw+bxWoExiEhbLYqzHBhckgmvx4ltNW1YtaUp0VpERET6qpQKjW1tbaaiyMDXu6LHcYZ8zNd3hwM4GeI8Hk/iGZgdPlgx3N2Elv3Fz8QqZktLixm32Ltr2ufz4dZbb8WPf/xj/PKXvzSTYvheDI/sLt+bVatW4f777zdjLnn88Y9/xLPPPpt4tY+xQr3DHYAjuxA2hxOhxk2whVsxYlCWFRwzUN3QgaXr6hGKHP2tD0VEROSjS5nQyIpisluX3be9q4O8z4PBcHd4XrJNb7zOns7ZHwypHBfJcY69q4zE7nCOfZwyZYqpOF588cXmMbudOYN718/SG8c9/u1vfzNVSR6cKf6Tn/wk8WofZP3uXIXDYHN6EG7ahFhXC4aVZGH4wCwEgxFs2taMijpNiBEREenLUio0Zmdnm2phU1MTuru7E6/AdFvzMV/fHT7PMYG9Z0JznCArf+za/qhYZdy0aRNGjx6NiRMnJp7ds9LSUlOB5PuyYronrIJyhnVy3CQPntd3WaGxYJT1g3kQadyCWLAFAZ8L5QMzUVKUjvqWLsxbVZNoKyIiIn1RyoRGYjc0AxrHEXK9RGLFjuMGa2pqMHLkSPPcrjjxhUGTYxuTGNw4MYXrDjGQfhRvvfWWCXfjxo3br2V0+DnZVc5ucQbDfsP6ej35o2G3QmOsqRqxrnb+4lBakI4Rpdno6ApjS2VrorGIiIj0RSkVGukTn/gEFi5ciMcee8yso8jbp59+Gnl5eWZ5m7q6Onz3u9/Fr371K7PANrG7l13RnFTCrt7Zs2fj3nvvRVVVlVleJ9lFzUDH9R8ZShkyOVaRM6N58HFvPJefgzOwuUB47+DJiia7lR999FGzDNDmzZvNLG1OhGG7qVOnJlr2Fza4c4bC5vYhFg6byTDR7jZkp3tQkO1DKBRFQ1MnIlGNaxQREemrUi40ch1F7rrCwPb1r3/dTBLhzGWuvcj1GtlNvXTpUqxZs2bHMjUMdTfccIPp2r7ttttMqOQM5W9+85tmAksy8PGa3HXlC1/4gpm9zBnLfA8eXOqnN1YZGUrZLc2lf3pj9ZOB85577sEXv/hFXH/99fjNb35jusJvvvlms/RPf8N9qM1kGKcLkZZtiHY1Is3rRFbAA7vdhq5gxHRTi4iISN+UktsIbt++3VQEWf3jrGkurM2FuTn2j+MbOdGEYwAZ6NilTWzL8YdcGJxVR1YmR4wYYW6TWD1kZXDXGdXsTmZbLtGTxG0JGTzZ9c2xir0xrLK7nLvKsHrJr5ATYxhuuVzQntaA3JO+vI1gb43v/AodS16Cu3gUMqffCG/J8ZizrAp3PbUcbocNN185AVOGf/QxpiIiInJoMcPs7zaCKRka+5tjJTS2rXwKrbPuBpx2ZJ36RaSNOAeL19fhvpdWo6GhEx8/ewQuOWn/9+QWERGRw+tAQmPKdU9L3+XKGw67O4BYax1iHc2Ix6JI87mQz3GNkRgq6z6c3S4iIiJ9i0KjHDKuzEGwe9MRD3Uj2t6AWKjdLL2Tn+VHKBxFVb1Co4iISF+l0CiHjMOTDkdGjpUePYi0VVvBsRYBrwsFWT5EIjHUN3IGtUZDiIiI9EUKjXJIOXIGwu5Lt0JjFSLt1fB5ncjN8JoZ7B0dITS3d5vxEyIiItK3KDTKIeXKKYfdm4lIazWibbVw2u1I87uQnu5BNBrDlto2RGMKjSIiIn2NQqMcUq7swSY0xtrqraNnVx+v24n8HD8iVljcVtMGZUYREZG+R6FRDilXVhkcVmiMh0KItDchGmyBz+NEUa7fVBq31rYjptQoIiLS5yg0yiFldobJyIXN40O0sw6R1gp4PQ4U5lih0QqLFbWsNCo0ioiI9DUKjXJo2WxwZBXBkZaFaLsVGlsq4HM7MYChMRpHdU07ohHtQS0iItLXKDTKIefMGgi7PxfRjgZEWivhdTtQkO1nntwxg1qTYURERPoWhUY55JyZpXBYoZG7wkRb6uCwwmI6Z1AHPGY8Y2VDh1m3UURERPoOhUY55JzpA+BIywUioZ6dYbqb4XY5UJCfBtYXt9d1IBxVaBQREelLFBrlkHO4A3AEcmBzexHrbEa4ZbsJjQMYGq3UuL2uHWFVGkVERPoUhUY59DgZJiMf9vRcRLuaEG7aYoVGO0ry0qwX46hgaFSlUUREpE9RaJTDwpFeBEegELGuZkSatsLtdFihMWAqjTXsng5HEy1FRESkL1BolMPCuSM0tiLaVAmX04aSXM6gtqGlpQudwYhmUIuIiPQhCo1yWDgziuFKL0Q81I1oayNskQ5kBjzwp7nM61UNnegOqdooIiLSVyg0ymFhd3lhD2TD7k9DLNSOcMMGOBx2FBUETLWxsqEdwXAk0VpERERSnUKjHCY2ONJyYM8oQKy7DSErNDqt0DiwMAC73Yaqhg4EVWkUERHpMxQa5bBxBPLgzCyxQiMrjRvhsMJiaUG6ua1W97SIiEifotAohw13hXFmDEC8uxPRxu2me3qQFRrtNhtqGzoQUmgUERHpMxQa5bBx+HPgDBQhbnaGaYI90onSgp7u6da2brR3hRGNaga1iIhIX6DQKIeNzZVmxjXaXO6eamNbJXLTvfD73YhZYbG+pQtdIU2GERER6QsUGuWwsdkdsPvSYc/IQSzcjXDjBjidduTn+k1XdU1zFzq6FRpFRET6AoVGOazs3nQ4M9hFHbRC40bYrOe4BzVnUtc2dqIzGO5pKCIiIilNoVEOK7s3E47MEis0diPSuJkr8aAkPwCXk6GxZ2cYERERSX0KjXJYMTS6Mgf2hMaGbbDF4xhY0BMaG1o60aVKo4iISJ+g0CiHFUOj0wqNiEYRbWlGLNyJ0rw0uBx2NDZ1oaMzjJgVJEVERCS1KTTKYWV3uuHwZ8Hm8yMeiyDcsBYFmR54PU7rMdDU1o0OdVGLiIikPIVGOcxssLv9cGYVAlZo7K5bC4ctjpxcP9xuB+pbu9DWGUq0FRERkVSl0CiHnc0KjY7sUsRjYYTr1wHxKAqt0OixQmNDS9AKjRrXKCIikuoUGuWws7vT4MoeZMY1hus3IG6FxgEMjS4H6psZGlVpFBERSXUKjXLY2azQ6MwuN2Mao/XbEY9GrNCYBq/bgcaWINpVaRQREUl5trglcT9lrFmzBkuWLEFNTQ08Hg9GjhyJiRMnIisrK9HiP1VXV2Pp0qXYsGEDotEoSkpKcPzxx6O0tDTRAti6dStWrVqF7du3o7W1FcOHD8eMGTOQkZGRaNHjmWeewaZNmxAKfVgBy8/Px5QpUzB+/HjzmF9bW1sbZs2ahc2bNyMWi5n3mjRpEgYNGgSbjctY759wOIwXXngBP/jBDzB37lykp6cnXjk2xKNhBLcvQu3DX7G+FzuKPn0/aqJ5+N2Di7G1uh03XDQG559UDod9/78zEREROXjMM+3t7TjuuONwxx134PTTT4fL5Uq8urOUqzQy0P373//GI488gjfeeAPPPvss7r33Xrz++us7hbjeWlpa8OKLL5p2L730El577TU88MADePDBB81rSQyjr7zyCp5++mn84Q9/MK83NjYmXv0Q3/9vf/ubuc77779vjmXLlqGuri7RAggGg3jyySfxj3/8A6+++qr5rPfcc4/5vPwZ5EM2hwsOXxbsaemIW+E61LQJuQE7/F4XIpEoWju60aXtBEVERFJayoXG5557zoS1E044AT/+8Y/xpS99yQQ0hsAtW7YkWu2MVUkGQa/Xi1tvvRX//d//jdGjR+O+++4zgY9VQMrMzMT06dNx/fXXm6rh3kybNs28/1//+ldz/OhHP8LJJ59sXotEIti2bRtuu+02FBYW4nvf+555vayszITWd955xyR3+ZDN5YEzp4T/pEG4YR08jigyM7zWv2YcZtmdZis4ioiISOpKqdDIoMXqHUukF110ESZMmIDzzjvPHKwYsit4d9566y04nU5ceOGFOPXUU0239OWXX266qB9//PEdoZFB8MorrzSlV4a9vWFQZWWxtrbWdEOT2+02t52dnZgzZ47pPv/KV75i3o+f+eqrrzbd6QsXLjTn7wl/Tn4mdqMnj+RnPFbZnAyN5dY9KzTWb7SSdwh52T74vc6e0Niu0CgiIpLKUio0dnd3Y+3atWasYXZ2tnmOYwMHDBiAgoICrFu3zjy3q40bN5rxjgMHDkw801NVHDt2rOlWPtCqH4Mfx0d+85vfxCc+8Ql8+9vfNuMck13dDIQrV67EiBEjzFhHBlbiY35OhkmOsdwTjh2oqKgw4yZ5cEwkzzmW2ZxeuHKHMDMi3LDJjHPMt0Kjz4TGIJrbNINaREQklaVMaGSlrampyXT9MgAyuCX5fD7zuLm5OfHMzvg8g5vf7088AzOIkxNK6uvrE8/sv/PPPx8///nPTZf4z372M1Nh/N3vfoe7777bvM7PyLGQeXl5sNs//Ar5fvwMrERyos2esCv9kksuMSGTx5gxY0w3/LHMhMacYda9OKINlYhHQijM8SHN6zKBsVWVRhERkZSWcmMa9+ZAK4asUn6UsYWXXXYZzj33XNPlfOaZZ5pK4+TJk/Huu+/utYK4vz72sY+Z4MiJOTxWrFiBP//5z4lXj03cTtCdPQg2hx3xUAjhthrkB6yg73WitS1oQuNH+V2JiIjIkZEyoZEBjxVGVgxZpes9U5rdwXzMLufd4ZI5rP51dXUlnumpBnIsYm5ubuKZ/ZesbLJaydthw4aZZXRYCWVodDgc5rOy2th7LCK7nfkZeP7els0JBAKmK33IkCHmGDx4MIqKihKvHqNsdthdPtiz8/kA4abNyE2LmUpjJBJDW0dIe1CLiIiksJQKjQxoDFEco5jsimb1ieP92M08dOhQ89yuysvLTdCsqqpKPAPzmOMj2fV7IGsm7g7DJw8GWgZCztLm2pHr1683wZETWYifm5+T4xw5tnFP+HnYrc3wmTx6d3MfsxwuOPPKrD91dis0boIbIWSke80e1K1WaOSEGBEREUlNKZVUGJw4A5qTULguI7tuuXwN10BkWDvxxBNNmLzrrrvw6KOPmrGDdMopp5gFsrlUz/z587F8+XKzbiMX8+bYwWQgYxWQwZLrKLIq2NHRgcrKSnMwFLJqyNnSXDaHi4CzqsjgyfdavHixGX9YXFxsxi3ys7DyybUZOdlm9erVeOqpp8x7cNZ37/GV0sNmd8KVN9wKzXZEGrcAkS5kZ3qR5nOjxQqNDW17nnEuIiIiR5fjfyyJ+ymBFTqux8jQNm/ePHOw2sjJKTNnzjQzmDkphRU+PmaYZFcxQyBDJtdl5K4qDIxcYoezn9PS0sy1OXaQC3dzJvSCBQtMgOR7MfDxOuwmbmhoMEGQ4xdnz55tltbhLjOscn784x83wZGVQXYxs/LIkMpAyXZcu5Fh8oILLjigbnGGVc4MZ1C+6aabdpoEdGyJIRpsQXD9HOtuN/zDTkNdKIDNlS0IRWIYNCADg61DREREjhwOAbzzzjvNcofMQsw5u5NyoTEnJ8dU81gdZFjkcjucjMKDYxcZsFjNY3jjkjocd8iqHs/hOEKOZeQt107khBau1ZjEoMkwye5hLuszatQoUy1k6ORjjlskBlO+Dz8DX+PWgAytnAyT/CIZGHk+35/vyRDJhcO5piQD5oF0ifef0NjTNd+x9HkrM7bDP+J0dDhzsaGiBQ0tQQwsTMeY8pxESxERETkS9jc0puTe0/3Nsb739IfiVljsQOXfL0e0rQE5F/0/NGRNw0Ovb8OiNbU4Z3oZPn3xWNgPcgyqiIiI7B/GwD6797Qcy2ywuXxwZOXD5nAi3LwNWe5upPtd1r9yomhtDyFo3YqIiEjqUWiUI4pFRGdeuZlJHWnZBp8tiIwAlzeyo70rbLqpRUREJPUoNMoRZoMrbwhsDjeizdsR724zy+6kW8GxoyuEupaeGfEiIiKSWhQa5QizwZ0zHDanG5HmKjPGMSvdbaqN7V0R1DZ9uEC7iIiIpA6FRjmybICbazU6PIi1tSLW1YasNAeyAm50dIVR36zuaRERkVSk0ChHmA2OtDzYfWkmQEbaapDp6rZCY0/3dH1jp/agFhERSUEKjXLEcWcYR1YhbC6PFRorkeXqQl6mD9FoHA3Nnai2gqOIiIikFoVGOSqcOaVm+Z1IaxXc0TYU5aUhN9uPxtZurNralGglIiIiqUKhUY4KZ04Z7G4fom3ViAdbMMAKjeUD0tHc1o0VGxugHmoREZHUotAoR4U7ezBsLj9irQ2IdbWiKMeP8uJMdIei2FrZiqZ2TYgRERFJJQqNclQ4MwfB7k5DLNiJWEcLMrxxDMwPIOB3oaU1iNVbmxMtRUREJBUoNMpR4fDnwO7PgM3uQLSjHvFgE/JzfBhcmoWOrggWr61NtBQREZFUoNAoR4XNZuvZg9rjQ6S9xgqOdcjP8mGEFRq7uiNYvbERQetWQxtFRERSg0KjHDXOrBIrNKabwMhqY3a6F0OLM+F02tHcEsS6imbEYoqNIiIiqUChUY4aZ2Yp7AyN7XWIdTbAYbchO9MKjmXZ6A5HMW9VDSLRWKK1iIiIHE0KjXLUOLNK4fCmI9beZB3N4Do7WekejBuSi5AVGhesrEUkotAoIiKSChQa5ahxpRebSmM8Eka0sxmxEPeh9mB0WTYcDhsaGjqxpaYNYQVHERGRo06hUY4au8sHRyDLbCcY7WxCpL3WjGfMy/JhUHGmFRajWLS+DsFQJHGGiIiIHC0KjXL02OywZ+TD7suwQmMDIm3VsFlPc63G8cPzEI/HsXBVrZlNLSIiIkeXQqMcVY70Iis0ZlqhsRHRthrzXJrXhYlD82C327Gtqg01TZ3qohYRETnKFBrlqHJmDLBCYzZinc1WaKwzz7mdDpQWpCM/z48w12zc2oz2YNi8JiIiIkeHQqMcVc70AXBYoTHe1Y5YeyPisQhsNsDndWLiyAIzIWbZ+nq0dYQSZ4iIiMjRoNAoR5UzkG+FxiwrLEYR7WxFLNhinne7HJg6qgAupx0btjahsTWIqNZsFBEROWoUGuWosjk8sKdlwu71I2oFxnDLdvO8y2HHmPJcpAc86OwMY3NVK1q71EUtIiJytCg0ylHnCORYwTEbsWAzIq0V5jl2UXvdDowelgePdbticyMaWoLmNRERETnyFBrlqHOwizot1wqNrYi09IRGYnCcPCrfCo9OrN3UhMaWrsQrIiIicqQpNMpR5wgUwJ6Wj1hXK6JNVWY7QbJbqfG4oXlI87vQ1h5ERW07WjUhRkRE5KhQaJSjzpleDFd6ERDuRrh+C4K1qxKvAOl+NwaXZsHjdmJdRQuqmzoTr4iIiMiRpNAoRx33n3YVjYAzvxzhxq3oXPUC4vGemdKsNo4bmmvC44btLahpUGgUERE5GhQa5aiz2R3wFI+Hd/B0xEPt6N68EN3VyxKvAuOH5CEj4EZjUyeq6tvRrlnUIiIiR5xCo6QELvLtLZ0MZ145Is2VaF/+rFnomwqzfSguCMDBbQVr2lDdqGqjiIjIkabQKCnBZnfCXTASvmEzEI92I7hhLrprVphFv50OO4aVZSMrw4Mt1W3YXtuWOEtERESOFFvckrifMioqKrBx40Y0NzfD6XRi4MCBGDx4MAKBQKLFf2pqasKmTZtQVVUF/ki5ubkYPnw48vLyEi2Auro6bNu2zdx2dXWhuLgY48aNg9/vT7QAQqEQ1q1bh5qaGnR0dMBmsyErKwtlZWWmvcPh2NHuueeeM+/VW2lpKUaMGGHO2V/hcBgvvPACfvCDH2Du3LlIT09PvNK/cBxj9/ZFaHzjV4jUbYVv3BnIPf3bZswjJ8H865kVWL+9BZfMGILLTx9u1nEUERGRj445pr29HccddxzuuOMOnH766XC5XIlXd+b4H0vifkpobGzEfffdhwceeACvvPIK3n33XWzZssWEMAYyu/0/i6OdnZ14/fXXce+99+KZZ57BrFmzsHTpUvNFjBw5cscPz0D28MMP4/HHH8c999yD2tpaTJ8+fUfAi8ViqK+vN1/a888/jzfeeAPvvfceFi1aZL7QAQMGIDs727RlSD3hhBPw/vvvY8GCBaYdPyuvMXToUBNa9xfPYVDlz3DTTTfB4/EkXulfGNBtTjfiNqB78weINmyBp3wqnGn5SE/zYdXmRmypbEVmwIOy4gxkWbciIiJycFgIu/POO3HRRReZIl2yQLarlOuefvHFF01oZOL97W9/i69+9auorKw0Pwyrf7uzcuVKEwKDwSD+67/+Cz//+c9NdfJXv/oVli1btqMayC9hwoQJuOGGGzBt2jTzXG9s19bWZoIp2/z1r3/F73//e4wdO9aE0UceeSTR8kNf+9rXTBBl1ZHHt7/9bQwZMiTxqhwohz8X/vKT4MwvRay7G22LHkK0swFuhw1lJZnIyfKhoq4dG63wKCIiIkdOyoXGhx56CJMnT8ZVV11lKnlXXnklLr30UtOlzMrf7rz66qumSnX55Zfj/PPPx4wZM3DjjTeiqKjIVCyj0ahpd9ppp5lK3sUXX2xC5a4YKtml/ctf/tJca/To0Zg4caL5LKwerlixYse1ktxuN7xer+nizsjIQFpamulSl4/I+j060wsRmHKteRhc9Q5CdRvMOMfhA7NQlOtHdUMHNlW0WL+LnmV5RERE5PBLqdDI8uiqVatMl3Kye5dhsKSkBIWFhVizZo15blfr169HTk4OBg0alHgGpsuZVcXFixfvqDR+VN3d3aYL2efz/UfJllXNk046yQTSn/70p6bqebDv19/Z3QGklZ0IV8lg67sE2pY+gkhrFYYWZ2JAThqCwQjWbW3Ekk0NiTNERETkcEuZ0MigxXGCDGgcN9h7XB+reKzm8fXd4fOs7rHKl8QKIIMjxy0eDE6GYYWT12E4TGKAZNf07bffjr/85S+45pprMHv2bNOlPn/+/ESr3YtEImYcJsdJJg9OzJEE6x8Kdl8WMqbfbMY4dq+fj+6qlXDFuzB+RD6Gl2djw9ZmvDJnM2qatfyOiIjIkZBSoZHVPOKYQlYYk8wECevYtWs4iecl2/TG6+zpnP3BMZL//ve/MWfOHBMYL7jggsQrPaHxG9/4hukOnzlzJq677jrTpc1xl2y/N6+99ho+//nP46yzzjLHueeeix/96EeJV4VsDjd8pVPhGTTOPO5Y9TwiTZswYWgeThxfjPR0D1ZtbMQz72xCOKJuahERkcMtZUIjAx+XmmH3LytvXIYmid3WfLynpWi4FA/DIauUSazmsUp4IEvf9MZrcTY2A97UqVNx9dVXIz8/P/FqTyDluMjMzEzz/uw+51hMztTevn37XsMqu99ZmbzlllvM8ZWvfAUXXnhh4lUxrD8PDk86ApOvhsOXidD25eiuWAo/2jFtbBFOmlCMYDiKhauq8drCbYmTRERE5HBJqdDIbmguq7N161a0tvbMjmUFkpNg2AXNtRJ3h+dw1nPv2dUMjFzrkWsm7lqB3BcGRlYYX3rpJTMRhhVEzoje13V4HsPqrpXSXfHnOPvss3HFFVeYg9c/+eSTE6/KDjY7fAOPh3vQeDO2sXP92wjVr0VRtg8njh+ASSPzUd/YiTfmbcXqbU2IxjSWVERE5HBJqYkwDFvsruUyOVz3kOszco1EdvfyNS6TwyrkU089ZSqA7D4mzrJmYOOYQk6k2bBhA9555x2z2Pd5551nziW24TqMHJ/IMYUcR8hAyoOPGVDZ5sEHH8Sjjz5qgiK7jjkRh6/z/diGlU9Oylm4cKFZTLyhocHMrOa6kqyIcqZ18j13h6+xIslxl8lDM653jwt7+8eeD2dGAUJVq83i3wg2onxABmZMGoiSwgxsqWjBs+9sQENLEDEFRxERkcMi5Rb35qxpLszNwLd27VoTGBnyTjnlFDOmkLvEcPIJ127kcxxbyC5ohjcGRi6SzaDJ4MmK3mc/+1nTfczKH2dZc71FLqL9wQcfmMokK5oMp5xow8W7uWPMd7/7XfP+nI3N9+Pi3WzPcMhrsprIRb15LYZFztBmyGVYZRc1g2pBQUHiJ9o3Le69d840KzA2bkCkYSvi4S44swbAnzcYAb8bNocNa7c1mUW/09LcKC1Mh8ftwIHVlkVERPqvPru49/jx4/GFL3wB5eXlppuaYwMZFjkGkN3XDFRjxozBsGHDdlTnuB7jtddea7a+aWlpQXV1tbkOZzfztWRXMauUDHabN282gZBd19yykIGNO9EQq4+8PscxsirJcMidZHiwushKIquEHMPIL5XnMuSyEslxiVwUnOfLoWN3p8E/4gw4cwchVLMGwS3zEemsR1a6ByeOK8K08QNMhfGF2ZuwfGMDurojiTNFRETkUEnJvaf7G+09vW/xSDea3vkDOpa9AGf2QKQffzXSRpyFmN2Divp2/P6hRdi4tRkjh+XiU+eNNguBu5wp928iERGRlMIYyKLa/uw9rb9VpU+wOT3wDZsBd9EohOvWoWPlywhWLYMt0mkW/L7+gjHIyvBizboGvLO4AlWNHYjp30MiIiKHjEKj9BnegcfDWzYZdm8AwQ1z0fjS/6Jt5dNwxMMYPyQH55wyGIE0N157bzMWra5FW+eHyzaJiIjIwVFolD7DZncgfdInkHnq5+EqGIRIQwVa374L9S//F2Kd9bj05HKMGp4Hh8OO597djIVrarUMj4iIyCGi0Ch9itmXeuT5yD7zO/CPPxvxUCeCa+ei/vFbEN02C9fMLMXgkkw0t3Th7YXbsXRDfeJMERERORgKjdK32GywewLwFk9E5rRPI2PG52H3+RCq2YiWN/6IwMYHcM54F4rz/Fi9sQEvz92Cpdat5nuJiIgcHIVG6ZNsTi9cuYMRGHMhsk/7BjzlxyHSVIHQipdRXv0wTiisRLY/huVr6/Dkm+vx9hLrtchH34dcRESkv1NolD7LZnfCmV4A/7DTkTn9swhMvgyIReCs+ADjO17BGfmrUOhrwaoN9Xh+1ia8NHcLWjo+3J9cRERE9p9Co/RxNthcPvhKpyH9+E8gfeo1cOUMRGbHBkwIz8Hp+eswNKcTW6vb8OK7m/DCnM2oqNdyPCIiIgdKoVGODTYb3NnlSJ98tQmPnvLJ8EdbMTayAGeXbMP4QR60tofw/KyNeH72Rqzd1qzuahERkQOg0CjHFDO7eswlyJj6SXgGTYSjqx5DuxfjwuHNmDI6D06HHS/O3oSn3tlgthzsCIahoqOIiMi+KTTKMYd7jbO7Om3s+XAXDUO8YT0G1L+GK493YubUUuRm+TBvUSXue2k1FqypRXN7t9m7WkRERPZMoVGOTVZw9A85DWljLoA9LRvhyhXwrnsYV51ciCvPHYn8HD+2bG/B3c+uNNsONrYGFRxFRET2QqFRjlk2pxv+EWchMPHjiEfCCG5cgNDKh3D2lBJ8/frJGFScgba2IO5/cRVenLsZDdZ9ERER2T2FRjmmOXzZVnA8Df6JFyHW0YSOhc+ha/M7GFmcjm9dNwWTxw6A3WbDu0ursHiddo8RERHZE4VGObZZgdCVVYbA6PPgGTIZ0fYGNL/xR0SbN6Mo24NrzxmB4aVZqKvvwJpNjahq7EycKCIiIr0pNMoxz+ZwwV0wCumTroYjKxeRxgo0z/oD4u01KMnzY9yIPGRnerFmayOWb1S1UUREZHcUGqVfsLv98JZMQsbU62FzOhDctAjtSx+DraseU0YWoHxABmrrO7FqQwPqWroSZ4mIiEiSQqP0EzY4fFnwDz8DaRMuBqJRdKx8BV2b3kVxegQjynOQ5ndhQ0ULllrBUURERHam0Cj9h80OR1oe0iddBU/5JMTam9G+9FmgbgXGDvJjaGkWaho6sWRNnVm7UURERD6k0Cj9is3uhDtnsNlq0Jk3COHqNehY+SJKHNUYNSgDbpcdmyuasXyTqo0iIiK9KTRK/2Ozw19+KtLGnQdHeh6C62cjvm02huaGMbwsG3XNXZi7rBqdwUjiBBEREVFolP7JZkP6xKvgHTLN+q/Aja4NszEgth4ThuYgHo9jw9YmrNramGgsIiIiBx0au7u70dXVhUikpyoTDofR2NiIiooK1NXV7XheJNXYXX4EJl4BV8FwROq2wNW4HuX5dgwfnIOm1m689sE2RKKxRGsREZH+7aBD4+zZs/H8889j06ZN5vGqVavwta99DVOmTMEnPvEJrF+/XsFRUpYnfxTcRUNg8/jQXbMSRdF1OHFMkfWPoTBWr6/HxqpW7UktIiJiOejQ+Nxzz2H16tVwOp2ora3F66+/jmXLluGWW26B3+/HbbfdhqampkRrkRRjs8E7+CS48oYhXL0OrtoVGDwggBFD89DRFcHTszYhrGqjiIjIwYfGmpoauFwuZGZmYuvWrdi+fTvOOeccfOYzn8EXv/hFvP/++6YLWyRVeQccB3fBMCAeRahuPXIiGzDjuGKEIhEsXVWDbbVt6qYWEZF+76BDo8PhQDQaNV3QHMfIEDl16lTk5uaiuLgYzc3NiMX0F66kLrs7APfA8XDmDUakfiOc1R9gRGk2BltHR1cIr3ywDR2aSS0iIv3cQYfGwYMHY/ny5bjzzjvx7LPPmqoixzMyRFZXVyM7Oxt2+0G/jcjhY7PBU3wcPEVjEOtqQaR6DbLttZg5ucSMZ3x/aRUq69oRjugfPyIi0n8ddJq74IILMGjQIBMcWXE866yzMHDgQIRCIaxduxYnnXQSvF5vorVIanKmF8E9YDQcGfmING6Fvfp9HDcsHwMKM9DSGsS8ldVo7QglWouIiPQ/Bx0aJ0+ejKuuugqXX365mS198cUXw+12m3GOY8aMwQ033IBAIJBoLZKazE4xRaPhLp6AaHsDIls+QI43hBlTSuCw2zB3WRUq69s1KUZERPqtgw6NbW1tGDBgAC666CKce+65SE9Px8KFC80salYYTzzxRHg8nkRrkdTlyi6Hp2QibE43wnWbgfolOHVCMfJy/Kit78DSjfXak1pERPqtgw6Nc+bMMQcX8ubC3itWrMCf//xn/OlPf8If//hHM3uaXdUiqY6LfXMWtbtkNKKdTehe+yoKM12YOn4APG4n3l9eje017Yhq3UYREemHDjo0vvjii2Y8IzE4zpo1C0uWLDFjG7kd2+9//3u0tLSY10VSnSunHN7yk4BICKEtyxBt3Yazji9BTqYX2yrbsGZLo6qNIiLSLx10aOTC3T6fD1lZWTvWabzkkkvM4t5f//rXP9I6jdyWsKGhwcy+5hI+ra2t+9xVhlVOLu/D9jyPWxnuWuHk52AbLkJeVVVlPjsn7+yKYbe9vX1HO4bhjo6O/1g6iOfyGny/5HtqTcq+zeHLgadwFBx5xYgG29Cx4kkMyvVi7Ig8+LxOzF9di42VLebPiIiISH9y0KGRO8Ew0DGgJfebnjRpkllmJyMjY7dha2/4lzGX7rn66qsxbtw4MyaSu8oktynck8WLF+O73/2uWe5nwoQJ+PSnP226zXvj429/+9uYMWMGhg4diq985SvYtm1b4tUPBYNB/OEPfzDVUk7mOe+883D33Xeb8JrEwMhzeQ3+vOPHj8dnP/tZU2ndXRCVvsOZVQLfiDMRD3Wia8XLiHa345yppcjL9GHD5ias29KE1s5worWIiEj/cNChcfjw4Zg3bx5+/vOf45FHHjEh8fjjjzeVvy1btqCwsNAsAL6/Xn31Vdx+++0YPXo0/vnPf5pqJbu7+dyeurnXrVuH3/72tya0/vSnPzVjKrlDza233mqW/UlWhRgGGRYZKE8++WTz3O78+te/xhNPPIFrr70WDz74IM4++2w8/vjj+Otf/5poAfNZPvWpT5nKJt/7rrvugs1mM+tVvvnmm4lW0hc50grgHzQddp8fMevPc8e6V1CW48SoYblIC7ixaG0dVm5uTLQWERHpHw46NHKZnYkTJ5r9pll1vO6665Cfn2+6mN97770DXqeRIY3B7sorr8SZZ56JT37yk6bSx0rj22+/nWi1s9deew2dnZ1muZ+Pf/zjOP/883H99debWdsPP/zwjkrnKaecgptuuglXXHGFWZR8V8lu6UcffdTMBOe1WJW88cYbTfWSP8/GjRvNe/E+Z4kzmLItgyVDJiuurGiq2th32ewOODOL4B11OuLRCDqXPQ1buB0zJ5WgJC8NmytasHpTA1o6NBRBRET6j4MOjQxf3Gf6F7/4BX7wgx+YLl2GRy69w0rcd77zHVP12x/s5l6wYIGpMpaXlyMtLQ05OTmmmslrJCfc7IozttkVPmrUKNOO60LyfHYtz507d0do5GfKy8szbbiO5K4Y9FavXm2qhyeccAJKS0vh9/sxZMgQ8xkYFtesWWMCMbvDudTQ2LFjzXhOflZWWLl9Isd2spte+i6HPxdpI8+BzWFHuGYLuquXoTzXgRGDc8zYxpWbGrFsY0OitYiIyLHvoEMjw1dZWRmKiorMxJF33nnHzKhmuBo2bBhGjhy524C2K1b5OGaQ3b7s0mZYS2LIYyhjmNsdvi+rmQxvSXzM6+xuzOKeMFxyIg8/C89NVki5WDmvzTDM92I1sbKy0uytzUlA7JYmVlgZXvlzcFLMnjCccsIMw2fy0ASa1GJzeODOHQp32QTErd9Xx5pX4Yq0YOroQgwqysC2qjYsX691G0VEpP846NDIgPTUU0/hl7/8Jf7yl7+Y7mVOGuFjjvVj0NufiTAMagxObMuQ1nscJO/z2FOwYojjxBuGuiQ+5nU4jnF/8TOwPUMgg27vPbN57eRnSH7WXbvdeQ7bsWLKMZ17wm5tfjeswvL4/ve/j3vuuSfxqqQE68+A3ZuBtLEXWQHShe7NCxFu3IIhhV6MKMu2ftd2rNvajBWbVG0UEZH+4aBDI8f2Pfnkk2bJGXbVcgwju2lZcWOY5AQSTo7ZFwY1Vu0Y1Bjcei+xw/s8+PruMLwxbPYOanzMYMcK5f7iZ2B7hkIG0d5hl9fmZ+B78TPys7C7mm2T+H5sx/C4t11w+D7JIJw8egdUSQ12pxe+sulw5pYg1tWO4NYP4Ik2Y8LwPAwZmImqunYsXF2L1k4tXi8iIse+g04qr7zyirnlBBNWzL72ta/hW9/6Fr73ve+ZAPmvf/3LbDW4LwxSHIvIMYFcG7F30ORaiMntCneHXePs4u3dJcxAx9nU7DrntfcHgxvb85bn8hrEEMtrs1uZXdKsYHK8I7uy2SYZLllVZfc6u9M5FnNPuEQP17HkjHMenPHNiTuSYmx2M7bRN3Im7G4fghvfRaRpK4YVBzBmcI7158SGDVubNZNaRET6hYMOjRzbx9nOnEGdrK6xcsYxgdyPmrONe1cN94Zdu1yXceXKlWZCCsMigxknwDAUHnfccaaax5naXEoneV2+N2c9L1261AQ3Lgy+atUq04azn5Ohke0ZRtmWFUEeycesLPJz82fhJJp3330X69evN4uBc6INPw/HNY4YMcJUGSdPnmxe43JDHOfIUMlZ0/zMnDjD8LsnfB9+V7xO8tD+3KnJZnMgbeR5cARyEanfhlD1KvjiHRhVnothg7JR29SJd5dUorN7//6Mi4iI9FUHHRo5I5nVNXZPM3gRK3Ic68jAmJ2dfUBdr1dddZUJY88884w57r33XjMDmjOhp0+fbgIhq3N/+9vfTNij0047DQUFBWZJHi6xw+5yrrPIMHbppZfueH+GO4bB119/3awhycD71ltvmfM44znZPc1lhObPn2+u8fzzz+O+++4z7RlABw0aZK7LLviZM2eatSSffvpp81l5ywoj14BkMJRjgPVnwkyIKR0Dm9uHrs3vIVS/HkNLMnDc8HzEYnGs39KElVtUbRQRkWOb438sifsfCbuSGbpY4ePsYYYlhjMucM1dVRisuI4hg9b+YJWPQZNVu8cee8wEzzPOOAM333yz6YZmGH3uuedMuGNY5HXZnmGOM6W5xuLs2bNRUlJidojh+orJSiPHX3JpIAZLfl5WBznbe9GiRaYyym5j4i0rm5wFziDI6iZ3qOE6jMmKILuoTz31VFP15KLmvA6rlNwVhqFxf7vEid3bXKCcYZbd/Ko6piCXB6HtSxGuXQ9X3mAEikchaneiuqkT22va0NEdxYnjikyXtYiISF/Coh83J2EPMZdS3FPhyxbvPZPjI2D3LndD4ZuxO5dvxEsy+HCx7d/97ndmbURN9NgzdpO/8MILZp1LVlVZvZXUEo9FUffstxFcPxee8snIOOFTiOdNxjuLtuOvjy9FZsCDb90wFWPLWFlXcBQRkb6BmY09txwCeMcdd+D000/f41KJB53kuJ7i5z73ObNfNCuAf//733H//febbl8uwaPAKMcC7hLjH3U2nNmlCG1bilDFcnhdcQwemImxI/PREQzjyXfWIxLd9/JSIiIifdEBVxpZwmQSZXWst+SC1ZxswpDI7lsexFDJGcWye6o09g3RYAsaX/05uta+De/g6ciY/ilEssdhzrJK3PnoUrNTzHdunIrRZTlwO/UPJRERSX2HtdLIcMgxg7Nmzdrp4BhEbgG4ZMkSM0aQs4qTrzFMivR1Dk8GvOXTeqqNVSsR3LIAPrcNwwdmYdTQHHR1hfHie1vQ0aV1G0VE5NhzwJVGVhI58YXhcX9xwsj+ToTpj1Rp7DvCLRVomXUHOte8bqqNmad8HuH0oZi7vAp/eWSx9efcha9fOxnjh+TB69YMehERSW0HUmk86IkwcvAUGvsOTohpW/o42uY/yH9BITD5MqQffwOqGzvxu4cWYd3mJpxyfCmuPXsEBuTu/25EIiIiR8OBhEYNvBI5AJwQ4y2dDM+AcYh21KN722JEWyuQne7FWSeUwe1yYMmaWmyqbEWXFvwWEZFjiEKjyAFyZZXBUzwOdn82wvWb0blpFjxWWJw6uhClxRno6Ajhg1U1qG/pSpwhIiLS9yk0ihwgm8MFtxUaPaXHIdpeh+D62YgHm5Dhc+P0aYOQ5nNh0ZpabKttR1hL8IiIyDFCoVHkI3DnDYO3dApsTrfZk7pzy7tmUe+ZE4qRk+VDa2sQmypa0NymlQNEROTYoNAo8hHYHB64CofDXT7ZjG3sXP4sEAsh4HNh7PA8pPncWLGpAZUNHYkzRERE+jaFRpGPyJ07HGlDTrPCYgTh6s3o2v6BmV09bUwRMgJurN/ajKq6dkRjWqBARET6PoVGkY/I7vLClT8E7iFTEOtuR9vCB0yAHFWahfwcP2LRODZUtKjaKCIixwSFRpGPzAZnVinSRpwDRMMIbV2J7poVcNmiGD0kF1npHqzf3oKt1W2J9iIiIn2XQqPIQXB40uEuHA3XwJGIBTvQvuwJxEPtmDQ8H3lZXlTWtGFbVSuCIa3ZKCIifZtCo8jBsNnhzBgA/+jzYYvH0LV+LsKNmzEw143ignTYbDZsqW7Ftrr2xAkiIiJ9k0KjyEGye9LhGzQNjvxSxNqb0bnhTbhjbRhelo3cLJ8VGtuwfltLorWIiEjfpNAocpC4taAzvQj+MedY953oWvM2Io3bMHJgAMV5aahv6sKWyha0dYUTZ4iIiPQ9Co0ih4DN5UPayHNhz8hDpKkKXdsXYEBaNwYWBuB02FBR247N1a2J1iIiIn2PQqPIIcAKoytzIHwjTjIBsmvdm7C1VmBwSQYGFARQ1dCBlZsaEY9rzUYREembFBpFDhEGx8D4y+DwZyFSvQHhhs0YUuBCeVEGmlqD2LC1Ce1BdVGLiEjfpNAocqjY7PDkj4KzoBRwuhCsWoxceyNKrdDo9ThR19iJVVuaEo1FRET6FoVGkUPMO+Qk2H1Z6K5YgljrdgwqSsfgkizUtwSxeF1dopWIiEjfotAocoj5B8+AwwqN0cZahOu3ojQbGFGahfaOEDZsbkJze3eipYiISN+h0ChyiDnTB8BVWA6b24NQ7Sr4Q9tRWpSO7Cwfmlq7sXBdfaKliIhI36HQKHKIcUKMu3QyHIF8hKpXI9a4yazXOKIsG62dISxYVaNZ1CIi0ucoNIocBr6BU+FML0SsrQHh+s3I93djdFkOwuEoNm9vRlVjpxUcE41FRET6AIVGkcPAmVECV345bC6PFRo3wtO5xUyIyc/xo6WNXdR1iMWUGkVEpO9QaBQ5DGwOJ9zFY+HIHIBwwyZEatcgL8uDMcPyEAxFMW95FUKRaKK1iIhI6lNoFDlM3EXj4couRay9AeG6jch0BTF+SK6VKIGNW9hF3YFINJZoLSIiktoUGkUOE1dmKVy5ZbC5vIg0boOjZS3KCtNRkBdAsDuCeatq0B1WtVFERPoGhUaRw8Rmt8NVOBLO3HJEWrYjVLkEGWkuTBldYMYzzltejY6uiCbEiIhIn6DQKHIYuQtHw5U3DNG2RoQr1yHgDGHaqALz2qYtTahubEc4qmqjiIikPoVGkcPIlV4Md+4g2L1+RNpqEKlZiAF5aSgblAWb9f/mrapFa0c40VpERCR1KTSKHE42G5z5Q+AqGoFoey1CW9+Hz+PESRMGwGG3YcHKGrRqW0EREekDUjY0vvvuu7j11ltxzjnn4OKLL8Yvf/lLbN68OfHq7m3YsAG///3vcckll+Css87CV77yFbz//vs77b7B+2+//Ta+/vWv4+yzzzZtb7/9dlRXVydaAMuWLcNVV12F6dOn/8fx6U9/2rxPLBZDVVUVLrjggv9o88Mf/hDbt29PXE36O3fuMLgLxyLW2YZQ5Xo4I604YXQRPB4H6ho6sGZbk9kpRkREJJWlZGhcvHgx/va3v6GmpgZnnHEGJk6caMLfH/7wB7S1tSVa7YwB7sEHH8Trr7+O8ePH49xzz0Vra6sJcJs2bUI0MW5szpw5+Ne//oX6+noTGidMmGAC6q9//WuEwz3dhEVFRbj22mvxxS9+ccfBz8Gg2NjYiPz8fBM+u7u7sWjRIkyePNmEyWRbXjczM9NcS8SRlgt33mDYA5mIttchXLUABVk+TBxVAIfNhjnLqlDd0JloLSIikppSMjQ+//zzaGpqwumnn47rr78eN954I6ZOnWqC49y5cxOtdrZgwQIsX74cI0eONAHuk5/8JC6//HJT8XvmmWfQ1dVl2r344osmTDLYsQ2vf+KJJ+LVV1/FkiVLTBjMzc3FeeedhyuvvNIcV1xxBUaMGIH09HSccMIJyMjIMNdK4nOXXnrpjvasNgYCgcSr0t/Z7C44s0vNTOpYVzOCG2fD43LgrBMGIeB3Yf2WJqzf3oy2LlUbRUQkdaVcaGRF8L333sOgQYNMUCwpKcGwYcMwbdo0E9pYKdwddinzXAY2th8wYIA5/7jjjjOBkKGRYZHteG22Ky4uNm1PPvlkuFwu874MjXa7HV6vF36/3xysbq5fvx5Op9NUHHfF6iYro//85z/N52tubobNZku8+p/4OUOhkKlUJo9klVOOTc7MgfCWTEQ8FESocg1infUYMygbQ8uyzfI7C9fUYnttR6K1iIhI6km50NjZ2Wm6pQsKCpCdnZ14Fqa7t7CwcI/jGnkOQx3DYpLH4zGVRwa+SCSCuro6E+h4bXYxk8PhMJVDdklzrGLv8Y9JK1euNNcYMmQIxo0bZ55jKGTQZDDlOfxcDIz//ve/8eyzz5r32pO1a9fioYcewp/+9Cdz/OUvfzHVVTl2Ofw5cOcPhz0twyy/E6yYD6/LjlMnlSA73Ys1mxuxflszOoL6x4OIiKSmlAyNDHg+n8+EsiTed7vd6OjYfTUmGAyaIMegmMSKYVpamqkUMtjxXF6bVUReK4lhk++3u/GSrAiy25qvMSAmu535XgybnGzzne98B9///vdNNzrfh6GRXel7woDLsZCzZs0yx+zZs00wlWOXze6EM7MIrpKxiIc70bnudSAWweThBSgrzkCoO4qVmxqwrbY9cYaIiEhqSbnQyADHsMdwx4knSbzPg6/vDiuGlJzwQgxwvE4yfPJchj226d2O1+Xj3kEyqbKyEitWrDBd4+zSTuJ1+Bxnd3PiDbu5ef+yyy4zn2VPYy/plFNOwc9+9jPcf//95rj33nvxzW9+M/GqHKscaQXwDpqGeDSM0JYliHY2IeB14PixhcjL9mHVpkas3tKkrQVFRCQlpVxoZPWO1UF2I7PqmMT7HJPILurdycrKMuGvpaUl8QxMYORSOhy7yCDHCS4co8hrJ6uKDJasUnLiDbuod8WKIYPjmDFjTFf3vvA9WLXke+xJsrLJnzN5sPopxzaHLwvewrHWbRpine3o2v4+YpEgpo0uxKCidLS3d5tualUbRUQkFaVcaGRVcNSoUWbWMw9WADlJhEvqbNmyxVT1kkGPE0h4nwYPHmzacbwgb3kegxtD35QpU0wVkWMZGSC3bdtmxiCyDa/DULh161ZMmjTJVBCT+Pq8efPMZ+KyOslqZhLfJ/leDKy8z8/McJuTk5NoJZJgs8Oelg334CmIx6LoXPsq4qFOZKZ5MH5kPgrz07BmSxOWrK9DLPHnWkREJFWkXGgkdvFybUWuu/jOO+/gqaeewj333GMmw1x44YVmJvQ3vvEN/OQnPzGBj2bMmGGqlE888QSefPJJMxP6jjvuMCHyhhtuMGMRGQjPP/98Ez7ZLcyJK1yO584770R5eblZEJxd40nsll61ahWGDh1qgmdvDKyPPvqoeS/OyOZEmccffxz/+Mc/THg87bTTEi1FPuTwZcM/ZCZghcbujQsQ7WqBlSAxfUwRhhZnoqm5C2s3NWF7nWZSi4hIaknJ0Dhz5kx86UtfMl3LvL3ttttMlZALdefl5ZmqHiuFFRUVJqARK4033XQTRo8ejZ/+9KfmPgPf7373O1OdTI6FZOjkhBVWGz/3uc+ZsYUDBw7EL37xC9Nl3Bt3jmEVcezYseb9d8Xu77vuusssBP6xj33M7EbDbmxOjOHajyK7srvT4CkcB3sgHfFQyHRRR7tbkZXmwaihuRhQGMDGyha8v+rDHYpERERSgS2e7N9NMRxjyFnGHHvI6h+X3+FyOgx2DHJr1qwxXc6lpaU7Zkxz3GNtbS0aGhpMsORYQa7zuOvuLNzVhddub28312ZXMrute8+8JlYxOUaSQTW5RE8Sr8/3YbBlFze/Rn4efk625djJ/cXg+8ILL+AHP/iBmUDDCTZy7Ip2NqLhrdvRtewNeIcfj5zTvwNXdjkq6tvx2GvrMGvhdrNbzGc/Ng7FuWmJs0RERA495hfmIa5rzR5abqzSe/Wa3lI2NPYnCo39SzwSROemd9Hw1H/D5vYg9+Lb4Bs0DRG48PqCrXjyzQ2Ix+I4/9Qh+Lh1iIiIHC4HEhpTsnta5Fhmc7jhGTAezrwSxLu70Ln6JUSat8HltGNUWQ7GDslBc2sQS1bXoq6lZ/tLERGRo02hUeRIs9nh8GcjbeKlsHkD6NrwHrq2vo9oZwMG5KZhdHku0gMebK9pwwerahMniYiIHF0KjSJHAXeICYy6AJ5BxyEeDqNz9evorl4Jtz2GoQOzMG5YHlrbu/He0kq0dISgMSQiInK0KTSKHBU2sx914LhL4cwZiFDVSnRtnI1Iy3YMyPPjuOF58Hic2FLRgkXr6hCLKTaKiMjRpdAochT5yk6Gb+gJsHsz0LV+Fro2vQsPulFenInxw/PRGYzglXlb0BEMQ1PWRETkaFJoFDmKbDY7AhOuhHvAWMTamtC18T10Vy9DUY4PJ00YYL0OrNvYiNVbmxCOaE9qERE5ehQaRY4yV2YJfGPPgrNgCLq3LEDn6tfgjneifEAGxo0sQCQaw7OzN6G9q2chexERkaNBoVEkBQSGnAFf+fGwuTwIbpmP9pXPIjfTi3OmlprxjMtX12Ld9hYEQ6o2iojI0aHQKJICGBb9o8+Dt3w6Io1V6Fr3LtC4GkNLMjFuVM8Wlg++vAbbatsQ1aQYERE5ChQaRVKCDe6cIfANPQmugjKEq1ejY8njyPQCV505HBkZXlTUtOKFOZvNdoMiIiJHmkKjSIqwOT3wlp0A37BTEY+F0b11EUIbX8GIgVm49LRh8LgcWLCiGh+srEFDazBxloiIyJGh0CiSQpyBAvgGn2yFx+MRbalFx7IXYO+swIzjBmDymEJEIjHMWrgdyzc2oCsUSZwlIiJy+Ck0iqQSmx3u/OHwjzwT9vQchKvWWMHxCWT7bDj3xHKUD8xEVX0HZi2qwLptzYhp8UYRETlCFBpFUozdkw5PyXFWcDwd8WgInctfQrByIUaVpGHmlIEoyPFj5cYGzFlahUorQIqIiBwJCo0iKciZUYy0kefCVTgM0bYmtC14ALG2SpwyrgDHjyk04xsXrq7Be8ur0NYZSpwlIiJy+Cg0iqQgm90BV04ZAsdfDbvbh+61c9Gx9nV4Is04fUoJxg/PQ0trN95fVoWlG+rNAuAiIiKHk0KjSIpiN7W/7CR4R50MON1offcf6Fz/FkoCIZx83AAMK8vGpspWvDZvCyrUTS0iIoeZQqNICnP4spEz81a4Bw4HYkDzO39B54Z3MLncj5MnFiMzw4vVm5vwxNsbEAprtxgRETl8FBpFUpnNZgXHLORd8Au4i4cBkTBa3r0LwfVvYPqoLJx5/ECzDM+KtXV4bu7mxEkiIiKHnkKjSKqz2eFML0T2md+Fq2gEYh0taJv/AJzb38LUUbk4eVIJGpu78MZ7W7BiS6OW4RERkcNCoVGkLzDrN45A5sk3w100EpHGCnQsfRK5zXNx8oQiDCnLRk1DJx56eTWaWoMKjiIicsgpNIr0ETaHG96BkxE4/hNwFQxHuGYDwqufR2l4Cc45oRQ+vwtrNzfh0TfXo7UjBOVGERE5lBQaRfoQu8sPX/mJCEz8GFy55QhVrIRt3YsY6dmEM6eWIhqL493FFXhrUQVaO7sTZ4mIiBw8hUaRPsbhzYR/6AykjTsfjowihLYtgXvjCzhxYDOmjStCe3sIr87dgiXr69HeFU6cJSIicnAUGkX6IEdaHvzDT4d/3Hmw+zIQ2TIfga0v4rzxDgwry0J1XTtem7cVa7c1IxjSUjwiInLwFBpF+qierQbPgn/sOdYDJ6Lr3kFR/au4cGoGBuT5sXJ9Pd5euB1ba1q1Y4yIiBw0hUaRPsyVNQiBsRfBP+ZM61EcwUVP4TjnUpw6MQfZmV68t7QSsxZXoqapSxNjRETkoCg0ivRxruxyZEy6Bt7hJyIeDaPtvbtxwRg7Jo3KhcftwFsLtlvBsQJtXaHEGSIiIgdOoVHkGODKGojM6Z+DIz0LsfY2dC1/GFdOz8L4YXkIBsN4c/42vL2owsyuFhER+SgUGkWOBTYHnBlFyDj1ZuuuA8EVb8Hbug6XnlyM8cPzUdfQiXcWbsd7K6oTJ4iIiBwYhUaRYwTXcEwbegbc5ePBAYztix9EsbMW50wvw6ghOdi0vQWvz9uC1VubEmeIiIjsP4VGkWOFzQ67NwsZJ3wGdn8mwlXrEN76HkblhzBj8kAUFwSwZlMjnpu1ETVNnYmTRERE9o9Co8gxxGa3w1s8Cb5RM822g12rX4OraTWmDM/GKZNK4PG5sGxdPZ5+ZxM6uiOJs0RERPbNFrck7qeUlStXYs6cOdi0aRNcLhfGjh2LGTNmoLCwMNHiP1VVVWHevHlYvHgxQqEQBg4ciDPPPBMjRoyAzWZLtAKWLVtmrr1lyxa43W6MGzfOtMvOzk60AO666y6sW7cO4fCHO2oUFxebdpMnT048A9TU1OCVV17B2rVrwa9y+PDhOOmkk8zt/uJ7vPDCC/jBD36AuXPnIj09PfGKyEfTXbMSTa/9EqHqdWY5nsDka1BnG4RX5m3B6+9vhc/jxCWnD8NF08vgcOjfjiIi/RWzS3t7O4477jjccccdOP30003u2p2U/Nti8+bNuO+++/Daa6+huroaGzZswJNPPolHHnkEXV1diVY7a2pqwosvvmjasH1tbS3efPNN/PGPfzTBLhbrWdx49erVePDBB/H666+bNmz72GOP4aGHHkIk8mHl5ZlnnsFbb72Furo6RKNRc/AayYzN2+7ubvzzn/80bbdv347Kyko899xz5noMpCJHi6dgFHwjT4cjLRfBTR+ge8v7KApEMGNSCSaPKkBLWxCvvrcZGyq18LeIiOyflAyNL7/8MubPn29S7ze/+U18+ctfNhXGxx9/HKtWrUq02tny5ctNEPR4PPjSl76Eb3/72zjjjDNMkGT4CwaDph0rekuWLMHxxx+PW2+9FV/4whfMte+55x4T9HoXXtnmq1/9Km677TZz8HNMmDDBvMYQyc9y7733YvTo0bjlllvMZx02bBjee+89vP3226adyFFhsyNtxDlwl4xDLNhhBce5iNQux6CCAM6cWooB+emoqm3Hi3M3o6U9tNOfexERkd1JudDIah4rjGVlZTj77LNNt/QJJ5yA8847z3Qxv/HGG4mWO2PIZOWP3ccnnngiRo4ciYsuughjxowxVUpWKBkcGegGDRpkrjdq1Chz7UsuuQQdHR145513dvrLs6GhAStWrMCiRYuwceNG08bpdJrX2P390ksvmRLuFVdcYQIuu7nPP/980738/vvv71S57I3vwdDJ15MHH4scStxm0DdyJlx5ZQhVrUDnurfhCDVgcHEmzpg2yPqzbMfshRVYtrEBXd368yciInuXcqGRwW/r1q1m/GB+fr55jmExJyfHjFHk2MHdYfcwAxzDZpLP58OkSZNM8OO4QXZTs7uZ1x4wYIBpwxCYm5uL0tJSM44yGRo5vpGVx7/97W/40Y9+hNtvvx1PPfWU6dImhjyOjWQ4DQQCO8ZMMpDys7JbnWMEdoefgdVOBlgeHMfIbnORQ80/eAa8Zcdb/6U70b1tCbo2zkKGz46Txxdh5OBcRMJRPPfuRlTUtVt/plVtFBGRPUu50Nja2mqqeAxi7GpO4n2GwObm5sQzO2MVkMHN7/cnngEcDgcyMzPR2NhoKpgtLS0mPPLavFYSwyafY7ukSy+9FD/5yU/w17/+Ff/93/9tQuTdd9+N+++/3wRLXo+VyIyMjB3VR+J1+RkYfvmz7M6sWbPw3e9+F1dffbU5rrvuOvzqV79KvCpy6HDtRt+I0+EpnYxIwxZ0rnkL0dZKZKd78YmzRyDgd2P9pibMXVGNhtaeIRwiIiK7k5JjGmnXMVa7Pj4ces+wvuyyy3DOOedg4sSJppuc4xlZteSYyN4zqj8KdoezasnqIg9WLP/85z8nXhU5tDxFE+AdfALs6TkIVa9G29JH4HLaMKwkE6edWAavx4EX52zC+u3NCGtSjIiI7EHKhcasrCyzDE5bW9uOySvEyl1nZ6fp+t0djiNksOzdJcwuZFYP2c1tt9tNtTB5bV4riZVNVgXz8vISz/yngoIClJeXm/PY9czr8TlWPnuPXWTFk5/B6/Wan2V3WNlkNZKfOXn0rnyKHEqmAj/kVPhHnI14ZyuCGxega/v7VnB04MqZQ1FSlIFQdxSvzd9qgqOIiMjupFxoZKgbOnQoKioqzBhEYhisr683Yww5sWV3OJaQ4Y/rOiYx4HGCDKuFvG5RUZGZKc3xj7w+MfAlrz1+/Pidqo29sWubn4eBjyGPXdKc/MJxkAycyUoor8OgynGT7PLeE77ProfI4eIIFMA7eCpcpWMRadyOtg8eRDzShXSfCx8/fRhyMrxYsbYei9fWqZtaRER2K+VCI8PTBRdcYNZq5JqHCxcuNOstcgY0Axu7ilmB5BhATlLhpBKaPn060tLSzBI7nGG9dOlSPPzww2ZZnKuuuspU9nj+zJkzzUQbdg9zMgqX4+G6jZwMc9ppp5n352Sb559/3sya3rZtm1ksnOs4LliwANOmTTOhkSGUs7NZceRyPZzMwoDK67LSeMopp5jXRFKBze6Ap2gc0kaeBZvDhlDlKrQvfxK2eAyThufhuDEF1p9pB+YsqcKyDfWIxjQpRkREdub4H0vifspgty+DF4MfAyBnGLOyx6VtGMbY7fy73/3OdA1zeR12A3NCCie+sNLIcxgGWVHk0jo8LznDmZVGVgYZBLmuI8MeA+D1119vAiGDHs979NFHTQDlmpGcuMLq4dSpU83EFc68Zju+J7uhk+GTS/ZwaZ+zzjrLLL2zt0pjb5xUw91n+HluuummnSYAiRwqdqcHNuuIdjWb0BhtrYEjtxT+7CJkpqdhc1UrtlW3mv9OCnL8yM30Js4UEZFjGXtq77zzTlMMGzx4sMlTu5Oy2wgy/DGMcZcVBsYhQ4aYiSisCHIiCndhYfWQW/ZxhjSxm5nL67BSyC+A4ZNBkF3Xvbt/169fbwIpxyay+shrMxAyBBKvwzDJ9+ZYSoY4BkUu4s22vSuIDJNsy+olv0ou3cMFwPme+0vbCMqREgt3IrhtPppn34lw1Xp4B09B1oyvwJYzFC9/UIUXZ29CV3cEZ08vw8WnDEa63504U0REjkXMLizU7c82gikbGvsThUY5klhp7Fj3Glrf/QdirfXwT7wIGVOvRyPy8PhbmzBncSVK8gP42OnDcNK4op3+wSUiIseWAwmNGnQn0s84fFlIG3Ym0iZcBJvXj86VL6Nj1QvIc7Zi2phCDB6Yia01bZiztBJVjR+uMiAiIv2bQqNIP8TgmDHpWviGnwybzYn2JU+gc8PbGF0ETBlVgDSvE2s3N+JdKziGwtpiUEREFBpF+iebzQTHrBlfg3vgWMSD3Whb9Bjile/juMFpmDymEM1t3ZizuAIbKlt2LCklIiL9l0KjSH9lBUdnoBBZM78Cd/5QRBsq0bH0GRSE12DKyFyUFKWjsq4Dj725AS0dISs4Js4TEZF+SaFRpJ/zFIxF4KRPwZlXju7Ni9Cx7DkMD9Tg7KmliEZjWLamFnc8tcx0Uys3ioj0XwqNIoK0wTOQNvFCKziWIrhhDmIrn8HEkjAuO2sEIlZwXLyyBn95ellPxTFxjoiI9C8KjSICm8ONwJiL4R95OuzegBUcZ8Oz7imcMjqAS08fhlAoivcXV+Lh19eioaUrcZaIiPQnCo0iYnBiTGDcx+AbMZOrgCO0cTb8W57BaccV4oIZQ9DdHcG7C7fjhfc2o0ZL8YiI9DsKjSKSYIMzqxRpYy+Ed8jJiHY0ILT2DaTXvIZzppXi9BMGoTsYxTvzt+NNKzxWKziKiPQrCo0isoPN7oCnYBTSxl0IT+kkRBoqEFz6NLIbZuHCk8owbUIROrvCeNsKjlzDsaZJwVFEpL9QaBSRndicXniLJyIw4WNwF41AuGYj2hc+iMLOBTj/hAGYOKoALe1BvDV/G+Yur0Z9SzBxpoiIHMsUGkXkP9g96fCWTUNgylVwFQxFpHIdWt77J8riq3Hu8fkYOywPDU1dePODrZi3ogrN7d2JM0VE5Fil0Cgiu+XwZsE/5BSkn3AdnLmDEK5ci9a5/8QI9yacNTkPo4bkoLq+A6+/vxXvr6xGe1c4caaIiByLFBpFZI/sngz4h85ExozPwZk1AOGKtWh57x8Y59+Cs6bkY0R5DrZXt+GF2Zswf00NurVPtYjIMUuhUUT2yu7yI23YGcg86xY4MgoRqliN1nn/xMTAVpx7QjGGDMrCtqo2PPHaOizf1IBoTMt/i4gcixQaRWSfbHYXAsPOsoLjV+HMHIDQ1lVonfsPTPSvwyUzhqC0JAPbqttw99MrsK22TftUi4gcgxQaRWQ/2ZA2eCYyT/sCXAWDEa5ch7YP7sMILMJlpw1FQX4A1fXt+OMjS1Db3ImYKo4iIscUhUYR2W82pwf+ITOQfuKnrOA4zEyOCS99AsNi83HlGcOQlubB1soW/OWJpahr6UJMJUcRkWOGQqOIHBC7O2AFx1MRmHJlT3CsWgOseQ4jsACXW8HR6XRg1foGPPjaWrP4d1zBUUTkmKDQKCIHzCzHM9QKjpM+3rOOY9VqODe+jImZW3DxjCEmKH6wrBovzd2i7QZFRI4RCo0i8pE4/Lmm4pg24SI4cwYhUrkS7vXP4dShEZwxbRCikShmL6zA7KWVqG3uSpwlIiJ9lUKjiHxkjrQ8+IfOQNq482D3BhDZvADeTc/hguOzMGV0ATo7w2a7QS7+3dimXWNERPoyhUYROSjOQCH8w2bCP/oMxG0xBJe/gKz62bhgegFGD8kx2w2+NX87Fq2tRZt2jRER6bMUGkXkoLkySxEYdym8g6ciHu5G65y/oxzrce60QgwblG1mVL/xwTYs21CPYEi7xoiI9EUKjSJy8Gx2uHLKkTn9JrgKyhBrb0Xzu3diQlY9zphSiLLiDKzZ1IhX3tuCtduaEInGEieKiEhfodAoIoeEze6EO28Iss78Nhz+TESqN6F14X04sTSI044fiKL8NCxfX4en3lqPbbXtWsNRRKSPUWgUkUPG5vDAO2C82W7Q7k1HcPW76Fz1Ak4bYcNZJ5QhI92LZevq8e8XV6GhJZg4S0RE+gKFRhE5pGwONwIjzkXa5Itg92Wic/GzCK9/A6eO9OCCUwbD63Nh1YYG3PXMcrR2hhJniYhIqlNoFJFDzAab04eMSZ+Ed8gU66ENHUuegnP7bJwyOgsXnjQYNrsNK9bV4+/PrEBHMAz1VIuIpD6FRhE5LJyBAmQc/ym4S8Yi2tGIzhXPwV8/D6dMKMR5Jw82k2EWrqzBfa+sQWtnt4KjiEiKU2gUkcPDZoO7cBQCx11h3Y5AuH4Tula/hMyO5Zh5XDHOPKEMwe4IZi/cjuff24ymtqCCo4hIClNoFJHDhjOqfWUnIG3sBXBllSC0fTmCK55BTvdanD21FKdMKkFHewhvzNuKd5ZUoNEKjiIikpoUGkXksLK70+AbNgO+UWfB7klHcOMHCC59DLndK3HRKWWYPKYQLa1BvDp3q9lusEnbDYqIpCRb3JK4n1Kqqqqwfv16NDQ0wG63o7i4GCNGjEBGRkaixX9qaWnBpk2bsG3bNkQiEWRnZ2PUqFEoLCyEzWZLtAK2b9+OjRs3mms7nU5zbbZLS0szr3d2dmLDhg2orq5Ge3u7eX9ea/DgwSgpKTGP+bWx3WuvvYZgcOfqyKBBgzB+/HgEAoHEM3sXDofxwgsv4Ac/+AHmzp2L9PT0xCsix45Q4yZ0rHwBnctfQbSzEZ5B45A25Xpsw1A88PJ6rNnchIEDMqwgORjHjy5Eht+dOFNERA4X5hlmneOOOw533HEHTj/9dLhcrsSrO0vJ0NjU1ISHHnrIBLLa2loT+IYOHYrLL78c55577m5/mK6uLrz99tt44oknsGbNGkSjURP0zj77bHz60582AY7Xqaurw8MPP2yunQykQ4YMwbXXXoszzzzTPF63bh3uvvturFixAq2trea8nJwcnHTSSbjyyitRWlpqrs9weuKJJ5qQx/dyOBzms/A9P/e5z2HgwIHm8b4oNEp/EW6tQMeql9Gx+GlE22rhKixH1qlfxfL2AXjsrW3YuK0Vw8uyzdI8k0cWwO9xJs4UEZHD4UBCY0p2T7/xxht48MEHUVZWhl/+8pf4zne+g+7ubvzud79DRUVFotXOGPR4TmVlJW699Vb85je/wcSJE/GLX/wC8+fPRyjUsx7cc889h6eeegrDhg3Dr371K3zrW98yX9b//u//mrBKvGVF88YbbzRfIK81evRoPP3003jsscdMm96+/e1vm5D7zDPPmIPvP2DAgMSrIpLkyihB+oRLkX7ip+AI5CFUtQENL/0YYzybcP4J+SgrDmDN5ka8MncLlm9s0D7VIiIpJCVDI4NXeXm5qeqxunfhhRfimmuuMeHuxRdfTLTa2bvvvou2tjZceumluPjiizFt2jRT7Rs+fDjuu+8+dHR0IBaLmQoju4+vvvpqnHDCCTj//PPxmc98xoRRhlW24bnf+9738PGPf9x0WzN9f+xjH8PIkSOxYMGCxDt+iF3cbrcbHo/HVDT9fv+OquOeMNnveoj0Bw5fDgKjz0fWOd+CIz0H0eZGNL74Y0zxrcOZk7IxsDCA5Wt7thtcvL4O3eEo9F+HiMjRl3KhkV21a9euNV3AyWodu4cLCgpMN/Ly5cvNc7vavHmzCW3sxk5ieGP38aJFi0ylkWMUOVaSoZHXJ5ZgOeaR4xUXL168x/DG89klvbtxij/84Q/N+5x22mn4+c9/brrH94Y/I8dDMuQmD3avi/QXdpcf/rITkf/x/4MjNx+xrk40v3o7pnkW4fQJARQWBLByfQP+/uQyPPLmenR2RxJniojI0ZJyobG5udl0RbN72Ov1Jp6Fuc+JKhyHuDvJsYe9xwOyApibm2vGMbKC2NjYaMIf2yQnvRCrhHw/ttsddlfPnj0bW7ZswVlnnWWe43vxGl/72tfw61//2nRjs3r5zjvv4Pbbb99juKVnn33WjM8cN26cOSZNmoRbbrkl8apI/8DtBt35I1Hw8d/DXTYG8VgUnXPvxfHxd3DFCT6MGZaLxuYgXpm9Cb9+YCHWbm9JnCkiIkdDyoVGhjtW+zghhcEsifd58PXdSVYIe59DvA4rhLS3a/du1xurgBwrydDIiTLJ0Mj2nPzCrm12cbPKyDGQ7NJm8GVX956cfPLJuO2223DPPfeY4x//+IcJnyL9i/XftBUcXTmDkXvmD+AdfrL1H3IU8dUvYnjLS7hycgznnVwO/he/Ym0d7nhkEZ6ds6ln28GeC4iIyBGUcqGR3b/sMuYYxOTkFeL9ZAVyd9gVzUDYu5uXIZChLysrywRDVhh5bXYN914mh8vz8Dm2643n/vvf/8Zbb71lxj9yXGXvNqxkstucn4lVR95n5dDn85nu8j3Jz8/H5MmTceqpp5rjlFNOwZgxYxKvivQvXADclTccmdNvgn/s2dZj6x91m99F/tbHMTNvNa46rRjFhenYXNmK597egH+9sMq634JwZPf/gBQRkcMj5UIjAxfXQqypqdnRFc0wyC5izozuPWaxN45/ZPjrPbuaIZPL5nAyC8MiQx2XzuHYRi7lQwyWvDbP40SXZAWyd2DkLOyrrrrKzObeF74nxyzubSIMq5R8naEzeexr4ozIscxms8OTPxLpx10F/4QLYPf4Edu2AOnrn8KEjudw0fB6nHJcIRqag5izuAIPvLwG762oQnO7FgIXETlSUi40MlDNmDHDjB9klzAX4V62bJkZK8hqIytzDGVPPvkkXn75ZTOWkTgukMFw1qxZWLp0qan0MfDx3AsuuMCEUVYDp0yZgq1bt5rXuBA4X+eMaoY2ztRmaOQs7QceeMCsncjJN1wbsqioyFQ/k5VMBlROnOF7cXINx0MuWbLEdEuzjSqHIgfI+m/PnT8C6eMuQfrxn4Bn4DhEWyvg3PAKRrS+jNPS3sMFY8MIeO1YvKYWz72zEa++vxWbq1sRjanDWkTkcHP8jyVxP2VwrCB3g+Hai5yJPG/ePLOQ9vTp03HZZZeZ6uBPf/pTs7PL8ccfj8zMTNP1zLGEK1euNOcwwHF5HFYgv/CFL5hrMpCyHcPiqlWrzCxtXpsB84wzzjDL6jA8chLLz372MxNc8/LyzHXff/9905ZVSu72wuDKgPj666+b8Lhw4ULMmTPHVCwZYC+66CJT1dwfHGvJn5XXuummm8wscJH+yuHLhiu3DM6sYtjcPsTDXYjWrEZa2zoMzrPB6QgBLh8214SwtboDLZ0hhKNx63k7/F4n7IneAhER2T8syt15550mu3A1mT31fqZkaGRQ4zI4rPgxLBLH/bGLmK8lQxZ3XOEaiqwg8mBA5Exohj0GPXZlJ9dqZGAktuGMal6bFcdkZfO6667bMfOaoZKVQ4ZRfpEMismDXcmc9MIuc3Zhc7tBfsb6+npTzeRrDJ+sUO4vhUaRndmcHriySuEuHAl7em7PBJnudsQqlqLMU4ncdP4PWhwNncDa7Z3YVNWGdis8suLI3gLuJGO3KzyKiOyP/Q2NKbv3dH/CqqW2ERTZg3gMkY4GdKx7GV0rXke4aRtina0IZw/C+8GxWNZaippgBtojHmSk+3H82AGYPqYQRXlpyMnwwuW0Q/FRRGT3GANZSOuz2wiKiOxgs8MZyEfmcdci79JfIG3i+XDlDoK7rRqnhF7Gpwpew3ml6zAo0IhwWwNen7MOt987Hw+/sRZrtjahsTWIUITLbSWuJyIiH4lCo4j0DSY8FiJnxreQc8lP4Bt9Kuy+dPibN+GE5qfwhfT78akhczAsuxqRYDvefm8jfvzXOfj7cyuwcnMj2rtCiER71moVEZEDp9AoIn2ON38Ucs/5EXIu/gn8E8+GIz0Lrs5mDG18D5+x34fvlT+Ik4qWwR7rwLyF2/Hzf87Drx5ciDcWbUddS1DBUUTkI1BoFJG+x2aH3emFr2SyqTzmX/57ZJ39FXgGjYLbFkZ2RwUuiL6G7+bdjY/lvYxsbMTqdRW49+kV+Mldc/G7Rxdj1rJKtHZ8uIGAiIjsnUKjiPRZNofHLNHjzh+OwNhLkHv2D5F3yU8RmHAW0tMcyEMjjscy3JD2PK7NfBITnG+iu3EV5i/divueXYlf/Ot9/OP5lZi/thad3RGNexQR2QvNnk4Bmj0tcohY/3MWi3Qh0lqFaEslghVLENwyF+GaTeiOxNAc9VtHAE3xLGyL5WF9qARBzxBkZ2QjP8eHYWXZGF2eg7LCDAS8Lq43LiJyTDuQ2dMKjSlAoVHkMLD+py3SVoVw4yaEajdaxxqE69Yg0lSF7lAYTbE01IQz0RLLQXWMIbII0fShyMkuQH52AEX5aRhYkI7SggAKsv1wO9UxIyLHHoXGPkahUeTwinW3I9yyDZHGzVaI3IZww1aEmzZaAbIC0c4ONMR9qAjnoSGaj3orQDYgG2H/APizipGXk4ei3DQUWMeAPD8G5KQhw+/W4uEickxQaOxjFBpFjpxYmN3XFQjVsfK4AZGGCoStx+zOjnW2oTHqQlUkCzVWgGyK5qElloEOZyZcWUXIzi9BSX4eCq0AmZftQ26G1ywg7uMONOrLFpE+SKGxj1FoFDk64rEIIu016K5ehlDVCkTqtyPaXodoZyNiXa2IhLqt4OjGtmg2KiNFqI8MQJsVImP+TGQXFqGgYABKCnJRwOpjwIOMNDcy/C6zjSG3MxQRSXUKjX2MQqNIaoh0NiBUuwqhmpUI16xHpLkasWAbYt1tiHd3IhoOoTHmwsZIPrZGilEbKUV7LAuu9EzkFhZgYHEhygfkoDg3gLREePR7XfC47AqRIpKSFBr7GIVGkRRk9ryuR3ftSnRXLUG4ahUidRWIhYOIR7rNEYtFURPxYEOkAJsig1BtHR2xPLj8fpQMzMeQ0gKMHJQIkT4n3C6HOZx2hsjE+4iIHEUKjX2MQqNI6otbITLa1Yxg5UJ0V8xH99bFiDZUIx62AqQVHhkyw9b/mtbHvFgVLsKa8GBsDw1HdywL/vQ0DC3LwdiheRhXnofi/DR4XU4zmYbzaVSFFJGjRaGxj1FoFOkjrP+5ZHhE3AqJMSsktteiu3opgts+QGj7UkQaKhGPRBCDHbG4zdxWRX1YHSnG+ugQVEeHIoQcZGelYVh5DsYNycXY8mwMzAsoOIrIUaHQ2McoNIr0TawwxqPsqg4iHgoi0l7X051dye7sFYjWV5nqYyjutG5d1q3LCo5p2BQrxDbbEDTZymFz5lsh0oehg7IxclAWhg/MRH6mHy6tCykiR4BCYx+j0ChybIhHw4iFOhITZ9oQ7WhEsGZlYmLNGkRbG9EdjqEr7rYOLzpjPjTG07AlXoBa52B0OgfB5c5BZmYaigsDKC9Kx+ABGRiQm4Y07+7/R1xE5GAoNPYxCo0ix6K4FSIjiHY19izh09mESEsNQo0bEa5fi0j9ZkSsEBmM2tAa86ItHkBXLM26bwVJRwba3QXo9hQj7i2GLy0XeTnpKCngLjUBlOQGkJmmBcZF5OApNPYxCo0i/UMs1GkFyHpE22sQbaszITLctMU6rADZuA3xjlYrRAKtcbcVHtPQHgugwzo6bdbhyUIkrRBIK4LTXwSfPxvZmX7kZHqRax15mT5kBzxmoXERkf2l0NjHKDSK9EPW//TGwp2ItFYi3LK9Z0eatiYzLpILjnOR8VhHA6JdHSZINrECGUtHSyzTCpIZCNsDsKWlwxbIhjMtB660XHitw289Tg/4kRVwW4fHbHmYbh1Opx2qS4rIrhQa+xiFRhEhrv0Yaa+2QmQFolaYjLawImkFx84m6+i5jXU1Ix7sQigGNMfdaI6lWYEyA63W0YUswJMFT0YmPOmZ8GVkW0HSurUOtzcDXq8ffp/bLDie5nMhYN2yMulQN7dIv6XQ2McoNIrInnBiTaStynRjR5q3ItK03QqUVnjs7kCck25C7abbO84j3I1QNG7CZEM0DY3xDLN3drt12Dx58KbnIC0j3ToCCKRnID0jA/60DLg9aXC4vPC43dbhMIeXh8sJp0MLkYscyxQa+xiFRhE5EJxgE2m3gmTLditIbkOElcnmKkTbGhELWmGSSwBx5xqzHFDIHIhGEYzb0BxzozGWhgYrSDZFM9Fuy0bcWwBfoADpWZnW//6kITPTj0wrWGamB+D1+eFweqyDXdxOsxRQ8nA7HbBbiVKhUqTvUmjsYxQaReRQYEjk1oecWGMm15ixkla4bK4DOtqs160Ayd1rYhHrNtJza4VJLlQeQxxtMQfq4z7URwNWsMy0QmUWgs48OPxF8GcWIis7G9lZfuRk+JGdmYYc6/B73XA4XLDZucON3bpvN7O6HbxvdrxRqBRJZQqNfYxCo4gcbtwz23Rzt7Ayya7u7Vaw3I5QUyVirY2wW/87ZP3tYbXkrjc9t8nHvI1aNztCZSzdCpaZVrDMQocj14RKb+ZAZGbnIy87HfnZfuRl+ZDPGd3pPrPftvXXzY5db3jLe+Zh4r6IHB0KjX2MQqOIHBHxmPUXBLdB5MEw2POYVcdYsAWR1gozCYczunmEmq3b5lqgowW2cIjx0Tps5ojxdBP37D3pz2ZHEA60xN1oBCfnpKMpnolWZCPqzoMrfQB8mQOQnZWL3Cw/8hkqM3qWC+IMb46dFJEjT6Gxj1FoFJGjLc79tKM93dbxWDjRdc37UTMmMhZsRaS9NrEcEGd11yDcVotQaz3iHU2wh7p5EUTjNkStIGmOuB0xK0jGbY6e7muHE0GbE+02L1ptaWhDAO1IR9CRibgnBw5fHryBAgQyc5GVkYbsdA+yA17kZPQsHeTmskGJaqWIHBoKjX2MQqOIpDTrrwkTJjkmMjm5JnEbM5NsrNe4cHlXE6IddYiY5YGso70e4fZGRKxQaetqhz0SscJkHBErTIatMBmOOxCxbqNwAnbrLym720y4sTvcVpB0WYcXXXY/gvYAQtYRcQQAdwbs3gy4fVnwpGWZdSkz0jxmLcp0nxsBnwt+r9NM0hGRfVNo7GMUGkWkr+upSAato8uMn+T9WKjnPg9bNIx4txUsg80mXMYYMK0j0tVshcwW634bEOywgqUVQq2/lsJxG0JWoAxZwTIcd1oh04WYrSdY2hgszYxu63B5EHW6EHF6EbF7zG3UCpsxu3U4fIDLb+VRPxxu6/AE4PGmw+Ozbj0+eL1ueN1OeF2JJYas+07Hh2MvRfoDhcY+RqFRRPqDuBUcY2GuLcl1JXlrHWErSDJcWgfC3T1jJ6020e42xLpbraPNCpptiHS3I2KFypgVPBHustp1w8Ggav0NFoYN3Va47AmZDJgORK2AGbe5YaVFK2R6rJDJoOmF0+WFy23dWo+t/2OOuMO6dVjtrbYxuxVOrWDK27h1a843h8vc8joO65Zh1Zk4XDvuu8xSRByf2fvQ4umSyhQa+xiFRhGRHmZijhUKzaLlVlDkbdS6jXKRcysw9oTLIGyREOyRcE9F0wqe5hwekS6rbRAR6zBhNNIN6wGsB7BHI7DHo9YRN5N6InGbCZxhdpezommFTdNdzsC5IzRyOSHrL1Dr1m6Co8t0ofccDIpcv9I6rFuHFUDtDo7ftFvtrVseNod1HbsVYHvGd8asW97nYTXqubXaWCfuuLXxObvT3NoSz/Oadr5m3fKafJ4Hn+NSR+Z9red5y8cfvuawPkryfs9C7VwSiTGWt1wSSfo3hcY+RqFRROTAmS5xU6lsR9wEzA5Ewx0IW+GSVclIN6uZXWahc5sVGhk0nbFIT1e5dWs1tm6tgxVQHtbrEevgbZSB1DzP9Sx71ra0noDNum+zgm3ysGKfCWDm81h/m1otrcNmhU/rsMIog2nUCn89gZGBlGcwNDJMMjQyFHJMZ88tJwyZ4MjQyFsHw2MyJCZDKdfE7HnNYd2aoGjdN8GQtyYkWq8l7vPWBEe+F/OoFR6ZHs3SR1Zw7JkRb31+c7vzfbbrCQn8Ka37JmR++Jo5kq8ln9uP254hADs/b6IsH/P+juc//Kx8bAK1ue3VjuHa3O+57Xm+9/0PH+96a/0f83385+t8KXFr3s9622OUQmMfo9AoInKEWH/lcUJPzOyaw0pkz2001ImwFTBDwfae0NnN51i97Lbad5tKJcOmOeIROKwQabcCpNMKjnZWR63DSqDWYQXZGB/zNooYj2jM3JrHnKVuXudSRx+e9+H51sH1jKyYaT354a11mPhmnktEOvMcJW8ZcHru7y7j8FSGWivu7nT/w8MKs7y1EpJpY8KtdcuDadM87mnDoNZTJU3cJtr3pKye5z88Es/1et1UY63HDGnJNiawmUBrBeJkO762I9Tx+Z42H94yCLMKy8cM2AyBDNYftjWPe93/sBKbeGxC9ocHg7S5jvlM1udIDi+w7vf+xpO/ieTjnV9PfHeJn3mn78a05eOeg5+t52e2bvnZ+Bw/R+KWn5PBPz2QZj3Xc/1DSaGxj1FoFBHpu8zM8ghnlCdmlVu3UVYtQ0EriPLoNvcjVgCNRLpNJXPnambPwcpnT/WzZ7cezkoHa5ZW2DSVTXObrHSym93UL/kXOSOK6Xa32+LWc9Zf7tbjZMDk/+f/MUE18Vf+jvvWwVvTYZ+4b27N4552Pe2tB73bJF/n/0ncT/yfnV5PPsfzdtzf8Rolnt/pcc/tjnhkzjV3ErcmvCTuUa+2O93n90A9bf/z+d1jay5m33ObDNS7Bmwe9kTAZiW5Jzzz6HnMSrLTep0H73O4g9N6YyuM8dY64mbogxV0HR4ruPaMnTVjb81Qh95DIDzwpmVixJSZVphz8yMeUvx99fnQ2NXVZX6I7u5uk6x9Pp8JU3v6QYjhi+d0dnaaL8HtdiMjIwNerzfRogev3dbWhlDI+pdj4tpsx31Vk2LWvwB5rY6ODkSj1r8mrdfS0tIQCAR2Svp8z5aWFvM5+Z58L7bZ9T33RqFRREQOJRP2THWzp3udt7FY2ARV/p3W0w0fse7zOd5ah3mNa3P2POYWk3zdVEmt+zFewzzPNj1V1J73sR73rrBG+Zx1mOei1m3PfXNrxSlza55nMku+/uFh6nW8b9pa99nWeo5RzLzO53hYj5NtbVZYZmjuedwTonvaWPmM51qvJ+/zlsG6J/wk0qGReMY6rwcDcs9tz0s9EbnnyV6vmRu+Zt1PPmf+Px/wjnkycZt8zjyxy/2eW+ujmlsy4d/iyChE/mcesbJFmvXk3iLvgePP26dDIwPb888/j7///e+YN28ePB4Pzj//fHzlK1/BuHHjEq12xh9j6dKl+Ne//oUnn3zShL2JEyfiW9/6Fs455xwznoP4H8tTTz2Ff/zjH5g/fz78fr+59q233oqhQ4eaNtTY2Ii//OUveOSRR1BRUWFeu/766/HpT3/ahMKkZcuW4ec//znefvtt87lnzJiBz33uczjjjDNMSXl/KDSKiIgcQVZm6B2seyqvHErwYXhmSDaB2jpMYLaejzBkh3nfCt0M4QzVbGs9NsHcasODleYYK8+JyrKpQiduwcXzzZCHnsqyLR6G3XreZl3HHgvBYX0Oc1jX463TCsceKzQOvPlx0119qPX50PjWW2/hxz/+MQYPHoxLLrkEDQ0NeOKJJ8wPcffddyM7OzvR8kObNm3C7bffjtWrV+O6667DgAED8Mwzz+Cll17Cs88+i9GjR5vzn376afz5z3/GwIEDcdlll6G6utoEQ1YbecuASt/5zncwZ84cXHTRRZg8eTLefPNNvPvuu+bzMGAmv+Rzzz0X+fn5uOaaa0xl84EHHjDh8Rvf+AZOPfVUc619UWgUERE5WhIxaMdNr1hk7vY87rnb67Vky15tjESbHdfZ6fXdPUfW/cRzu9YRTbXRZofd82HB6lA6kNC4f6WwI4yVQAaxK664Ameffba5veqqq0zAYwjcHQa6uro6XHDBBbjyyivND33zzTejoKDABLlklzXP57WvvvpqUw38+Mc/biqIa9asMdVCttmyZYsJrgyEvBbD3yc+8Qnzhb722mumCsmu7eeee858pi9+8Yvmfdn+8ssvN93Xb7zxRuKTiYiISOpiTLMOdvtah5mAkjwSk2Z6JqRYh5mRnjxccJglmHovw2Qdrp5F57kmqDm4Lqjblzj8PYeHR1qvIwCnl0c6HLsc3AHpcAXGA5VyoTESiZhu5kGDBmHYsGFmHGFmZqbpHi4uLsaiRYsSLXe2bt060wU9duxY057dziUlJZg6daqpGHLMYX19valI8tqjRo0ybXJycjBixAgTLhcsWGCqhMuXLzfjHsePH2/asgrJNuwaZzBdu3atqQ6+99575nOxIsoxkfysPIfXXL9+vbnG7vBn5GvsQk8ewWAw8aqIiIhI6km50MgJKq2traYLuvfYQQYyPldVVZV4Zmes/nEMYW5ubuIZmO7i0tJSbN++3QQ1dnMzoPE6DJbEqiDDI89jO6qsrDQTWdgmWaLlY4ZBvgc/A8Pl1q1bUVRUtKNLm3htBkj+HJwgszsMsT/84Q9xww03mOMzn/kMfv/73ydeFREREUk9KRca2e3LySoMfMnJK8T7PFgx3B1W/hgAe8+A5mNeJ1nF47UZ9hgEe7djEORzyXa85ePeE1l4Lb4/n+N12I3Ndrx+73a8Lg/+DGy3OwyorIiyCpo8hg8fnnhVREREJPWkXGhkRY/hjIGM1cEk3mcwZFfx7rDaxyDXO6gxILIbmFVKhj6emwyevFYSAx6fYzti5TEZXpN4bZ7D53gdXo/t+Tn5Pklsw3MZHPe07A67xjlZ5+tf/7o5vvrVr+Liiy9OvCoiIiKSelIuNLJLOi8vz3Ql9+7eZXcvxySyu3l3eA4DXW1tbeKZnsrixo0bzZhDhji2Ydcxr8PubGLg46whnldeXm7CYFlZmQmR/AzJyibbcDwjX+fMa4bPIUOGmC5tBlOGSmIbfu6srCzzXrvDc1mhZNBNHnuaqSQiIiKSClIuNDJQTZkyxYwX5IQUBjeOMeR6iAx606ZNM+GQk2W4vE6yS5lL6hAnyrA92/J1Pp45c6YJZgxyI0eOxLZt28zzbMPQt3jxYhNKeW2GwjFjxpjxi5wYw1nVzc3N5v14MLRy8gtDHmdVcw1HPs/QyTDKtR/Znp/nQBb4FhEREUlljv+xJO6nDFYbuYQOgyMnrnzwwQdmORzOZOYyOqzqcU3DVatWmQW8OWGFVT3OoF64cKEJgAyGXCCclb///u//RmFhoQmkPBjsNm/ebJbh4X0uo8MuY16bFUmuk1hTU2PWTGxqajJh8PXXXzfncJ3Gk046yYxjZMVx9uzZWLlypak2MmC++uqr5vNwqR7O3t4frHbys/M9brrpJhNwRURERI4E9szeeeedZm1q9s4yK+1OylUa6YQTTsCXv/xlc5+zih9++GET6r73ve+ZaiFxjCMrjsluYQa4G2+80ZzL9v/3f/9nZmH/+te/NpNMGAbpzDPPxGc/+1lzPl/jgt4TJkzAj370I9NlnMT359qLDK8/+9nPTCBkEPzkJz9pXmdFkuGW78OlgLh7zZ/+9CczyYXX5+QWERERkWNFSu4I099w8ox2hBEREZEjjTGwT+8IIyIiIiKpRaFRRERERPZJoVFERERE9kmhUURERET2SaFRRERERPZJs6dTQHL29Pe//33MmjXLLOUjIiIiciQkNzjhWo17mz2t0JgCuFXhc889Z/ag/s53vrPH/bVFREREDiXGQO6u97//+7+45557cNZZZ+20bnVvCo0pgKGRO8v89Kc/Nauwc+HwQ4m/Yu5YM2fOHLObDUPpoX4POXBcYJ7rcnLLyezsbLPLkBxd3DCA24oWFRVhwIAB+p2kAP5OuLkC/xLb204VcuRwF7MtW7aYtf247a5+J0cffyfczpg76U2ePHnHhib7izmB/63ddtttZnOSPe1Mp9CYAvgr4BY+3MHmcAQ6/kHYuHGj+YO0ZMkSlJWV6T/yo4y/c3YHTJ8+3ewkxH3M99QdIEcO/xK8+uqrcfnll+O6667Tlp4pgNu9fvvb3za7bXEIj3pijj5Wpf74xz9i2bJlZjHotLS0xCtytDBDPP300+b3wi2UD3STEP6dxOISt2TmP9D2lEMUGvsBhsYNGzaYrRi5xzX/ta4KytHF/+wYULiF5d/+9jczhuRA/2Uohx73uuf+8gyO3JZ0T100cuTwL7JbbrkFeXl5ZrtXr9ebeEWOFobG3/72t6Yqf/fdd8Pv9ydekaOFofGJJ57Ab37zG7zxxhuHbW6EkoOIiIiI7JNCo4iIiIjsk+N/LIn7cgzjIFl2h5533nlm/Ikmwhxd/P7ZRd3c3IxTTjnFdL1pyMDRx98JxxZPnDgRpaWl+p2kAP5OOGxgyJAhGDlypMZjpwgOG8jPz8ekSZP0O0kR7KLmOOyTTz75sA130pjGfoJrQW7bts38RagJF6mBQX779u3mf3g5TktB/ujj76S6utqMB+JAcv1Ojj7+FVVfX2+CCVcZ0O/k6OPvpKWlxaz8UVBQoN9JCkj+44q/l8O58oNCo4iIiIjsk/peRERERGSfFBpFREREZJ8UGkVERERknzSmsR/gJJiKigozEYb3uRArd4XhjF1Nijm8uJsFt3biwftcLJozQLm7RW+cfMHfEXeJ4ay3wsL/396ZxkZVvWH8FVw/KK7sIhHEgkVZKiINUkBEiSAisqbIEmRRXAjEqBCJGP2AGkMiwaW4gSBocQEEpOxQBbFAWsBaENGAiEAICYQEvc7v/XPqSCKTf3qnkvL8kpsOd+7MkPvec85z3uWcWl60pIWM4+XQoUO2b98+r1qn0pDn//LLL/cF72kXIaGfbhGbUahENTU2IeGf67Tgd7yQvL93716/39gEWOGB5z/0UdiDYhj6MOxBkj8FZI0aNZI9Kgls9OOPP/qOPA0bNrQrr7yyvPhi9+7dbh8KyShWwi4Uk2n1gfhg21nuM9s3cp8DPP/0Sw0aNHB7MM5w3YEDB8rtwfvs9BKHPSQaqzg8aDR0dh1ZtWqVL5NQo0YNu//++61Xr14uHtWw00dpaalv7VRQUGBlZWU+AE6dOtW6dOly6gqzw4cP28yZM+3LL7/0jpklE9j7c9CgQf5XlYnxsWTJEps3b57vjIRAZwCks33ooYesQ4cO5VvU0eF+8sknbjtEJjZh957Ro0f7EiMiPnbs2GEfffSRrVy50is/ed4Z6FgerE+fPla/fn1vI59//rl9/PHHPrmiHbHnMTvFtGjRQku+pBl2gJk2bZqPIyx9NG7cOOvUqZMv48b++ZynTbH7GGJ/5MiRdscdd/hYI+KBie7LL7/s284yYQoOHxwQDz/8sOXm5rpg/Pbbb91W7NeOPWg/w4YNc3vRriqK1EIVZ//+/d4hczz55JM2Z84cu+eee3zrJwZQGr1IH8zJ8Boi0Pv373/q7D9BnMyePdtFCfu4jhkzxrd9fPHFF2WfmMEbUrt2bXv22Wftww8/tBdeeMG9W8OHD3fBTieLzebPn+/iEq/wG2+84YMkky/2PsZbL+IDj9Ttt99ukydPdlFIW+jatau98sorLiTxLLKXLucR+NOnT7eJEye6eKRPw9Ml30f64N5u3LjRli1b5pEPPFbh/NatW12gIOoRMx988IFPvOi72Jc62SMmKg4TKryGYZLFQV/Vu3dvtwcTMPaepm3wF3sgFGlLiMlY7JH4IVGFKSwsjHJycqLEYBclHhg/d/LkySgxg4+GDBkSbdiwwc+J9MF958jPz48yMjKipUuXnnrnf+917949SswUo6KiIj+XmNVHM2fOjDIzM6MFCxb4OREPwRYckBCAUXFxcZTojKNE5xslRLofAwcOjAYPHhxt3rzZrzt69Ki/n5jVR19//XWUEJp+XsRDsk2A161atYomTJgQlZSURCNGjIj69u0bJQY+fz8hFKPEpDdKCJRo+fLl0fHjx/28iBfswLOfnZ0dzZgxw8eM3NzcqKCgwPupvLy8qGXLlm6LYL/S0lLv51577bXowIEDfk5UnIQw9/aQlZUV7d69+9TZvzlx4kQ0Z86cqFmzZj5uBHuUlZV5W3rppZeiX3/91c9VBHkaqzCJh8Zd2nhQ2rZtWx7mJJSDVwsvFp5IkV647+Henw62IZ+xcePGVrduXT9HjgqvOZiti/gItgj2oI3gqQJCabQNPIp4JEndIDcLyLHjNaEgZuzyNsZLsk3w/OJZPHjwoN1www0esibfkTBbkyZN/Bq8WbQZvPgJYe+LTIv4oW3glWe8IH2DPMYAbYTcORbBb926dbn98IQRot6zZ4/bUMRHQrP5Pe/WrZu1adPGBgwY4Ck0eOPJ1961a5e3jdtuu63cHuSf4qHH+0g7qigSjVUYOl86XB40OtdkaPx0tAp//rfQqWIHijEoxAAaO2EgOmNy60T6YNJE+JltAxEkCHY6X9oO9z/ZJuQ10m7IcURsivhAnCxevNjatWvnoWrSAMjTQqiQMkBOHWFsxDtgD2xFoQw25BoRL4wNS5cutW+++cZz4urVq/eP/Hdshlihr6L/ClA0Rjvh8+TYiXjgeaefom0899xznl8dcuQJV+MgYrzHHsm5i2EnJeoZ4rCHRGMVhoEtdKanJ4rTsHlfg99/C4VKiHrsk9wh85qD90V6wBOSl5dn27Zt83y6sP93yGsMNgggVLCTbBI/DIiIdoQiRUkUG5GvRfEY4uTf7EE/FtqQiA886RTxUeCCOMnIyPBJUzJhfMEm/za+yC7xgRjMyclx7yI5vz169PD8d3K0CwsLbfv27W6P0E8lw7/jGu8lGqswzELwlNBwT/co0hHz/ukdgahc8GbRoJkB4t0K0GnjgeR9ET+EoGfNmmUbNmywESNGWMeOHV24AG0Gm3D/k8PQdMi0IwoB6JhFfCAyCGlSMMagSIELYmT58uXuQeF92kdyG2EApAKeNpIsJkXFYXwoKSlxMZKfn2+PPvqoDR061Fd4WL9+vU2ZMsULMBAytBE8wcnQThhbQoWvqDg841RNIxJJpcGby8oBpHDQDgg9E5rGHngVkwnjfejjKoJaWhWGjpawAQ8Ys5AAIpJBk8ExOUdFVD6kDWAjchsJiwLihGpEQtMsbyHiBe8V4RwqQu+9914XKoQ9gxAkDIcQIewZcn4RK9gDG+F1oW2J+ODeM6ghyPH44mlkXUzWpKOfog/j/pMaAAyM/JuBkkEzjsFQ/A3PN7lwhKXJ5WWcIMSJSEQMkipQp04dFzAIElZ7CJByQ542AkdL7qQfxgsmULQdbIKAp48L0GdhD/KxteSOOCN0xHS8JDGTL0QYjuTldevWWXFxsSf6c4j0QYNmFsgAR/4PoTQ8J+HfdL6tWrXypRLIHSJZGdsww6fjZp1GER90pnPnzvX7m5WV5SEevIoMfAgRJlS0maZNm3r4esWKFW4T7EN+F4MgSf8SjfHBgPbdd9+5ICQni7aBN4ukfoQH4gWhjoBnvVPswZqAFMsg7hGYipjEC0Kd53z8+PG+3FQ4KL5gfUzWz7zvvvu8GAnvFt5IFsLHRrzGS08bklMiPhCDa9as8X6JMYR7TQoH4wVi8KabbnJ70EfRx7EQPtdQKIPnl/QP2lNFqT4pwanXogrC7J0BjoW9eYCYESIgcXWzwDeCUgNg+qBxr1271u85opCQDyKFho9QoaoNTyNV0gySnEfQ8JrFcXv27KnQW4ywJuZbb73l4RvWYKRj3bJlix8MfnS+CBBsRFvBQ89giFcSG7HgNEJTNokP1voj1IkQpH1QDU1YmpQNxAnJ/3iC8TpiA7zyVLBjE3K7aCMKg8ZL8PwiypMPxhEEIQVLiEfGDia/9HF4tLAPIWzCpohKPF8iHrjPrL1IlJBJbFFRka+diWOCtZfbt2/vnmDazerVqz1ahT2Y7GIr7EEKSEWRaKzi8BARbmP2QUfLIMjAyG4jLMMTqhFFeiBUwwD41VdfuceRcDRCkmUTmM3jZSS8hnBEnNDI8Xh17tzZBg4c6B21iI9Nmza5+KBdYAO87+Fglo5XC9HI8i7YBK8WooZZPnmPLALOZ0V8IDbol3j2EY0htEloNDs728Nu9GF4rZj4IvBpS1RWU6SRnFog0guChehIZmamC0LaCNEqPFmIeCa7eH4paCK1hsmXiAdSZPAq0kb4S1ugXfTr18/HC9oBbYUljxCO5GtjL2xFW8LTGIc9tI2gEEIIIYRIiWIsQgghhBAiJRKNQgghhBAiJRKNQgghhBAiJRKNQgghhBAiJRKNQgghhBAiJRKNQgghhBAiJRKNQgghhBAiJRKNQghxjsKuRCz6P3v2bF88WAghzoREoxBCnKOwNRm7FU2ZMsV3vRFCiDMh0SiEEEIIIVKibQSFEKKSOX78uO9BTniYLvjCCy/0vZXZ1/fEiRO+/zJ7k//555++ry/wHtdwbYDPHz582L8P+Az7ASfvKc/3swc6+zWzr3m1atX8u7iOz7777rs2d+5cW7Rokf82YWp+4+qrr/bv43ohhACJRiGEqEQQZevWrbP333/f1q5d62Hhxo0b25AhQ+yBBx6wkpISGzVqlLVv395F3rJly+zkyZOWk5NjTzzxhDVv3ty/548//rAFCxbY22+/bVu3brXzzjvPsrKyLDc317p162YXXHCBi85Dhw7Zq6++akuWLLF9+/a5YOzatasNHjzY6tat66LxnXfesUmTJtm0adNs165dVq9ePRs/frx16dLFrrjiCv89IYTQFFIIISoRhOKMGTNc0L355pv26aefWvfu3W3MmDG2YsUKO3bsmF+Xn59vNWrU8GueeeYZF3MTJ050AclcH3H51FNP2TXXXGPTp0+3119/3YUiwm/NmjX+HXgzH3vsMZs3b54NHTrUvvjiC8vLy7POnTv7tQHE5KxZs+z555+3hQsXWsOGDf37Nm/efOoKIYSQaBRCiEoDwYcwPP/88+3xxx+3du3a2c0332x9+/Z17+Bnn31mR44c8Wvvuusu6927t7Vt29Z69eplgwYNsp07d9rKlStdNOKpvPbaa10MduzY0YXggAEDPOyM8CPU/P3337s38umnn7YHH3zQf6tNmzbuaWzatKn/DtSuXdseeeQRy87OtszMTPdCIjj379/vHk0hhACJRiGEqCTILcSrR6h49OjRLgzvvPNOF42rVq2y7du3u9iDG2+80a677jq76KKLXAji/cPzWFpaWu5pbNKkidWpU8cuvvhiP66//nrPRfzpp5/cY8m1hMM7dOhgV111lXsX+b5LLrnkH55GchdvueUWf4/ziNHq1au7gFVVtRAiINEohBCVBEIOEYYgxCuI95CDfEZCw2PHjnVxB4jAUPRCviJijiOIOP4i/hB3Aa7nGoQi4W88m3z20ksvPWNBC9+RXDzDd3A9n+d7hBACJBqFEKKSuOyyy7wQBWFImJiQcTj69Onjnkfeh99++608VI14Y01Fjpo1a/q5WrVq2d69e8srp4FqaK6heAXRSUELoq+srCzl4t3/JipVKymECEg0CiFEJUF4mepnBFxBQYGLPl4jDrdt2+bh5BCeLiwstPXr19vPP//sBSnkQhI+pkIa7yECEzFIWJtcx/D6999/t1tvvdVFI1XZ/N57773nO7+Qo/jLL794riOvhRDi/6H6JNZZEEIIkXbw5hEGRiQWFxe72GO5nE2bNtmWLVs83IwwZJcW/uIl5Dqqoffs2WOdOnWyHj16eDgZjyM5kD/88IOLQEThjh07rFGjRu65pKoa4Ui+Ikv8ID4RpkVFRS4Y8Ubi1USQcp7iF34TEJ7z58+3li1bluc6CiGERKMQQlQiiL369eu7gKRgJXgbKWihUhqhuHjxYrv77ru9IAUPIiFi1m3s16+fh7iBvxTHsGg33kPC1C1atLCePXt6BTRQpd2sWTMXfSwYzm/hyWzQoIFlZGR4riOLh/N+8jI8/H8Qjq1bt/bimnBeCHFuo8W9hRDiLGLjxo02cuRIX+Cbhbrl5RNCnC0op1EIIYQQQqREolEIIc4iwvI3CgkLIc42FJ4WQoizCHIa2XMa8UhOohBCnC1INAohhBBCiJQoPC2EEEIIIVJg9hfRND28YGlEiAAAAABJRU5ErkJggg==;clipPath=inset(5.11% 0.33% 9.55% 14.67%);" vertex="1" parent="1">
          <mxGeometry x="297.5" y="90" width="95" height="72" as="geometry" />
        </mxCell>
        <mxCell id="f9QI1axeGucn3QY7SPFN-31" value="Improved from 0.02 to 0.00024 during 50 epochs" style="text;html=1;strokeColor=none;fillColor=none;align=center;verticalAlign=middle;whiteSpace=wrap;rounded=0;fontSize=6;" vertex="1" parent="1">
          <mxGeometry x="295" y="65" width="95" height="25" as="geometry" />
        </mxCell>
        <mxCell id="f9QI1axeGucn3QY7SPFN-32" value="" style="shape=image;verticalLabelPosition=bottom;labelBackgroundColor=default;verticalAlign=top;imageAspect=0;image=data:image/png,iVBORw0KGgoAAAANSUhEUgAAAigAAAGeCAYAAAC+dvpwAAAAAXNSR0IArs4c6QAAAARnQU1BAACxjwv8YQUAAAAJcEhZcwAADsMAAA7DAcdvqGQAAF0zSURBVHhe7d0HnFxneS7w55TpfWZ71WpXvVpdsmVZluUuGxsXbJoBA0kgXEog4AAJJSSXm99NKLn4AgESY2yDu2VZxZZk1VUvK2l3tb33Or2dueccjbgQLCPJq63P33zM6DTJI1vz+CvvJ6RUICIiIhpHxPQrERER0bjBgEJERETjjj7Eo43yRKNR+P1+WCyW9CkiIiKi0REKheByuWA0GiEIwoWAEolEsHfvXnzrW9+CJEnpS4mIiIhGRzKZxPe+9z2sXLkSJpPpQkDRek82b96Mz33uc3jiiSdgNpvTlxMRERFdW1pHidZJ8qtf/Qq33HLLhV4ULaDE43Fs2bIFX/va1/SeFIfDkb6FiIiI6NpRY4g+xWTFihV48sknsX79ehgMhj8OKFrvSXl5OQMKERERjQotoAQCASxevBg/+clPfh9QuIqHiIiIxh0GFCIiIhp3rjigaF0xiqKwjXDTPlciIiK64LLnoGhfoNoSoEQiob/SyBJFEbIs68u8tfdERERTgZYv3mkOymUFFO1mbYZtf38/wuFw+iiNNG15t8fj0QvVaEVqiIiIJrv3FFCGhoYwMDCgf2lq5y5WeaORE4vF9BCo9U5pIcXtdqfPEBERTV5XHVC0+RFdXV3QrtG+NG0224UStAwoI0b7zdGaVuZ3cHBQH+LJzc3lUA8REU16lwoof/YbUPsveq1pF2tDEBfnSFwMKWzvvWmfp/a5aqV9td4pzvMhIqKp7s8GlIv/dX8xlNC1o33GF3tNtM+ciIhoqrqiMQQGFCIiIhoNnOTwHnV3d+ubGx0/fpzDMkRERCNkSgUUbbfEHTt24PDhw/r7kaBNbK2oqNAnEmsTiomIiOi9G7WAok2pUJSxnVehLeP93ve+h6eeekpfOv1uLncOSGFhIf7+7/8eN998sz6RmIiIiN67UQkoWjCJxBIIhONQxmjyp1ZnpK2tTV/K1Nvbi3PnzuH06dP6sYaGBjQ3N+vDNVVVVaiurtbDTDQa1Y9rx86ePasf13pKtGddpL3v7OzUr78Yaurq6vTntre34/z58/rP1djYiGAwqJ8nIiKid/dn66BoX8Dal7K2/NXn8+nl2C+6nKyRUv8KRxNo7Q3qX+DTchwwyZJ6ZgQm3KqPuNynaEFD6+l4+umn9SW9VqtVXzHz4Q9/WA8fWn2XRYsW4dVXX9WXU//Lv/wLvF4v/vEf/xEnT57E8PCwXkDtrrvuwsMPP4x58+bp9586dQof+tCH8KlPfUpv2lLhdevWYfr06XrdGG04qaOjAwsXLsSnP/1p3H777ZecbKwtL9YK4mnDRlodFO0zJyIimsy0bHBVdVAuRZtvEYkn/myLxpNIJBUk1aa9H/JHEVIDyztde6Utpj7vYq/Fn5Ofn4+/+7u/w/Lly/HII49g165deg+K9l4LJ/v370drayt+8IMf6CGmtLRUL+t/44034uc//zm2bt2Kz3zmM/p9v/zlL/WCau/mtdde04vbaQHnf//v/62Hkn/6p3/6s0NLREREdJU9KNqQTX37EL7zs/L0VX9eMj3/RFS/qEdqtXJRjgNff3wVTAatR+bP04ZwHnroIcyfP18PK9nZ2aisrNR7VrTP4Ctf+YoeYLQeFi1QaKtytON6yV31x9pn8f3vf18frvnEJz6BtWvXXrIHRdtP5wtf+AKuv/56/b4XX3wR//zP/6yHnTVr1qR/RX+MPShERDTVjHgPitYrMuiPXnbzB2N6Gwq88/mraf5gXB9CulxayLjYLhZF095r8vLyUFZWpoeCiwFFm4Oi9ZY89thjuPXWW7Fx40b9x01NTfo8lndTXFz8+5Ch9dBow0Xac3t6etJXEBER0aVcVQ+KnnbCcZyt70tf9e60UZh4MonuwQs7IWc6LTAa3ntlWqtZxrzpPkjp6qt/jhYOLvagfP3rX9d7ULQJrN/85jf11Tjf+c53YLfb9Wu1Sa8//elP9Tkp2jCPFmAsFgu2b9+u93JooUWbi3KpHpQVK1bgL/7iL/ShIs0bb7yBr371q/jGN76BBx54QD/237EHhYiIppoR7UHRgoXdYsDyuTmX1+ZlY4X6uqAsE3NLfFgwIwNL52S/87VX0OZNz7jscHLRhSGqP61XcrFH5SJt/okWKoqKivC+970PDz74IO6++259LosW6LQP9N1on9F7DWBERERT1VUP8WhfvpJ4eU1Wv/gNsgSrSYYkCUgkU1C/vt/x2ittV0ILINpQi7YEWBui0RKb1mtxqbChzUHRhnm0oRktlBw6dEjvcdF6lYiIiOjaueqAcqW0zgSLUdKDiVYTZSzqoWjLh7Wuo/7+fr08/b/+67/ixIkT7xg4tOGce+65R69x8otf/AJPPvmkvoJHCyzanBIiIiK6dkYvoKh/WUyyHlRiiQvLjkc7omgBZdOmTXotEm2ZsFZ4Tesl0VbVXHfddX9U40ULIY8++qgeUrSy+Nr8FW3uijbv5I477tAnwWq0Wid33nknZs6c+fsholtuuUUfS7s4n0WjzWHR7tPmuhAREdG7e0+F2q5UUlHQ2OlHXA0nuV4rHBaj+qXOeRoXcZIsERFNNSM6SfZqaRNajQZJr4USiyu/r41CRERE9IdELblcbKNBn4ciQK8qq/WoEBEREf13olbvQ2vastrRYDZd6EG5UAKfPShERET0p8TZs2djwYIF+j4zo8Fk0CbKakuNFb2N1e7GRERENH6Jzz77LH7961/jb/7mb9KHrq0LNVFEfd3xhdU8DChERET0x0Rtie3q1auh9aSMBm3+idkgQVIzSixxYadjIiIioj8kasuGtaZVSx0tJqM2D0XUV/IwoBAREdF/N6rLjC8yaUuNxQvzULSaKKO1goiIiIgmhjEJKNocFFkSkFL/0gJKgvVQiIiI6A+MSUDRlhmbZG0eioB4Qg0oaptIampqsGfPHn3TQSIiIhp5YxJQNNowj1ZZVgsoWptItm3bhu9///s4duxY+ggRERGNpDELKFrJe60H5ffzUNLHiYiIiMYwoGjzUEQoSkrvQbnW9VC0ibjarsRDQ0N/Mik3Go0iGAzqr9rGiVplXW23Y60NDw/rGyZyIi8REdHoGbOAos1DMWrzUNSQoveiJJLpM9dGX1+fvkvi0qVL9R2D/9DTTz+NT3/60/jZz36G7du348EHH8S8efNQWlqKjRs34qWXXtKDDREREY2Oqw8oShJKPPSemowIJCWCeDSEaDj4jte8W0slIlrXSPoX9O5cLhduvPFGdHV14dChQwiFQvpx7bWiokIvv6+FEqvVivvvvx9PPfUUXnzxRWzYsAHf/va3sW/fvlHbr4iIiGiqE1IqbVhjy5YteOKJJ1BeXg6Hw5E+DX14Q/tSNxqN8Pl8elE3pBTEemrR9/q30lddnaSS+n2hNm24R5uTciVkbzEy7vomBNmcPnJp2hCN9vfx6KOPYvHixfjqV7+KrKws/e/3X//1X/VKuhfL/Wt/z1pQ0UJLf38/PvzhD+Pmm2/Ghz70IRQXF+PHP/4xtm7dik996lO455579HtGQiKR0Ht3tNCUm5urf+ZERESTmfb9HAgE9O9mbaRj/fr1MBgMV9eDoj0sFQ8j1ln1nlqyuxpCX43etPfvdM27tURvg/prubwVQFrYsNvtuPvuu7Fz5049CGh/H0eOHIEoipgzZw4sFgu6u7vxm9/8Bl/4whfw2GOP4fOf/zwqKytRX1+vz00hIiKia+8qe1BSSAb7EKp+K33V1QtGEwhFEnplWbtZ1pcfXy7R4oZ11gYIkvprugxaD8X58+dx++23670mq1atwje/+U09mGhzUEwmE5577jk9tCxcuBA2m03fAkCbo7Jo0SJ88Ytf1BMee1CIiIhGxqV6UK4uoGi0XhQlceH9ezAciqHfr80lATwOE1w2U/rMZRAECOLlhZOLtJU89957LxYsWKBPmNV6S2666SY9bBw4cEAPH9OnT8dnP/tZfd6Koih4+OGHUVhYiC996Uu47rrrGFCIiIhGyKUCytVPktXCgaQmnPfYjEYTDGpLCjLiivSO11yyXWE40Whf+nfccYdeZE2bBGs2mzFr1iw9lGlBTQtk2nuPx6Nfr02o1QKaFh6IiIhodIzZMuOLtH15DJKoT5iNJZJ6XZRrSZuLoi0d7u3txd69e1FUVKQvJ9bk5+ejrKwMR48e1Vfx/Pa3v9V7SrQ5Kr/vOSIiIqJrbswDilbu3iBL0NbvJJIXNg+8lrSAMnfuXH1YZ/78+VizZo0eUjTaSp5HHnlEX6mjBRMtwGjXaUNC2pwUbZKtJi8vT1+SrA15ERER0ci7+jkoI0ibh9I3FEFKTSkZTjOc1qk594JzUIiIaKoZ+TkoI0gb4jEYRCjJFCLRa1tRloiIiMa/cRFQtCJtWtn7pJqioomknqaIiIho6honAUXQJ8tqLuxuzIBCREQ0lY1OQNFqpiRiUKJ+/f1/p01c1Yd51KCireKJxrmkl4iIaCq77ICiDbtc1dCLeo8SDyM+3IpEoBOpZFQ7eOHcH5DUcKIN8yjq9eEpPA+Fw1tERESXEVC0GiBaD0cymdTbFdPWD6stlYzpOxAnI0NIKX/6HFn9ebQy91oZlGgsMSW/qC9+xtrnrX3uREREU9Wf/RbU9qLR9qjRliJrm+VppeK15bCX39Qv3ZSIlGTT65zEgoOIR8NIqM/7w+u00CKKKTXIJNSAEtfbH56f7E37XLXPV1vWrX3e2udOREQ0Vf3ZOigarS7H4OCg/uWp1ea48loo2u7HUcQDXerbBGRrBkSTXf3Z//hLOBJLom84or5LIcNpgck4db6ktZCi/T5on61WZt9qtabPEBERTV7aiMlVbRZ4kRZStAdEo9GrGn7RekgS/k5E209CEEQYcxdCdmT/0X46wUgcDR3D6B0MI9trxYwCt74EeSrQhnW08Kd99gwnREQ0VbzngKLRHqLNkdB2+L1SWkCJD7Wgb8vXkRzuhmP5h2GbcztkW2b6CqB3KIwdR1vw1qFmzJjmxl/fvwhWsyF9dnLT5pxowzpaUCEiIpoqLhVQrqh7Qvvy1IYgtP/Sv9JmMltgz54BW8F8GJQU4jXbIQw1wmiQfn+N02FFQZYL/kACVQ1D+twVg+FPnzUZm/a5MpwQERFdMMrjJwIc1z0C0eZDvL0O0bYzSIb60+cAq0lGUZZdX3IcCsTR3he65psHEhER0fgz6hM8TL5SmKcvhmh1IFS7C9GOivQZ9RcjCPqQTn6eU5tWi+qWAX3JMREREU0toz8DVRBhm38/ZGce4l2Nei9KItiTPqkGGKOM0gKP/v588yCicW4eSERENNWMyRIZU8YMGIsXQrTYEGk6hGjrsfQZwGySMLPQBW2hUH2rGlBiDChERERTzZgEFEE2wTbrFhi8JYj3NCHachqJQLd+zmyQUJbngigKGBgMo28ogniC81CIiIimkjEJKBpj1hyYCuZDMJoRbTuNSOtR/bgkifA6zcjwWaEkU2jq8iMU5TwUIiKiqWTMAoposMJcsloNKjOQ6G9CpOkoEqFefesebenx9EIPJFFAffuQXsCNiIiIpo4xCygaU848mPIXAJIRsY4qRFou9KJo1WNnTVMDivra0D6MUJg9KERERFPJmAYU0WiHqeg6GPNmIznQgkjtXn23Y1kSMKfYo7929gThD8aQ1LY5JiIioilhTAOKxpSzAObCpVqZWsQ6ziPcclgf2pmW7YDVYkAkHEdnf5DzUIiIiKaQMQ8oWi+KMW8+jAXzkRjuQOjc60AiCpNB0gu2GQyiPlF2OBhL30FEREST3ZgHFI0pZz6s028EknG9BL7Wi6JNli0rcMNklNDc7cdQMHrhYiIiIpr0xkVAEQ0WGHJmwViyBMlgH4ZP/EY/PrPQo/ektHUG9HkoRERENDWMi4CibSJo9JXBNmMjkEoi0VGPcPtxzMizwWyUMDwcQf9gBBFWlSUiIpoSxklAUX8hRhuMmaUw5JZBiYURbT0Ch1lAhs8GWRbR3hfAgD+SvpqIiIgms3ETULRNBEWrB4bs2fpcFK26rJhKoijXCYtJRltPEH0MKERERFPC+AkoKtHkhDFzNlLJJBKdtUglopie54DNYkB7bxADQ5woS0RENBWI0WgUWovHx76cvD7M4y2BIEtQAoOID3dgerYNNrMB/QNhDAxHEE9y40AiIqLJTvzpT3+Kn//859i2bVv60NgRJAMkmxeSKwMpRUG0+yyynCJcThOSajDpGQhhiKt5iIiIJj3xjTfe0MPJiRMn0ofGlmAw60uONbGOChgRQ3aGXa8q29UfQrcaUoiIiGhyE3/3u9/hmWeewZe//OX0obElGCwwZs8FUinEOquhxCMozLbDaTOiayCsBpRw+koiIiKarESbzQatmc3m9KGxpRVtM2bPU5OKgGRvK5RIAMXZVj2g9A6E1BbWsgsRERFNYuNqFY9GkE0XJsqaTEglEogPNqDAK8NlMyEQiKF/MMyNA4mIiCa5cRdQ1IiihhQjDLml6q9OQrS7ChaE4fNaYLUa0DsU1ou2ERER0eQ1DgOKGlEkA4x5CyGoASWuBpRULIDcTDvcTjP6hiJ6TRQiIiKavMZnQBENMOctVl9lJLobkIoEkZdhhddp0gNKRy9X8hAREU1m47YHxZQ9Xx/qUYLDSPi7keeW4XOa4Q9E0dsfQizOgm1EREST1bgMKNq+PJLVB8mdqf0AsYFGuAwReF0WSJKIgaEwugfZi0JERDRZjc+AotLmnxhyygCDCfG+GoixIWR4LHA5TBgMxNDc7U9fSURERJPNuA0oWs+JIXseBNmMeG8DlPAgsrxWZKohZSgQRUsXV/IQERFNVuM3oAiAKWc+RIMZykAnlKAaUFxGZKkBxR+Kob07gKTCim1EREST0bjuQTF5SyGa7VBiMSSGO+GzxJHptiIeT6JvIIRhNagQERHR5DOOA4oaUQwWSL48CEaTPlHWmBiAz22BXasqG4qjsWM4fSURERFNJuM6oGiMWTMgmuxIDDQhGeiBx2VGdoYVgUgc9QwoREREk9L4DyjZc9SA4lADSiuUQB8y1ICSm2FHMBxHEwMKERHRpDT+A0rmhYCiBIaQ9PfDawXyfTZEIgl0dgUQjSfTVxIREdFkMe4DimTxQHJ6IUgy4sPtMCcH9KXGJpOMQIj1UIiIiCajcR9QtP14ZF8hRIsDiaE2INABt8OELJ8VoWgCZxv701cSERHRZDHuA4pG9k1XA4obyeF2JPwd8LrMKC1wIxSO42R1N2IJ7stDREQ0mUyIgGL0lakBxYOkvxfJoR5kOAyYU+yBIIpoah1CbdsQi7YRERFNIhMioBjcBZBsXiAe00OKGUFMy3OhKM+JYCiO3SdaEU9wsiwREdFkMSECimh0QHZlQjBZkQh0ITHUjAy3GSvmZyORTOFIRSf6hiPsRSEiIpokJkRA0cieAoh2H5KBbsQHW+CymbBoegacdhMGB8M4UdOLSCyRvpqIiIgmsgkUUIoh2TL1arJa0TZJ/ZV7XRYsW5CDlPrX28dbMRyMIcVOFCIioglvwgQUg2caZHuWXrBNGexGKpmA02bETYvz9VByvr4PLV1+xFi4jYiIaMKbOD0o1kxIDh8EWUYi1I/4YBOMsoj8TDtmz8iAJArYd6YDff5I+g4iIiKaqCZMQIEoQnJmQVRDSlINKLH+Ov2w1Sxjw4oiGGQJJ891o6c/xMmyREREE9zECSgqyZWrhpQcKFoPSm+Dfswgi1g2IxM+rxXBUAxnGvr1FT1EREQ0cU2ogGJwFUB25qkBZRjJ/hakUgpEQYDbbsLSuVkwG2Ucr+pGZ1+Qk2WJiIgmsAkVUGRHjhpQcpFS4kj6+5AM9enHBVHA2kX5cNqNaO30o6F9GP5wTD9HREREE8+ECiiiwaaGlAyIZjuS4WHE+i7MQxHUVpLjREmBW39/rqEP7b1B/RwRERFNPBMqoEAQINozILlzoUTUgNJTnT5xYS7K8nnZcDtNON80gKYO9TzL3xMREU1IEyugqGRHFmRPIZSoH4memvTRCxaXZSI3w4ZhfxR1LYPoGQynzxAREdFEMuECimTLgsFVhFQsjERfK1KJ/z/XxOMwYfZ0HzxOM6pbBlCjhpQUZ8sSERFNOBOvB8XqUwNKPgRBgBL06wXb/tDS2VnIzbShtcOv96KEotyfh4iIaKKZcAEFogTR7oboyUIyOoxg3a70iQtKc50oUpvRKOureaqaB9JniIiIaKKYeAFFJTmyYcydDyU4iED5c+h989sXlhynFL1nZUFZBopyHGhUA8q5+n4O8xAREU0wEzKgaBsHOhY9AMvsG5CKDCN8Zid6X38C4bYTSCUimFPsRXGuA5FYAo1tQ2js9KfvJCIioolgQgYUUTbDlD0XrlWfgGPNR5FKJRBtrsDgzn+D/+yrsCiDKCt0I8dnQ2tPAKdqe9N3EhER0UQwIQOKRjRYYMyaDfvC98F90+cge/MQ766F/8hvETj+NEosnSjNt6N/MIyq+j4MBqLpO4mIiGi8m7ABRSOIMgzOfNjn3Q3XmsdhLlsNJdCL0JmtsNa9iKLUOTjMcdS3DmHboWacaeyHPxTjPj1ERETj3IQOKDqtuqzRCuvMW+Fc9ihs82+HIBmhNB5AUf92LLKcRSzQju3ljXh5Vy1eebsOO4+16GGlfziCRFJJP4iIiIjGi4kfUNIEQYS5YBkcyz8E++J7IXuKkB1vworkHiwzHUVOpAKdtcfx+s7DeHrrGby4qwZby5twoKIDlc0D6BkKI55gWCEiIhoPJk1AucjgKoBjySNwrHgEpsKFKLAlcKf1MB7ybsdG9z4sNh9HVvAU+qoP460338ZvXtuP3+44jTcPN+HE+W59Um00zj18iIiIxtKkCyga0WiDffZdcK39C1jm3AyzKwc+WcF1UhM+4DiIv3A9j494XsBG+1ZMi+3BUO1B7NzxNn752916WDnX0K9PqlU4WYWIiGhMTMqAohMEmHMWwrv+S/C9/3/Cue7jsMxbC0NmASSzE5lyEmssHXjEfhifcz6Pv3T9CmvwOzRXvIUfPnMYL+2tR99wRN8RmTmFiIhodE3egJKmLUc2ZcyCc8HDyLz1u8j76O+Q87H/hPvOL8N63e0wZBdCNBrhE2NYa2rEvdYDsIZP4rWdtfjqvx/AvtPtesE3IiIiGj2i3++H1sLhcPrQJCUI2rpk9e9YgsGZB8eMW+Fd+0VkP/Qz5Hz0v+C+9Qsw5s9CkdyHB52HkG9vQ39/EP/xYgX+5dnjOF3XqwYVzk0hIiIaDeLatWuxfv16fO1rX0sfmgIECYJshmhyQLJ6YfCWwD73bjiWPARzVj4KxW484tyFdQtkxOMJnKnqwZPPn8IzO6pR3zGEpMIxHyIiomtJ/PrXv44nnngCDz30UPrQ1COIEiSLG9aSG/SQYnI5kZtswU3JV/Hx23NRnO9A72AEbx9twX9uPoeth5rQMzjJe5yIiIjGkHjvvfdi06ZNWLFiRfrQ1CVZfbCWroP9ugchyxK8gxWYF96Kh2/w4c4bpsFmMaCqoR9b9tZjhxpSuhlSiIiIrgnRYDBAa7Ispw9NYYIAyZ4N2+zbYVu4CUgmgLqdKI0cwIYFNtx/8wwsmpmF4WAMe0+0Yf+pdoSinEBLREQ00ib9Kp4rpQ33yM5cOBY/CMusdUhFwgicfgWugSO4fqYZd984HQtmZOp1UvacaMWx6m4onJNCREQ0ohhQ3oG2CaHsLoRz9cdhKloEZagfgVMvI9F+FHNyZdy0tADTC9xo7wli68FG1LYPpe8kIiKikcCAcglaSNHqpzhWPwZDdhkSXfUInH4V8Y6TmFdoxYblhfA6zahvHsSre+vR74+woBsREdEIYUB5N4IAa9Fq2Je/H7KvELHG42pIeR3SUC0WlXmwcVWxeg1w7Ewnth9pQSgaZ0ghIiIaAQwol8Ex+x5YF94GyZ2NSM3bCJx6EY5kF1bOy8bapYWIxpJ4YUc1zjT0c6NBIiKiEcCAcjkEAa7FH4Z1zs0QLA6EKt+C/8jTyLJEcdfqaZgx3Yu4GlKefKECLd0BJJLsRiEiInovGFAukyAb4VjyQdjmblTfywjX7FVDyi+R4xLx0TvmwOW2YGgojKe2VqK1J8ChHiIioveAAeUKyFYf7IveD+vsW6DEgghX70Ho5NOYlm3DxzbNg8kkobquDzuONKOjL5i+i4iIiK4UA8qVEEQY3MWwzd8Ey4x1SPp7EK7cgXjNa1g6MxN33FACWRJw4HgbjlR26St7iIiI6MoxoFwhQTLAmDVbDSl3wVS8FIm+VoROvgKx6xBuWZaHhbOzEIklsPtIC07X9CLMSrNERERXjAHlKogGC8x5C2FbeI9eIyXeVQv/4afhTTTj9hX5KNGKuPUG8PbxVlQ2DXD3YyIioivEgHKVRJMTlqJlsC9+HyRXJqINx+A/9hxmuv24aUk2cjNsqG4cwIHT7WhTwwoRERFdPgaU90CyePXdj22LNkG0OhA+ux3hc5uxsjiFFfMyYTXLqKjpwdHKLn3Yh4iIiC4PA8p7JNl8cCx4AJY5N0EwmBE48QLQtAerZ5gwd7oXA0MRnKzqRn37cPoOIiIi+nMYUN4zAZLFDe/az8M0bRGQEuA/8mtkDB/HohIT8nMcqGsbwq7jrQhF2ItCRER0ORhQRoIgQDQ74N34dRhzZkAJhzB85CnMNVZjyQy3XmW2qq4PR6q7WcCNiIjoMjCgjBgBsj0Lng1/A0NWGRL9nUhVvoSZxkosmJWJ9p4AdpQ3wh+Jp68nIiKiS2FAGVECjBkz4bz+4zBmz0Sioxb5/uNYnDUAu92E1k4/Xttfn76WiIiILoUBZYRphdwsRSthnX8rJHcuUh2nUJqqwg0LszHsj+LgiTbUdwxBYW0UIiKiS2JAuQZEow3WspthypuHVGQYzkAN5np6UFTgQndfCC/trkcknkxfTURERP8dA8o1IjvzYCpeBtlbBPTVIjd4EusWZ2uLfHCisgvHzncjEmNIISIieicMKNeIIEowFyyFqWARlKgf5v5zmOPqwfyyDASCMWw70IiewRDL4BMREb0DBpRryODKh7lwid6Lkhxogb17PzYszYXDYURlXR8On+uCPxRLX01EREQXMaBcS4IIY94CmEtWIRULQmw/iZmOXqxYkAtBPb3zaAsaOoYR43wUIiKiP8KAco0ZHHkwFy6F7CtEcqgTqdrNuGd1AbJ8VnR0+lF+pgPdg2EWcCMiIvoDDCjXmiDAmDUT1lkbkIpHkKg7hEyxC+tXFMBuM2LfiXZUNw1wM0EiIqI/wIAyCmR7NsyFyyBnFiIZHkLgxH/hzuW5KMhxIBpNYO+pdtS1D7EXhYiIKI0BZZQYfNNgX3gfUrEIouf2QQo0Y9PaImR5LKio7sbpmh4MBaPpq4mIiKY2BpRRIpndMBdcB0P+DCiJKPxHf4WF+QbMm5UJi9mAnUdasftEG8Ic6iEiImJAGTWCCNmZD8eiBwBFQaTmCITBGty2NAuzp3v15cY7jzRj1/FWxBNK+iYiIqKpiQFlFGkl8M1Fy2AsmgslFkbgzKvIt0Zw55ppmFPiQVdfCLuOtmDP6Xbu1UNERFMaA8poEiVI9izYF78fomxEtOEokj2VmJ1nxMYVxSgrcKGl3a/3pByq6kKKs2aJiGiKYkAZZaJshmXaDTDkzUIqGkGo5i3IoS4smpGJm5cXoTDHgbrmQWw/2Iizjf3pu4iIiKYWBpTRps1FsXpgW7QJosWJaOMxRDvPwCpGsGR2FtYvL0Sm24Kq+n68vr8BjZ1+KOxJISKiKYYBZSwIEqylG2DILkMqFkO4fj9iffXw2I1YMTcH61cUwWox4PjZLmzeX4+ufm4qSEREUwsDyhiRTA5Y590GyZmJaNNRRJoOI+Hvgs8u4vqFebhpeSFkWcTOQ81482gL+oYjDClERDRlMKCMIVvZLTBmlSKVSCJQ8SqGjz+DaFclMswR3LosF6uX5EMSBbz0Vg0OVLRjMBDlxFkiIpoSGFDGkGi0wrpwEwxZZUgOdMN/8Gn0vvRlDOz/EZzxZjxy0zTMn5Wh73z8mzcqcayqG4Fw/MLNREREkxgDyhizTlsL3x1fh+P6RyF785D09yN4/HX0/u4LiO/5ezy+OoHSIieUZApPqyHl8LkuhKKsNktERJMbA8oYE0QJBm8J3MseQ8a9/xOumz8LQ850pEJDiNUeRvLNf8SHrf+JxZ4qxMNDeOr1c/jh705ib0U7hoKx9FOIiIgmFwaUcUAQZYhmF4yZM+CYfw98G5+Ae+OXYCyYDQR74Ryowh3YgYftLyAnVo7Kqjo8vfkcfvTbE3jtQCM6+0PpJxEREU0ODCjjiBZUJKsXxuy5sM25De61n4Xntq/APG0pskxhzJEbcZflINaqTQ414HR1N17fU4efv1yB53bVoLZ9iCXyiYhoUmBAGYe0YR/J4oE5dzFsc++Ea9XH4LrxM3CVLsU0ewQrDBW4w30Yq7NaACWGE1Xd2H6gEc9srcKzb57HqbpeBCNxcMEPERFNVAwo45kgXNhgMH8J7IveB+eKD8M6byO8DgvmidW4yXoIt+bW4cZ5VtjMBpyo7MaWfQ14aVcN3jioDf0EGVKIiGhCYkCZIPQ9fIpXw7HkA2pY2QSjOw++UC2WJ9/GnbnncdsC4KZlBcj2WXGurh+v7anHETWwDAaj6ScQERFNHGIikYDWkslk+hCNZ0ZfKRzXPQTHsodhzJ0LBLphqX4BK8SD+NBK4H3rijF3uhfRaAL7T7XhfPMA4gklfTcREdHEIO7Zswd79+7F2bNn04dovNPmp9jn3g3X9Z+EuXQlUikB4ROvInboR1jm7sC912chP8uGOjWcHKvsQoc21JO+l4iIaCIQH3vsMTz++OP44Q9/mD5EE4EgGWApWgH3jZ+Dbck9EM12RBsr0Pv636FMqcDiEhkuuwHlZzpx5FwXIjEWdyMioolDPHPmDE6cOMGAMkEZXAVwr/g4PHd8FZLDAyUwjIEt38N6azlKfREEQzEcrezC6bo+9qIQEdGEITocDmjNYrGkD9FEo+/pU7IWWR94EqaSReoBCcqpF7E2pwcz8kw439CPg6fa0TcUTt9BREQ0vomCIOBio4lK/f2TjDC4i5Bx+3dgmrZYX6JcHD2COZ4+uJwmVNT14s2jLVC47piIiCYALjOeRLRKtLIzF/brHoBkzwQ6KrHM14eFRUYM+6M4WdWNE7W96auJiIjGLwaUSchcsBzGgrl6r5h76BQW+npRWuhGU/swdh1uxkCAtVGIiGh8Y0CZhCSTE7bZGyF7CqB0n0eJ2IQl040wGiVUNvTj7RNtSHGoh4iIxjEGlEnKnL8Uxvz52rgPzANnMcfejutmZWE4EMWe462oaR3ifBQiIhq3GFAmKdHshLnsehgySpDorkVG8CxWlhmRl2VHW6df36snENI2FGRIISKi8YcBZRKz5C+FKX+hVtUN6K5EAWqxbmkBRElA+ak2nKjpRjTOLQ6IiGj8YUCZxESjHaaS5TDkzkK8twHmzkNYWmLGnNIMRKJJvLCrFu29QSSS3KuHiIjGFwaUSU6bi2IpXAZBFBHrrIF96BjuXzcdNpsBza1D2HW8Ff3+KDjSQ0RE4wkDyiQnymaYiq6DsXgpkgMtSFRtQ1GGCXetK4Msidi6rwH1bYOIJTjUQ0RE4wcDyhRgzJ4PS/EqQJYR72tBqmk77lxZjKJCNxQlhW2HWtDaHUhfTURENPYYUKYAUTbClDdfX9Wj+HsQPvM6LFIUD22YAbvFgLM1Pahs7MdwKJa+g4iIaGwxoEwJAgze6bCW3ADBZEaitxnh6texoMSNebMyIYkC9p5qQ13bUPp6IiKiscWAMkWIRguMOXNgLrsBStiP0OnXYEoO49YVBcj0WNDUNoyK2l50DYTSdxAREY0dBpQpQ4DsyoN1xnoIVjvi3Q0I1e7ArBwzFs3Kgskg4XhVN6qaBpBUuKSHiIjGFgPKFCIarDBlzYal7Hqk4nEETr0GKdKDNQuyUZjjQEdPAKdretDWywmzREQ0thhQphjJ5oNtzp0Q7S4kOmoRbjyA0gwBC2dmwmkz4VxdH06e70GMFWaJiGgMMaBMMYJshjFrFiwzrkdKEBE8sxnKUDNWzPZhZrEbfUNhnFYDSnO3P30HERHR6GNAmYK0Evj2xR+AZHMj3tmAcGM58u1RvRcly2dDbesQDlR0cJ8eIiIaMwwoU5AgGWDKKIVl7joIRguCFa8g3l2NpTN8WFiWAX8giorzvTjfOpi+g4iIaHQxoExRgmiAa+WnIDl8SA72IVS/F06lU+9FmV7kRkuXH9vKm7iih4iIxgQDylQlCJCtPtiu26SHlHDVTkRbT2NuoQMr5uYgmVRQ1zSAg+c60zcQERGNHgaUqUwQ4ZhzDwyZ05CKRxCq3wN5sBJzp/uwcFYmegfD2HagEeFYIn0DERHR6GBAmeIkqw/W+XdBduUj1nxKbcdR6E5h5bxcmEwymtuHsfN4K4d6iIhoVDGgTHWCAOu0NTAWzAdSCiKN5ZB6T2FWsQfL5+UgEIzhrfIm9AyGGFKIiGjUMKDQhV6UmTfDkFmKeE8tIg3l8MlDWDU/Fx63GS0dfuw63oYIh3qIiGiUMKCQzpx/HcxFS/VCbtGWk0i1H0Zpnh2rF+UhkVSw+2gLGjuGEUuwNgoREV17DCikE00OmKevhjF/HhKDbQjX7oU13oW1i/KRm2VHV08Au4+3om8oglSKQz1ERHRtMaDQ75ly5sM8bQVEqwuxzhrE6t9CnteIjauLYTYbsPdEGyrq+hAIx9N3EBERXRsMKPR7gmSEuXAZzCWroAR7Ea5+G4ZwGzYuK8LMaV4k4gq2HWpCXduQPuxDRER0rTCg0B8x+spgmbYakisLiYE2+E89B4sR+NCds+Fzm1HfOIBDZzrQ0RcEB3qIiOhaYUChPyYIMOUvgm3e3VBCw4hU7Ue8twoz85xYt7IYTocJO4+24FRNLzcTJCKia4YBhf6EbMuAuWgJDEVzoYSHMLT/J0gl47h7VTFKiz1auRTsOdGGkzU96TuIiIhGFgMK/SlBhCGjDI7574OaTBBrPodg/S7YDElsWluCohwHGlsHceRsJ5q6/embiIiIRg4DCr0jyeSEKX8hTGUroUSC8B9+GqlgH2YXuLBiQS7cTjNOVvfg8JlORGIc6iEiopHFgELvTBAhO/Ngn38vRLMZ8c4aDJ94BoZYH9aoAWVuqQ+hSBxHK7tw7Hx3+iYiIqKRwYBClyQarDDnLYZt4V3QluyEzu1AoHIzsozDWK2GlJI8l76ZYPnpdrT2BNJ3ERERvXcMKHRpggDR4oJ98UOwzFwLJRxE8PRmROrfxqzMpL6ZoN1qQGV9P/arIYWreoiIaKQwoNC7EkQZRs80OFd9FKbixUgO9yFw+jVIXUewsMiAxbOz4Q/HcVANKGcb+9N3ERERvTcMKPTnCSJM2fPhWPFBGHNnI9HTpIeUzMg5LJ9hR3GuE509Qby+vwH9w9pePen7iIiIrhIDCl02a/Ea2Je+H4bsUsRbzyJc8SqmyU1YvzgLsiSiuq4Pu0+2csdjIiJ6zxhQ6IrYZ94O26K7IWcWIdp4FDj3EmY4e7F6cS5CkQRe3lmLxo5hfekxe1KIiOhqMaDQlREEOObdD9uCuyC6shBpOARHzXNYN0NEZqYdw/4ovvOLQ9h/pgPBKHc9JiKiq8OAQldMkGTY598H++L3QbQ5EW0+Dkf1L/DRmzPh89kQDMTwHy+cxi83n0Vj5zAUdqUQEdEVYkChqyKZHLDPvQv2RfepgUWC0H4Kha2/xhcfmIkVi/KQSCo4eLIdP335DPaeakcgzN4UIiK6fGIoFILWotFo+hDRZRAEyPZs2ObcAdvCewFFDSAtR5HZ8jQ+sC4fD946Ew6bEXXNA3jhzfN4eU8dmrqG0zcTERG9O6mpqekfNm/ejJ07d+pB5fHHH4fJZEqfJnoXWiE3k0Pf/TilBpRY+1kkB1thT/Yi02NAbkE+AgkJrV1BtHUH0DccgSgKyHJbIUlC+iFERDTVxWIxPPnkk7j77rtRUlKifkdIEGfMmIGysjLk5uamLyO6fFohN4OvBPaF98I6ZwNSsTCCZ7bCWPkC5vi34Nb8RqyZZYAkpnDkTCde3VOP7Yeb0TMUTj+BiIjoT0lvvPHGP6xatQoGgwG7d+9mDwpdMUGUIJldkD0FEA1m7QDiPbVQuirhEweQYY7AakoilBDR2JNAc6dfX4ZsMEhw2016rwr7U4iIpq537EExm83QmtFoTF9GdOUE2QRT9hy4b/hLONd8FPYFd8GYMxvJgRZ4ml/HKmUHNvpOY4G9AUqwA1v21uLF3bXYd6oNrd1+xBNK+klERERcxUMjStCDirX4enhu+iKcaz8F69xbYMiYDkOgBzMH38Q9tu1Y5z2NXKER1VW1+NlLFdi8vwEV9b16mXxt9Q8REREDCl0TgmSAtWgVvDd/BZ5bvgDrPDWoePLhTvpxffxtfNz3KpY5T8KW7MWb+2vx5IsV2HGkGU2dfr0iLWunEBFNbQwodE1pk2jN+Uvhu/lv4dv0HVgX3wHZ4YFb8eN94m58sngb8m29GOofxDNvVOL/vHgKeyvaMRiIsTeFiGgKY0Ch0SFKMGXNhvfGLyLzwR/Bsuh29R8+BdkD1fi89ze4u6wBGbY46hoH8PMXTuMHzx3H8ZoeJBX2pBARTUUMKDSKBH3ox+gtgWfNZ+C95x8gu72QoiGsHHgFny7ZixumB2A0Cjhb04ufqUHlR8+fQm37UPp+IiKaKhhQaNRpwz6yzQdr6Tpk3vu/YJlzI8xqKMnoO4HbhNfw6Mx6LJhm0od5Dp1qx//57Uk8t6tGL5fPqSlERFMDAwqNDUHUq9Aac+bDvfrTcK55DCZXBlzhZswc3IE7HPtw3+I4sjOtaGwbwo79jfiRGlQOV3UiFOG+PkREkx0DCo0prcibMWMG7PPugvP6T8Jcsgzm5DByBsqxNP4W7i6oxc1LMxGJJ3HsXBee31GDF9+uQ337EGunEBFNYgwoNC5oGw9aZ6yHY/mHYVtwFySLHZbuE5g5/BbWmfbjrlmDmFVsQ2PbIN481IwXd9Zi3+l2dA+GOexDRDQJMaDQuCHKZlgKlsFx3UNwLHk/jLlzgaEWuJteww3SXmzwnMSN0wZhFqM4fKYDr75dh23lTTjX2KfXTiEiosmDAYXGF0GAwVMM+/x74Vz9UVhnr4fkzEGq5TjKOn6Hu72HcWPGeczx9qG/txdbDzTgxd11KFcDS1tvkMuSiYgmCQYUGpdEox3W4jUXSuav+QjM01dAsmVCajmKG8Iv4X2Z5ViV0QAvulBZ3Yynt1ZisxpWKpv60e+PIMVxHyKiCY0BhcYvQYBk8cA++05kbPpnOG98HMbCBXp48fWexJ3CK3gwey8WeZqQ8Hdh5/7z+MGzx7HtSDPaeoIsmU9ENIExoNAEIEA0WOCYswlZ7/8RXDf/FYwFc9R/eAUUByrwoPwSPpy7DSW2Zgz2DeO3W6rwrV8cwtun29A/HNVL5jOnEBFNLAwoNKGIsgmO2Xch674fwHPbl2EsmgdJiaMsXIXHrK/io6X7YDXH0NMTwM9+dxr//NQRHDjbgUAkln4CERFNBAwoNPEIEkSTHbayW5B553fhveOrME9bCEvCj9mBI/hS5m+waf4AzHISDc2D+Nnzp/HD357EwXOdCMe42oeIaCJgQKGJSRAgGCyQnbmwzdgAz7rPw7nmwzCZZXijbVg18Fv85eyjWF6aQiql4HRVD5567Sx+9vIZnOAmhERE4x4DCk1sesl8J4zZc2BfdD88678IU/EC2GPdKBw6hFtSr+Dh+T2YXWS4sLdPRQeef7MGWw42IhRlbwoR0XjFgEKTgrZLssGZD+vMm+Fe/Tjsyx+GrP7TnRWqxFz/DtzmOY475ivIy7SitmUA29SA8vLbdegdiqSfQERE4wkDCk0egqAvQbYUroBz2QfgXPVRGHPnwDDcjKKBvVgp7MEt+S1YUGRE32AYO8qb8PLuWjR0DCOZ5JAPEdF4woBCk48gwuAqhH3xg3CseBTWOTfrh81t+zE78CY2ZNViabGiz0PRQsorb9ehoqEPYQ75EBGNGwwoNGlpS5JtpRvgXPWYGlbuhcFXAqGvDgXdb+C27PNYWZqC027ErsPNeGl3LY6f78FQMMaaKURE4wADCk16Rk8JXMs/ou/tYypeDISH4G7ehjszz+Cm+SbkZtpQUd2DZ3dUo/xsB/qGw1zlQ0Q0xhhQaEoQZDNsZRvgWv0JmGesRioWglz5GjZY9uDhmzJQkGVDZ1cAv9lajbeOtKB7IKRXoCUiorHBgEJThyDAnLcYrlWfgGXezUjFo4id2ox5g8/gL+8pQNk0F8LhGJ5/6zye31WDlp4AFPakEBGNCQYUmnKMvlK4Vz0O24r3I5WII3x6F9znfojP3p6J1YvzYJAl7D7UgqdeP4czjf3pu4iIaDQxoNDUI4iQHXlwLfkgnOse1zpWEK87DvHoD/Hw4gTuXlsMn8eCivO9eP7N8zhW05O+kYiIRgsDCk1JgihBsmfDseA+OG/6KwgGI+ItpyGe/iXW5XbhzhsKkZNlQ3VDP156qwbllV3pO4mIaDQwoNCUpYUU2Z4F+7y74Lz+ExAtTsRaKyBXPoel9lrctiIXedl2nG8awKu7a3HwbCeXIBMRjRIGFJratOEeWyZsc+6Ac8UHITuzEW07A0PNK1hoOoeNSzNRmONATaMWUupw4GwHYvFk+mYiIrpWGFCIVLItA7a5d8C+5EEYvEWItZ+DsXYzFshnsHGJF8X5TlQ39uEVNaQcquxCKBJP30lERNcCAwpRmmTxwjbnTtgX3w9DxnTEOqsh17yKBYazuHWpGyUFblTX9+G1PXU4WtUNfyiWvpOIiEYaAwrRH5DMTn24x7HkARhzZiLe2wDh7G+xSA0pd63wqCHFhdqmAby2tx7Hqrv10vhERDTyGFCI/hvRaINt1m1wLv8gjLmzkBjsRPzof2GRfBrvvzETRbkONLQM4pU99Tha1YVhbf+e9L1ERDQyGFCI3oEgm2CZvg6uNZ+EMX82lNAgQnufxAIcxUNaSMmxoaVtSN8J+eDZDgRCca7wISIaQQwoRJcgSAZYilbCs/6LMBYvgBKPYmjHDzE7ugsfWJ+FaflOtLYP44W3arDtcBMCYS2kMKUQEY0EBhSidyOIMGbOhnfDEzDPWaMdQGD/05jW+zIeWmPH7FIfevpDeGlnDf5j81m09QUv3EdERO8JAwrRn6EVdDO4C+C78UuwLr1L/bdGQqRiO/I7XsAjy4EblxbomwqWn2zHk8+fxqFKraAbe1KIiN4LBhSiyyCIMmRXPjwrPwXbsvsgSDKU+gPwtryIu2YMYdO66XA6TTjf2I9nt1bj+d11iMSTnDxLRHSVGFCILpdWdVYNKc7rHoJ96QMQjFYoTcfgqH8Bqx1ncf8N2ZhZ4kVzxzB2HGzEf7x6Fq3dASSSSvoBRER0uRhQiK6QwVUE+4JNsC+5D5Ldi3jrSZjPv4S5obdw26wwbrguD0OBKPadaMUz26pwoqYHQVaeJSK6IgwoRFfB4CrUNxm0L30Yxty5SAy0QDy/BdMHtuHmzGpsXOKCxWzA4YoOvPp2HfaebEP3YJhzU4iILhMDCtFVkh15F3ZCXvEhWGdvgGCyIlm/D76mF7DRfRobygKYlmtFVX0fXt/XgDePNKO2bQiRGDcbJCL6cxhQiN4D0WiHdfqNcK76OOxL3g9j7hyk/H0QTj6FDeY92FjUjvn5KfQPBvDG/ga8uqceJ853o3cowt4UIqJ3ISaTSWhNUTiRj+hqGVwFcC56EO71n4Nl5g0QbT5Eq/dhXtd/4b6SOizND8AkRFF+qg1Pv1GFt462oKU7wN4UIqJLECsrK6G1lpaW9CEiuhpaeXxz7iJ4N/wtXOs+CUNmEZRIBO5zv8EDrp24o6wXxRkp9Pb58eJbNfjZq2dwpqGXFWiJiN6BYDab1T8bU3oPyowZM1BeXg6Hw5E+TURXJaUgER7EwL5/Q6RyH5TwMESrDYP567EvtAx7qwWEwgnYrEasW1mEh9fPgN1igCQK6QcQEU0NWgYJBAJYvHgxfvKTn2D9+vUwGAwQa2pq9B4U7SARjRCtZorFg4ybn4B30zdgLJyHVCwKR+1W3BZ7Bp9c0o45pS4EQzHs2NuAv/33/Th4rhPhaCL9ACKiqU3My8uD1rxeb/oQEY0IQYAgm2EtWgXfHf8Ax8pHIbszIPXVobjtRTzk2IwP3GCGyWxAV48fP3/+NH762hl9pQ+LuxHRVCeqtP/TGxGNPEG2wOApguO6h+G56XOwlK2GHB+Gp+cIFvc8jcfn12DpXB8C4RgOn+rAT1+qwLZDzegdCqefQEQ09TCVEI0CQZAg27NhmbYGzlUfg2PFozC4fLAMnkdJ/1vYKLyEh1ak4LGLaGwbwut76vDbN2twsrYXsQR7U4ho6mFAIRpFoskOU848OBbeB9eqx/QlyUKgC7kD5Vga2opNheexdLqIYCSGg6fa8PKuWuw43Iyu/lD6CUREUwMDCtEoE0QJsjMP1pm3wLn8g3AsfQCSMxOG9qOYF9mDm6yHsL5kEBmOFKoa+/H6vnq8vr8Bp+p6EefcFCKaIhhQiMaIaLDCnLcIzpUfU4PKIzCVrkLK34vcnp24Qd6PW3IbMS8njHA4ih3lTXhpdy32nmpHz1AYCuumENEkx4BCNJYEEZLFA8fCh+Ba+0lY52yAZM+EseM4Foa24o7MCqwuGECGLY5ztX146vVz+pBPTesgIrEEmFOIaLJiQCEaJ8zZC+BZ/0U4Vz0CY+FCIBxAVtt23CJuxftmdaPEF0E8FsNzb1Th19uqcKKmV1/pE+ckWiKahBhQiMYRbdjHMf8BeDd+BbZFd0KyeyD31mBG62/wseKDWDtLgcui4GxVD37825N4dV89GjqGEIrEkVTYnUJEkwcDCtE4ZPROh2ft5+C59aswTVsMREKw1L+N24d+hC+tH0R+poxoOIbXdtbif/36GF7Z34DugRAUhhQimiQYUIjGKUEywlK8Gt5bvw7Xhs9CcnoA/wBcJ36Oz+W9gAdWKMj2GdDXH8KL28/j+08d1YPKgD+afgIR0cTFgEI0jgmiDNmRA8f8e5Bx9z/BuvBWiEoMxq5KLGn/KT5dsg93LwjB6xTQ3D6Ml948j3/59TFsPdyEEPf1IaIJjAGFaJzT6qaIZhdMuQvgXvVJeO74Oxgy82GODcDXXY4Vg8/hUd82bCxuhlkO4XxjP156qwY/ePY49p3pQCSWBAd+iGiiYUAhmiAE2QiDZxpsszbAc9OX4Fj1YRh9eXAmelAcOoVV8Tdxn2071mdVIBnpwvHKbjy/vRr/8dpZHFSDymAgyvopRDRhMKAQTSSCANHkgKVoJRyL7oPr+k/CufJDsBTMgU8cwuzkaayRDuIOy9tY6zwCf28t9h1v1kvmP721CtsPNaG+fUivoUJENJ4xoBBNRGpQkR25sE5fB8eSh9SQ8hE4lj0MW8lyZJjiWCqcwnrzQWywHsAKYzmiXaew/1g1Xt1TixfVsLLlQCNO1PSgdyjCYm9ENC4xoBBNcJLFC0vxGjiXfQjONR+D/br7YC1dDY/NhOsNFbjDvhfrbQex3HgMLv9JnK04hZd3ncMLO2uwrbwR5ec60dTl567JRDSuMKAQTRKi0QZz3mK4lj8G983/A/Yl98MyfSUcTi+WmJpwn3037nXtxPW2IyhMVGCg8TTe2H0Cv3ytAq/tq8fhM52obRvCcCjGom9ENOYYUIgmGa1+itFbAveyx+Db9D041nwEltKV6rEi5BujuNV8Ah9xvYFN7jcx13gS0kAtjhw+hR/8phy/2nIW+0+3o6FjWJ9UyzL6RDRWGFCIJitBgGR2wjnvPmTc8y9qWPkW7MvugyFnBmwmE+ZK7XjUuhOf8T2DjZ5dyBDr0Xi+Hj//3VH86zPH8Or+hgs9KsGYHlTYp0JEo4kBhWgKENSwYsqaC8+azyL7oZ/Ae8/fwzxnLSSrHQ4lhLWpCnzV9Qz+KucZTLecQU9nJ17cVoXv/kc5/s/LFThZ14uYVk+FKYWIRgkDCtEUo81VsRStRsYt30D2o7+A+7bPwzhtrh5icmPd+IR1Gz6f+yxWeo4B0T4cOdWOHzx9DH//84PYfLABAwGW0ieia48BhWiqUYOIIBkgmuwweIrgmHsPMu74LjIe+jdY598Im8WAnEQX7pL24NMZL2NDRjnMqW7UNg3ghe3n8Z2fHcSvtlWiqz/EybREdM0woBBNYXoZfZMTBnchLEXL4L3+s/De9U04FtwCr8uEwlQrrk+V41HHG9iUfRAuuQsNbcPYVd6Mf3vmOF7Z14DOAQYVIhp5DChEpBIgyGYYvCWwTr8erhUfhfumz6lB5Tb4XBZMRyOWpY5gk2kH7s8th0cNKucb+7BtfwP+c/M57DzWgu7BMOeoENGIYUAhoj8iyBYYM2bCNusWOJc9Cteaj8OuBhW304oZqfNYKR/BbcZduDX7DFKRHhw/14HNe+rxws5aHDzbgX4/56gQ0XvHgEJE70jrUTFmzoJ97l1wLv+Q2h6Fbc4tsFksmJs4jXXmcmywl2OJpxmBwR68fbwFL++uwxsHG3GqthfBSDz9JCKiK8eAQkTvSpBNMGbMgH3B/XDd8CnYlz4Ac+lq2JIBrBbKcauzHGu95zDd2o2url5s2VuPF3fVYNexVtS0DiKeZLE3IrpyDChEdFm0lT8GTzGc1z0K982fg3X+LZB9JfAFG7Be2oW7M49iZWYrfIYhnG/sxW/eqMTzu2px4ry2KWGYE2mJ6IowoBDRFRFEGaaMmfCu/xpcN34S5unLIUkWFAwexZ3yVjwwrRILswOwiBEcO9OBHzx7HNsON6OxYxihaAIpzqQlosvAgEJEV0UQRdhKb4bvzm/BseZDkLPLIIYGMK17Kx62vIAPLupGrltBIhrH77ZW4d9fPIWjVV16obdEkiGFiN4dAwoRvSeSyQnXdR9Exqbvwr78PghmG6TeBpQ2/Bc+X/ASNq0wwGwUUN84gB88fRy/2lKJuvYhKOxJIaJ3wYBCRCPC4CqEe9Wn1aDyPVjm3wwhlYTcUYlVjf+Cr66qwsLpBsiygIPH2/DD507g+d216BkKp+8mIvpjDChENCIuVKV1wJy/GJ4b/hqe278GOasIhtgQ3PVb8YDhGXxgUT/yfQK6eoN4fXcdnnzhNPZWtOu7JRMR/SEGFCIaUXpFWncBbDPWw7fhb2Ff8RAkMQm3vw5ze17CgzmHsK4sDNkAnKnpxfM7zuNXW86hoXM4/QQiIgYUIroWBBGi2QVT/mI4r3sI7vX/A8b8ObDEelAwdAg3pHbgroJazC0Q0NUXwt5jrfj1lkq8cagJ/lCMK32IiAGFiK4dbUmywTMNtjl3wLXq47AtvheyyQyf/ywWRt/GzfbDWD+tHy67hBOV3di8tx7PvVmDMw39CEcT6acQ0VTEgEJE15xosMAy7Xo4lzwMx7IPwFS4GKZoH4oH9+JG0wHcnFmFpdOS6B8MY/vBRrzydh12n2hFe28QCVaiJZqSGFCIaNQY3EVwLLofzpUfgXXuRsg2D2w9J7EkvBV3ZZ/B6px25LkVnKzsxEu76rC1vBFnG/owHIyln0BEUwUDChGNKkEywVK0Uh/ycax4GKb8eRATMXjqX8N99u24vaAB8zOGEA35sXV/A373Vg0OnOnQe1O42odo6mBAIaIxIduzYZ9/Hzy3fAW2BbfB4MpFqq8Nc9uewkcKD+CGvE5kW0Ooqe/Cb7ZW4fldNTjfMoChYIz7+hBNAQwoRDRmtEm02k7Jnhs+B+8934Fp+nUQjHZIzcdwW/TX+FDRESzKHkIiHMTbh5vwg2dP4LUDDejsDyIcS0BhUCGatBhQiGjMCbIR5twFyL7n3+Dd9HUYsouBeBw57bvwiOlZfGD6ceR7oujqCeKFbdX42x/txVPbq9A9EGJvCtEkxYBCROOHJMNafAOy7v8xnDd9GnJmIcTgAOYO7MLHHM/jg3OrkONTEAjE8db+Jnzt3/fjyZdPo7p5ANF4Mv0QIpoMGFCIaFwRZBNkRxYc8++D746/h2PZ/TC7XPCEmrFwcDseMz6Fx0v3oMzdiqHhAPYfb8MPnjmO//tKBY6d70YoEk8/iYgmMgYUIhp/BAGSxQNTzlw4l34Qnpv+B2wLNsBmEZCdaMGsyDHcjS14POMVLLeVIzTYhMOnW/DU5nP4j9fOYu/pdvQPR1iRlmgCY0AhonFLkIyQXQWwTL8BruUfgWf95+Fc8QHYswuQL3VirlSNtdJhvN+6HTfKOyD3l+PEmSq8+NZ5/OLVs3j2rRocrupGvz+qhpX0Q4loQhCj0SgikQjicXaLEtH4JBptMGbOgm3WrXAseUivoeK6/lOwzlyLHLeMReZGrDGdwC3mcqwV3kJm33Y0Ve7F7vJTeHnXeTyzrQqv7K3HsfM96B0Kszot0QQg2Wy2fygvL8eBAwfQ0dGBxx9/HCaTKX2aiGj8EEQJktkJg3caTLnzIHsLILtyIdkzYZIFZKS6USC0IFfqhFvogyPRA2W4Hc1trajtGEJLTwydfRE1pEQQiiYgigKMBvWZ6isRjZ1YLIYnn3wSd999N0pKSiBJEoQHHnggpSgKOjs7MTg4CC2sOByO9C1ERONfMtiLSFcFYq2nEO+uQ2KoE8lALxKRAAKKjPq4Dy2JfAwkctCv2AF7Fny5hSjOz0FhthMZbgs8TjO8dhMsJjn9VCIaDdpcsUAggMWLF+MnP/kJ1q9fD4PBACEYDKa04Z2tW7fi29/+NgMKEU1YKSWB+FArou0nEes4i0RPExLBAShhrfn1oZ3GhAP1alhpixdhIJkBxeKGOzsHRfl5mFHgQ67PBrvNAIfVCJvZwN4VomvskgFFPaEHlC1btuCJJ55gQCGiySGlIBkZQqTzNCKtRxFvPoOkvx9KLIhULAQlEUdPwoCaRLbaStEZL0YETljdbpRMy8W8kiyU5rngclzoVbEYZciyCMYVopHFgEJEU1pKURDrq0GkpRyRxsOIdzVACfkBJY5UMomwIqA24cbpeBnqYnMQSvogmSwoKvRhflk2FpVmoDDLAZNRgiyJ7FkhGiEMKERESGl/Guotoc1b6TiJcP3biDaeQHKgWzurNkFvLYoNJ6PTUBmfi75EEQTZjtxsB5bOzcHKOdkoy3cxpBCNAAYUIqI/lFKQSsaQSkShRAOI9Tcg3HQA0abDSHQ2I6H1uKRkJNQ2kLKgKpGLs/E56EUZDEYnfF4rFs7OxIpZ2Zie69RXAxHRlWNAISK6FDWsKGpQSUX9aljxI+HvQaTtOKKtxxHvrEU8FEQ4ZUBQsaBfcaAmmY2q5Ez45Vmwmy3I9Nkwq8SLRWUZmJbj0CfXEtHlYUAhIrpMWs9KMtR/oalhJdZdrQeWeOd5RAN++BUzBtSgMpxyoyqehQalDIp5Gpzqn505GXaUFbkxt8SHYjWsmNmzQvSuGFCIiK6CtnQ5GepDYqgNif5mxHpqEe2oQLyrDvFoFD2KDT0JHwbgRb0aVjowDaI9H1leD/Kz7CgpcGOG2orU91phOCL6YwwoRETvkdazkgh0I95bq7ZGtdWrgaUaid4WRJJJdMSd6ExkqaElE+2KD71CPiyeIhRmeVCY40BRrhPT85zwOc36SiAiYkAhIhpRqWQc8cFmxLrOIt6lBpa+JsQHGpEc7kEwlkKb4kZTLBc9yVx0Kx4MSNnIzCnGjHwtrDiRl2VHns8Kt93EsEJTGgMKEdE1ovWsxHqrEW0/hVjHeST6W5AY7kQyNIBQXEB9MgM1sSL0JfLVwOJA0pqLvPxczCz0oUgNK9leK3wuM9w2EySJw0A0tTCgEBGNAiUWQLSnGpHmQ4i1nUNysEufbKuEhxFOiaiI5eJ8bAZ6E7kYVhwQ7V4U5OdgbkmWPlfF6zbDpQYVh8XAOSs0JTCgEBGNMiUyjEjXGYQb9iKmFYMLDKZL7UcwBCOqY9k4Fy1FZ6IIoZQLotmGadNysGhGLhZO98FhN8JqkmEyyJDZs0KTFAMKEdFYUf8ATiUiCLYcRLj6TTWsnEIyNAQkE/oqoVBKRl3Sh2PhMjTEZyOk+CAZjJg5IwvLZudigRpWMlwWGGURkiTqPSuMKzRZMKAQEY01rXqtVhQuMoxw2zGE63ZfKLM/2K1lGChq7IinJLSmHDikhpXqxHwEkzmQZDMK851YNDMTS9RWmu9mfRWaNBhQiIjGi3SZfSUe0cNKrK8O4cYDiDYfRaK7FQk1rERTshpWjOhJWVEdz0GdUooBlCAl+eBxW1A2zYuFpT4sKPHBZTexR4UmLAYUIqLxSC+zfyGoKOEhJIbaEW47eiGsdDUhnkgilDIgrJgRTFnQkXShXslDt1SKqKEYNosN+blOzCr2YI7a8jNsMBvl9MOJxj8GFCKi8U79gzqVjOo7LSeDPUgOdesrgmJdlUh01yEeGEQ4KWJIsSCg2PVVQC1qYOk2FCFkKoPZmgmvx67XWZme78K0XAcynBbuukzjGgMKEdEEo1eu1YKKvwvJ4W4kBtv04aB4bx0SA22IRyIYSJrQn3JhOOlBb9KBbikLAXMRZHshXE4vsr025Gc7UJSjBpcsh74qiGg8YUAhIprI1D/Ek1FtCKhNDSqtekBJDHYgPtiovm+GMjyghhQBPUknuhWfGly86FM8GDJkQXAVweXORa7PgawMNbBkamHFDpfNyCq2NOYYUIiIJhGt1L42DBTr08rs1yPR167PX0kMt1/YgTkaQV/SgtZEBrqT2RhM+tCbciDpyIM3axqKsr3Iy3Igx2fVK9l6HCYYZa4MotHHgEJENIlpBeCiWljpOod4tzYE1HFhHkuwD8mwH+GEgIakG03xfHQlitTw4oJiz0ZGTj5K8zNRnOtElhpUvE6zvj+QicuYaZQwoBARTRFa8TetJyXadQbR9gokuuqRDPQjGRlCKjyEWEJBbcKDqngJOuLF+nBQ0uxGZk4OZk/Lwqwijz53xWk3wmU1QpZFLmOma4YBhYhoKtLmrsSCiPVWIdx8GLHGI0gO9ECJBpCKhxFRgPq4F6eipWiOl8Kv+JAQzcjIzcTS2TlYNisbmW4LbBYDzEaJK4JoxDGgEBGRHlgiXWcRqnsL0doDSPR3qEElhpSSRAQimhQvykMzcT46D1HFg5RkwIzpmVi1IBfXzchEltuq7wskiSIEZhUaAQwoRER0gV5yP6kGkyiiPZVqWNmFSJ0aVnpaoSiAkhKQgIwaIQu7/fPRkpir/tgBm82MWSVeXL8wF4tLM+B2mNIPJLp6DChERPTfaIXh4vpQTzIyjHh/PUL1+xBtLFfDSjvikBBWjAiKVpyJF+BEZC76U8WQDQ54XWbMLPVi5ZwcLJieAZOBy5Xp6jCgEBHRpekl96NQIoNIBvsR72tQw4q2meExJENBBJIG+BUregUvqtSwUhUrQ1QugtNmRobHigWzMrFidhbyfHYYZIYVunyXCij8p4iIiABBhGiwQHbkwpQ9B9aym+Be/Slk3PktuK5/DL6SWci3RzFbasR64wk8ZNmO2+WX4Q3uR01DPbbta8D/ff40fvH6WeyraEfvUASK+sVDdLUYUIiI6I9pYcVkhzFjJizTb4Bj0X1wX/8puG/8K3gW3o7cbA9mWzqxzHgWt5jKca9pOxYmd6C35Tj2H6/HSztr8NSWc3hNDS2VzQMIRRLpBxNdPgYUIiK6NDWsaL0qlqJVsC+4B84VH4Rr9cfgXPYBeEqvQ6k7gVWms7jRfAQbLfuxWtgNY89BnKo4g9f31eDFt2rw8tu1OHCmA+19Qfaq0GVjQCEiossiGqx6r4p9zl1wrvwonKs+AsfSB2GbswFZGRlYaWvGRms5Ntj2Y42xHAWhQ2itOYYte8/gxZ01eH1vPXYfa0V1yyCCkTjDCr0rBhQiIroyggDJ4oalcCVcKz4G9/rPwbH8YVjVoGLLnYlZ9jBusx3DPY7duMl2ALNwAkrnSewtP4FfbVbDyq5avH28FWfq+9A9EEYskUw/mOj/Y0AhIqKrJogyDK58OBY8AN9t34Br3V/CtuB2mPLnI8NhwWpzPR5x7sR97u1YYjkGb+Q86s6dxi9fOoJfvHYGWw81oqK2D229Afaq0B9hQCEiohEhyCZYi1bBu+5L8N39bThveAzmkqUw2z0olodxn/kgPuN9Fvf4dqDEUAl/ex22vHkSP3jmMH75+jmUn+1Ee28Q/lAM8YSSfipNVQwoREQ0sgQBBmc+nAseRMY934fvvn+CdfHtkNwZMAnAIqUWn3G8is9lPY0bXbtgjtbj1OkG/OTZY/juL8rx3K4anG8dQDSWQCKpVb1lr8pUxEJtRER0bWml9ZMJvVptuPUwQpWbEas/iWQ8hqRWVl8woBmZKI/MxrnQbMRSGTAaJWRl2rByQS5uUFuezwZZ4n9TT0aXKtTGgEJERKNDr1YbQSoWRGK4G6HGPQif3414bzPisSQiKSP8sKFVDSvHQ9PQmJgFUfbBbJJRlO/C4lmZWDIzC7lebcNChpXJggGFiIjGjZSSgBLWyur3Idpbi0jzIcSajiM+0KUGFRnDigVBxYYe0YOT4Xx0YCYkUzacdhuK8pyYV5qBudM8alixQRS5rfJExoBCRETjkhINIBHoQmKwDfHeekQ6TiPeWYnEQDcighG9CRuGky70pNyoT2ajR5oOyVYIr8uJLJ8V0/JcmJ7vQkmOEyaDpE2BoQmEAYWIiMa1lJKEEhlCfKgVycFWxPvbEOupQqy7Wv1xD4JJAT1JB/qSXrV50Kl40S/lAI4iOJ3ZyPJYkZttR2G2A8Vq8zhMMHAoaNxjQCEiookjpSAZDaghpU7fWTnR14JYf6P62oDkcDeC0SR6FTu61KAykPRhWHGhW3FCceXD5ilClteHnAy72mzI8VqR4bbAYVG/9Ni9Mu4woBAR0YSlRP1qQKlDrKsK8R41qAy2IenvQjLQg2Q4gGBSREvChS4lC32JbAwmHYhZfbB4c+HNyEOWz4tMtw1upxkepwleh1kPLJy/MvYYUIiIaFJQYkHEB5sR665Uw0otEn1qWAkOqEGlH0poUD0fQV/SoAYWH9qSuer7bARTLqTMTjgzM+HLzEZeVhZyfHY4bSY4bEY4rEbYzDJXB40BBhQiIpp81C83JRZAtLca0Y4KxDurkOjvhBIe0iffakuak4k4hvTA4kJrMgudyXwMJnIAkw2+LB9ycjNRmJuF3AwXXHYzTCYZFqMMs1GCSW0ih4WuKQYUIiKaEhKhPkS7ziDadgLx9nNIDKiBJRoGkjGktJZIIKEoaFOsaEhkozmRj654IWJSBhweF/JyPCjI8aIoV33NcsFqMsIgi5DVpk26lSWBc1lG0LsGlFgshjfeeIMBhYiIJhXtyy8Z6kdM72E5hVjHGcQ7a6AE/OrJdBl99VXriRlWZLQm7WhMZqE1kYcuNbiEhHz4MryYVuhCWb5HbW7kZzhgNV+Yv6IFFS2q6K/MLFflkgFleHhY70HZtm0bvvvd7zKgEBHR5KJ+AaZSyQtBREkilYgh7u9AtPOUGlpOq6GlCsm+DiixKBQ1bqRSgvoq6u/jKQkdigWtqUy0pdTQouQjLBbA7s5EfrYLReklzYVZDuR4LJA4h+WKXTKglJWVqedSCIVC8Hg8DChERDTJqYFFDyoRtUX1lgz7kRhqQayvFvG+OiR6G5EYaIcSiSChBpY4ZPVVQgIG9VVGUDChX7SjT/BiQMiEX8hGRM6F05uPvCw78jK0ZtMr3brtJhhlBpdLuWRAeeONN1KJRAJHjhzB888/z4BCRERTzu8DSzwEJRZSX8NQokEkAj2IDzTqLdHfjOSgGlpC6vFkClFIiKlhJZoyIq62hBpaUpIZwwYbhiUPgrIPYcmLpCEDsi0LTpcPPveFmiyZWnOZ4bKapvxS50sGlFgspg/xbN26Fd/4xjcYUIiIiDTpzQ2V6DCUiNb8agvoK4S04JIIdFyoxaK2hL8PSlC9JqkgDBlhxYhwyoQYtOBihiBZkTJaEDdaETU4EDW6kJDdUIw+Nbz4YLL64LDb4bSrocVuhNtmhMtmgtUsT/pVRJcMKNr4DlfxEBERXR59SCiqhZWhP2jqj0MBfUJuMqiGl2Cv+mP1fXhQfR1GKqbeo0ANLRKCqQvhJZwyIyZYIRrtMJjsEEwWNbBY9ZZSf5xSgwyMTogmJySzC2arB1arBTazAXaLQX/Vardoy6En8qoiBhQiIqJr6OJeQslQn9703Zq1npdwACmt50UNMUm9N+ZCqElqP1bDC2IRffJuLCUglJLVZlRbOsDAqoYUO2Q1pBgtLsgWsxpozGqYUYON1tQwIxhtgKy9t0FSrzWa7TCbzXotF4te00WCWX3V5sGMxyDDgEJERDRGLvS6DKfDS3/6dQCJwAAQCaohJQwlHr4wB+Zii4XUe0JIqQFGSMS0L2xE0iFG64XRQkxIDTFRwYqUbNd7WmSzCyarSw0zNhjMJjXYmNVXCwx6mDEDkhpuZDXkGCyQ1GYwWWAyyPou0HpTw4xRliCN4rwYBhQiIqLxSP2C1gKJNhykl+tXW0JrwQHEA1r5/iEIaojRQoq+6kgvNqe9RtX71OCjvY/HgGQcgpLQg0xUDTIBRUZADTJBNcRoLSzYoMgOCEY1yFjcMNo8sNjUQGNRQ4oaZszqq9aMJpMaXkxQEw8gGyFKJvWYWa+0ey2CCwMKERHRRKWFmFhADTADangZSM9v6Ucs0Kc2bd7LAFKRYYjRMCQ1qKS0poYVNcGo7xNQ9GOJ3x8XFEUNAAqUFNQQI8GvBhm/GmL8ihpmYEVUdCBldEMye2CweuHOyMfG22+DxWwe8YJ0DChEREST3cXemFCfPlE3Gb4wHybm70V0uPdCj0x4EFIkADkeVa9PqiFGq6h7oZCdvtz64o/VV+2Y9kzJkYXMj/0GZqtLK5ub/slGBgMKERERpaX0HhW9RybYrYYYbdm0GmD83YgMdathpgfJYB8QGoQYDcHkyEDhJ18c8XCiYUAhIiKiP6b1mqgBQQssF3tLUn/4qh1P96RIVo9+y0i7VEBh7V0iIqKpShDV/0lqkyFIRgiySV/hoy1flkx2tTkgWVxqc6dvGD0MKERERPTuxqB+CgMKERERjTsMKERERDTuMKAQERHRuMOAQkREROMOAwoRERGNOwwoRERENO4woBAREdG4w4BCRERE4w4DChEREY07DChEREQ07jCgEBER0bjDgEJERETjDgMKERERjTtCShWPx7FlyxZ87Wtfw969e2G329OniYiIiK4tv9+PFStW4Mknn8T69ethMBguBJRoNIrNmzfjr//6r/GVr3wFFoslfQsRERHRtaPGEEQiEfzjP/4j/vM//xO33HILjEbj/w8o+/btw3e/+11IkgRBENK3jQztJw+Hwzhw4ADWrFmjB6CR/jnoyiUSCZSXl2POnDnweDwQRY74jbVkMomTJ08iJycHubm5/D0ZB7Tfk+rqav0PzJKSEv3PSBpbiqKgqakJgUAAc+fO5e/JOKD9nnR3d6O5uRlLliyBLMvpM5dHywnav2vf+c53sHz5cphMpgsBRTsRi8UwPDx8TcKD9pPW19frv+hTp06huLiY/0CNMe33XOtSW7VqFX784x9j7dq1epcajS3tD9yHH34Y73//+/HBD35Q/5eUxlYoFMKXv/xl+Hw+fRicPcxjT/uv7R/96EeoqKjAT37yE9hstvQZGitahnjllVf035fXX38dDocjfebyaN9JWkeG0+m80HsiCPh/Qrxkry3fcDYAAAAASUVORK5CYII=;" vertex="1" parent="1">
          <mxGeometry x="297.5" y="195.37" width="95" height="72" as="geometry" />
        </mxCell>
        <mxCell id="f9QI1axeGucn3QY7SPFN-33" value="Improved from 0.02 to 0.00206 during 50 epochs" style="text;html=1;strokeColor=none;fillColor=none;align=center;verticalAlign=middle;whiteSpace=wrap;rounded=0;fontSize=6;" vertex="1" parent="1">
          <mxGeometry x="297.5" y="170.37" width="95" height="25" as="geometry" />
        </mxCell>
        <mxCell id="f9QI1axeGucn3QY7SPFN-34" value="" style="shape=image;verticalLabelPosition=bottom;labelBackgroundColor=default;verticalAlign=top;imageAspect=0;image=data:image/png,iVBORw0KGgoAAAANSUhEUgAAAicAAAGfCAYAAACEIXJYAAAAAXNSR0IArs4c6QAAAARnQU1BAACxjwv8YQUAAAAJcEhZcwAADsMAAA7DAcdvqGQAACdqSURBVHhe7d0NkGRnWS/wtz9md5PdfN+QhJsUBtiQD5LsJlCKBqIXkUpugV4B65ZYWpQmFBLFWyV6TSlKFEq9VRfLKqAUEEtAuRYkhYGiQLAIRIhgQaFJSDYfJISQz91ks98z3T33PO85PTM720lmd2f7HPb8fpuzffr06Z6Znt2df573ed/TmS8kAICG6Fa3AACNIJwAAI2yMKwzGAzS1q1b07HHHps6nU5+EADgSIsosnv37nTyySenmZmZMpxEMLnrrrvSVVddlXq9XnUqAMB0DIfD9N73vjedf/75i+Hk9ttvT5dcckl697vfnZOL6gkAcKRF1WTHjh3p2muvTTfddFPavHlzGU4irdx5551p06ZN6bbbbktnnXVW6na1owAAR9ZoNEqPPfZYuuCCC3I4ueiiixbDyZYtW9LFF1+ch3eEEwBgGsbhZOPGjQvhRAIBABpFOAEAGuWQwkk0r0QZxra6W7yvANB2neKH4kJDbHTIPlPPyTiUxOye2Fhd8Z7H/O5+v18dAYCjW+SK5T0nnSeeeCKHk7vvvju9/OUvf8Zwsnfv3vwCO3furI6wmmL6diyCd8YZZ+SQAgBHu4nh5NRTT40JO3nxkwgdTxdO9uzZk1eQjYBy4oknpnXr1lkLZRXF9yBWx4vvwfr169NznvMc7y8AR72J4eRrX/tarpx873vfS7/yK78yMZzED87t27enbdu2pRNOOCGHk/jB6Yfn6on3eHZ2Nj3xxBNp37596cwzzzS8A8BRb1I46b7kJS9Jsb34xS+uTjvQuM8kAksMO8QS97E/Dii2w9/i/YwwsmbNmvx+xwYAbdSNH4jj7enE/9XHNv4hypExDirj9xsA2uigk0b88OTI8f4C0HbKIKvkIx/5SPrKV76SnnrqqeoIAHAoWhlObrnllvTVr341Pf7449WRwxcXTPz+97+fm1kBgEM3tXASLRRN6aX48Ic/nD74wQ+me+65pzoy2cF8rnGp55/7uZ9Lp5xySnUEADgUUwsnc8NR2r1vkPbNDdNoVF9A+cEPfpCnRceU3Vh47j/+4z/Sd7/73fTggw/madRxPK7QHMdjP9Z1eeihh/KxqI585zvfyRWSWPdlqUcffTS/7njl3HhOvO4jjzySQ1A8N14/hn00uwLA0+sUPyjzOifxw/fiiy+euM5J/MCNH9SxSFisXhrTXcfyj9ln+Vk7X/za9tTetG3HvnTM2l469YRj0tqZVVjDo5P/Oyh/8Ad/kP7mb/4mr9kSC8nFLKVXvOIV6bTTTss9I9dcc03uH4lA8Vd/9Vd53vVHP/rR9MUvfjEHkGOOOSa97GUvS7/8y7+cLrvssoX36aUvfWn6mZ/5mXT11Ven5z3veentb397+uY3v5nP/fd///ccak4//fT0G7/xG+l1r3tdfp3l4vsQ4SU+t1jnZO3atdUjAHB0mrjOSfXYIYkKwL65Qdr7bNvsMM0Nhmm22PbNjtKe4v7E8w52mx0cdBUiQsNP//RP5yGYCB1RIbnuuuvSySefnO677750/fXXp3e+8505qPz4j/94fs6FF16Y3v3ud6fPfOYz6V3velcOavGcqIo8k2984xvp1ltvzYHk4x//eH7D3/rWt+YqTQQRAOBAh1U5iYDwjvd/NT2ydXe+/0wiQ4yK36LS0e2uznTZY9b20//5X69IG9atSSudgRth5s1vfnOam5vLVY4f/dEfzcM0H/jAB3Iw+dM//dNcAYmKSkzrjUQX544Xnov34p/+6Z9y9eWqq67KVZAwqXLypS99Kb3tbW9Lb3jDG/I5d9xxR7r00kvTP/7jP+ZzN2zYkI+PqZwA0DZHoHKS0lM7Z9OTO/Y967Z95760Y9dseqrYJj1+KFu85kEWTnLgGG8RNsZb3D/++OPzmxKhYGkY+fSnP51+8zd/M1155ZW56vKHf/iH6f7778/9K88kro9z9tln59eL7dRTT80r7MY3YdybAgDs77AqJ8Mi7fzn3Y/nYZtnEgFiz95B2r57X+oVr3vChjVp7UyvevTQ9bqdtOmcU9NM/+Bea1w5idtx5eSv//qvc6UjqiJx7aCxj33sY+mTn/xkeu5zn5te9KIX5WpHNLfefPPNuWoSFZIwqXIS7+Xv//7v58sDhIcffjidd9556U/+5E/SG9/4xv0+TlA5AaBtVr1yEkHjwheeml56/unPsp2WNp/3nHT+C05JFxTbJeeeNuGcg9/idQ42mISoioQY4lkqqifjx8a+/OUvp5mZmfSqV70q/cIv/EJ67Wtfm3tQItw82/VvxhWa5eLjLv/YAEDpsMJJiOrFs269buoXW4SZ6DeZeM4hbocirqz85JNP5tk3UamIqwE/XViIABKPj/ejbyQWcYsqEgCw+g47nKxERIiFGBEZoOaiQQzBxLDVjTfemP7iL/4ife5znztg3ZKxn/qpn8q3N9xwQ3rf+96XnxOhZvmQDACwOqYSTsJ4dCPWPKk7ncS6JtHcGj0d0RcSi6edf/756ZWvfOUBV2e+4oor8rTjaJaNUBJrlbz+9a/P/SbxnLFXv/rVuWdn/fr1+f6mTZvSy1/+8jxFeSzWNonnnnPOOfutFQMALDrsRdhWave+ufSDrbtzSDn9pGPT+nUz1SOMaYgFoG1WvSH2YHSqgR19oADAM5laOFloOpFOAIBnUEvlRD4BAJ7OVBtiI57IJQDAM5laODnEJUkAgJaZYuWkLJ1YGRUAeCbTa4itRDQRUACApzPdykmlDCjlPgDAUlNtiB0rg4l0AgAcaHrhpNpCLGH/wx5NYjW7z3/+8+mee+6pjgAAq2GqwzrjtU6OhqLJnXfema699tr0xS9+sToCAKyG6TbELgztFOnEqA4AMMFUw8l4IbZRjdlkdnY2X1xvbm6uOlKKixvu2rUr7dmzJ1+Ab+fOnflqxU8++WQ+f+/evfniRADAkTXdcLJYOqnN9ddfn1796lenL3/5y/tNab7lllvSr/7qr6Y//uM/Trfffnt605velDZv3pxe+MIXpssuuyy9973vTQ888EB1NgBwpBxeOCl+uI/m9hbb7hVtabAnzQ+q82cPfPzgtz35czgYP/mTP5krI9/+9rfTo48+mo/t27cv3Xvvven+++9Pr3jFK3J1JQLJ+9///hxmfumXfil96lOfSh//+MdzNQUAOHI684X4Yb1ly5Z08cUXp7vuuiudddZZqdtdzC0x5PHEE0+k3bt3pzPOOCOtWbMmH58vgsljn7o2DXc8ku8/m9m5URoVYaLf66Zet7Pf9OJD0Zk5Jj3n9f83ddceV44ZrUB8rb/+67+eqyZXXXVVeulLX5q/5g996EPpO9/5Tvq7v/u71O/389e6fv36/D7EsM51112Xn/trv/Zr6dJLL00333xz+q3f+q109dVX5201xOvHx9q2bVs688wz09q1a6tHAODoFC0TMQN248aN6aabbkoXXXTR4VVO5udHae7xe9Psw3esaEtbt6TutrvS6LE709wjk885mG3u0S1pfjSsPpuV6fV66fLLL89Vkvvuuy+/KTEd+Hvf+156yUteko477rgcxj796U+n3/u938th5JprrsmzcmJY5/HHH69eCQA4Eg6vcjKcS7u+8/k0v29nvv9sntg1m2bnhunYtf28RfXksPRm0oYX//fU6cfns/LXiiDylre8Jf3Yj/1YeuMb35huvPHG9M///M/pt3/7t9OmTZvSP/zDP6RPfvKTuefkhBNOyF9vhJOZmZlcJXnta1+rcgIAq2BS5eSwwkmIgLJSD27dlXbtnUsnbVibTly/Js30e9Ujh67T7a94SGcsvt63v/3tOQhEQLn11lvz1/ee97wn7dixIweXY489Nv3u7/5uDgnxXrzzne/M1ZYIIj/7sz8rnADAKlj1YZ3Q6c2seOvGbXcmpQgUvTUTzznY7VAaV2Jo52Uve1kOJDfccEN65JFH8ptx8skn5zcpQtiGDRvy/aiWxOydGAKK6cQAwJF12OHkoBVZognrr0V/SVSAvv71r+eKRTTGhgglP/ETP5HuuOOOPDsntug/iSCjkgEAR95Uw0m5hH000sZWb0T5kR/5kRxCYubNJZdcki688MJ8/KSTTsrrnURl5V//9V/Tv/zLv6QXvOAF6TWveU0eAjrllFPyeccff3zuSTn99NPzfQBgdRx2z8nBeHjb7rRjz2w67pg16aTj1qa1M4ffc3I00XMCQNsckZ6TgzGenNOEYR0AoJmm23Oy0LsqngAAk0235yT/KvtN6u45AQCaacoNseVvuSG2PAQAsJ+DDieHU/EYj+rkV5BOJlJRAqDtVhROYuZObNFROze38hVhl1tYL83P34ni/Y0ZO3nK9cKbBQDtsqJwEj8oY6XUuI2prnv27MkhJaYYH8w2Go7yhfqGw8mPt3mL9zNWoI0troocq9gCQButaJ2TMDs7m7Zv35527tyZg8qhrHWyc89cemr3bOr3OumE9dY5WS7e4wgpJ554Yt5UTwA42k1a52TF4STED8+4MF4sxnYovREPPr4z3f/QjiLY9NLzzzg+nXz8uuoRQoSRdevW5Wv6qJwA0AaHHU7G4vzYDtZN334w3fjle9PxG9ak/3H5C9KFz/8v1SOEeM8jlKiYANAWq7ZCbPwAjWGdg926/Zm0d+982rlnlEbp0F7jaN6i10QwAaDtDimcHKroNYmfvcPRfJGUTNkBAA405XDSXQgnlvMAACaZbjjplut3DIejNJJOAIAJaqucGNYBACaZbjjpRziJykkRTlROAIAJpl85KW6jajI/Ko8BACxVw7BOJw1Hek4AgMmmGk5mep3UjZ6TYVROhBMA4EC1VE5iNTiVEwBgkimHk8VF2A7l2jwAwNFvuuGk20tFPEmjQUwlrg4CACxRS+WknK2jcgIAHGi64aRfXnE3hnSi58TIDgCw3FTDSczWicpJiBk70XsCALDUlId1ytk6wRL2AMAkUw0nvbjwX7U/nB/lDQBgqamGk24RTmLL04nj+joqJwDAMlMNJ6HXj3ASS9jrOQEADjT9cJL7TmI68UjlBAA4wPTDSR7WKSsnlrAHAJarqXJiWAcAmKxbDq+U2zR0u93cFJsrJ8IJALBMd+vWrWnbtm3pySefrA4dWb0lS9gLJwDAct2NGzemF73oRemKK66oDh1Z/f6SYR3ZBABYpvuFL3whff7zn08f+tCHqkNHVtkQGyvETm8oCQD44dHdvHlz2rRpUzrvvPOqQ0dWt9dJ3aicWIQNAJig2+v10nibhn7XbB0A4OnVuAibdU4AgAPVsghbHtaJcKJyAgAsM/Vw0l9YhG1kWAcAOEANwzpxZeKYraNyAgAcqKaek04OJionAMBy0x/WGa9zYioxADBBPcM60XMyHyvECicAwP6mXznp9RYaYlVOAIDlpl85yVOJXfgPAJhs6uFkpt9JnSKd6DkBACapoeeku7gIm54TAGCZWoZ1YrZOVE1MJQYAlquhIXZx+fp54QQAWKaGcLLkwn+j6iAAQGX64STP1ikrJ9Y5AQCWq6Uhdrx8vdk6AMBytQzrxDonebaOcAIALFNP5aRIJyPrnAAAE9TWcxJrnFjnBABYrqaekxjWcW0dAOBANfScVJUTwzoAwAQ1DOuUDbERTIQTAGC5Wion5VTiGNaxChsAsL/p95x0x+Eklq+vDgIAVGqonHRTt/ioeVjHbB0AYJnph5N+9Jx0UuQSfScAwHLTDyfVsE5wfR0AYLl6hnXKbFIuxKZyAgAsMfVwMm6IDRFMonoCADA29XASwaRbBZQ8rDM0ZQcAWDT1cBJiCfvxjB2VEwBgqVrCSXdhITbhBADYXz3hJIZ1ii1m6miIBQCWqmdYJ19fR+UEADhQTT0nVeVEOAEAlqlpWEflBACYrKZhnWiILRdhE04AgKXqqZz0yrVOIpiMRtY5AQAW1VY5KYd1RmlgETYAYImaGmJjEbZx5cSwDgCwqJZwElcmLv4rgklKA+EEAFiinp6TIpnkFWJjEbZiAwAYq2lYZ7Eh1mwdAGCpmhtii3AyFE4AgEU1NsSWVyXWEAsALFVr5cSwDgCwXE3hpJuvrWOFWABguVrCST8aYqueEyvEAgBL1VY5idk6uSFW5QQAWKKecFJVTnLPidk6AMAS9TXEFtt8HtYRTgCARTVVTrp5+fphrBArnAAAS9TTEFtVTiKYuLYOALBUfcM6C7N1hBMAYFGNDbHjYR1TiQGARTVVTkwlBgAmq21YpzO+8J9wAgAsUdOwzmLlZGSdEwBgiVrCSZ6to3ICAExQX0NsVE6iIbbYAADGaus5Kf4rh3VUTgCAJeoZ1ql6TvLy9UNTiQGARbWEkwgmFmEDACapvSFWOAEAlqqpIbaaSmyFWABgmZoqJ2U4SfPRFFs2xgIAhJoqJ+WwTojqibVOAICx2ionveojRzgZCCcAQKWWcBJDOnFtnRBDOkPTiQGASi3hJHLJOKCU4UTlBAAodWO2zHibprzWSbHF6vVDM3YAgEr34YcfTrE99thj1aHp6EZTbLGVDbHCCQBQ6m7cuDGde+656corr6wOTUfM1onhnZipoyEWABjrfu1rX0s333xz+tjHPlYdmo5uXoitm+ajcqLnBACodC+44IIUW1RQpilfmbjYVE4AgKW6vV4vjbdpimGdfH2daIg1lRgAqNQylTjkhthuOZV4YFgHAKjUFk7KYZ3x8vUqJwBAqb7KSdVzMj+KcKJyAgCUaqycdFMv95yYrQMALKq9cpKXr1c5AQAqNfecVLN19JwAAJWaw0k3D+tY5wQAGKtvWCdPJU6uSgwA7KfWyklswgkAsFS9wzrj2Tp6TgCASn3DOt248F+nvPCfcAIAVOqtnCwM6wgnAECp3p6T8YX/zNYBACo1DuuM1zmJYR3hBAAoNWRYRzgBAEr1hZNed3EqscoJAFBpwLBOSgMNsQBApb7KSadc52S+SCdRPQEACPX3nERDrJ4TAKBSazjJPSdm6wAAS9TYEFsO68TisBZhAwDGamyILWfr6DkBAJaqueeka1gHANhPzeEklRf+0xALAFRqDSe5ITZ6TlyVGACo1B9O5kdppCEWAKjUGE66FmEDAA5Qc89JVE5MJQYAFtU7rKNyAgAsU184iUXYii3k6omAAgAUagsn46sShzyd2IwdAKBQa0NsDOuECCcDa50AAIX6KidFMBlXTlxfBwAYqy2cRNFkPLRTVk6EEwCgxnASOkVC6RThJK6vY1gHAAi1hpOompSrxCaVEwAgqz2cxJWJNcQCAGM1h5NuDijWOQEAxuof1ukV4aQIJnOGdQCAQr3hJKYTF1u5CJvKCQBQe+WkrJ4U2URDLACQ1T6sE9fXianEFmEDAEL9PSe5IdYibABAqQHhpJpKrOcEACjUGk7iwn8RUPJUYpUTAKDQiGEdlRMAYKz+htgIJyOVEwCgVH/lpJqtY/l6ACA0ZFgnKifCCQBQczjpdcqAYioxADDWmIbY4Ug4AQBqDyfdvM5JTNTRcwIAhHrDyXidkyKdGNYBAELtwzqx5XVOVE4AgEK9DbELPSdm6wAApQY0xEbPiYZYAKDUkMpJEU70nAAAhdobYg3rAABLNaIh1rAOADDWgJ6TsnJitg4AEOrtOamGdWKdEz0nAECof1in160aYlVOAIC6KydFOOlXwzrDWMMeAGi9hvScGNYBAEq1V05yz4lwAgBUGlI5MawDAJTqrZwsLMKmcgIAlGqvnHS73TRf5JKR2ToAQKExDbGx1kkM7wAA7VZ/Q2yvk/fzQmz6TgCg9bqj0agIBuU2bePKSYjqyUDfCQC0XveBBx5IsT300EPVoenJDbHFFmJIx/V1AIDuxo0b07nnnpuuuOKK6tD0RC6J6kkYpfk0GA3zPgDQXt1vf/vb6Zvf/Ga6/vrrq0PT0ynSSacIJxFQcuVkYFgHANque84556TYzj777OrQdHWLgFKGk/k0p+cEAFqv2+v10nirQ1ROevnKxMmViQGAeqcSh6iadHtl5cRsHQCg9nASfSe9WCV2PhnWAQAaUDmpZuzEgI6pxABAI4Z1YpVYwzoAQGhIOCmHdVROAICG9JyMKycWYQOAtmtA5aTYep0U1/xTOQEAGlI5iWEdPScAQBMqJ+NhnWJf5QQAaMCwztKeE5UTAGi7RlRO+guzdYQTAGi7BlROyuqJqcQAQKg9nOSG2PEibAOVEwBouwb1nLi2DgDQhHCSKyfdNF/8GoyEEwBou2aEk/FsHcM6ANB6DRnWKWfrDA3rAEDrNaByklK/6jkxWwcAaEblJGbrRM+JygkAtF5DGmJVTgCAUu3hpLPQczKv5wQAaEbPyXidE5UTAKARPSf9hWEdlRMAaLtm9JzEsE7xy7AOAFB7OIkhnbxCrGEdAKBQf0NsZzysM5+GVogFgNZrRM/JuCF2OFI5AYC2a07PSVRO9JwAQOs1oHKSzNYBABY0pHLSKfZUTgCABoWT3HOiIRYAWq8Bwzp6TgCARc2onFQ9J6PRfA4pAEB7NaJy0u+Vn8ZoZCE2AGi7BlROylVixwaRUACA1mrGsE4VTuL6OjGdWO0EANqr9nASy9dHOCluct/JXMzYkU4AoLUaEE6KrQgn0XuyEE4AgNaqPZyEqJ5EOImSiVViAaDdGhJOUur1Y62TlObybB3jOgDQVo0IJ+OL/wWVEwBot8YM6/R6VeVkYLYOALRZM8JJtwonek4AoPWaEU6KbbzWSdlzAgC0VTN6TmIqcXV9ncFgqB8WAFqsIT0nKV9fJ4Z1rHMCAO3WoIbYIqFE5cTy9QDQas0Y1inCST+GdYp9DbEA0G6NGdaJdU7KRdiEEwBos2YN6+SeE4M6ANBmDRnWSYuLsKmcAECrNaNyUqSTfrGVU4lH+RYAaKdmVU6KXxFOLHQCAO3VsJ6TlOZGggkAtFljwklehC0P6wyrowBAGzVkWKezcG0d65wAQLs1puekn9c5sXw9ALRdc4Z1+tVsnWG0xQIAbdWMcFJ8FjFbJwyjciKdAEBrNWRYZ3GdE4uwAUC7NSecVOuczA2VTQCgzZoxrBOLsHWrYR2VEwBotQZVTsbDOtY5AYA2a0jlpAwn0QkbDbEGdgCgvRpSOVm8KnFMJQYA2qsZlZMinURDbMgrxEZKAQBaqTk9J9VU4vKqxABAWzWk56Qa1il+DQaqJgDQZs2pnERDbJFLhmbrAECrNaZykhdhq4Z11E4AoL26UakYjUa1ViyictKLKTtFLMnX1gEAWqt77733ptgeeOCB6tD0jdc5icrJcFT8pnQCAK3VPeecc9K5556brrzyyurQ9MXK9b1eL+/nRdhMJQaA1uredddd6c4770yf/exnq0PTF8M6M9W1dUJUT8QTAGin7tlnn51iO/PMM6tD0xfDOr28fH05ojOXF2LLdwGAlunGcEq3210YVqlDOZV4sXIyN4zKiXQCAG3UmKnEMVsnbiOTDAZDlRMAaKlGhJOQA0qunsynOWudAEBrNSicdFK36juJi/+ZsQMA7dS4yklEktwQCwC0UmPCSaSTclinCCd5rZO8CwC0THMqJ8U2Did5WCfvAQBt06BhncUl7GfzOifiCQC0UYPCSUwnHldOrHICAG3VrHDSr8JJrHMCALRS44Z1goZYAGivRlVO+lXlpFyETToBgDZqTjgpfsUS9rH4WvScyCYA0E7NqpyM1zkxlRgAWqtB4WTxysTl8vV5FwBomWZWTgaRTKQTAGij5oST6DmJRdiKfbN1AKC9Glk5iWEdAKCdGhVOZvrFb/MpDYdDlRMAaKkGhZMlVyXOlRPpBADaqFnDOt1ujiQDPScA0FqNqpyUPSfz1jkBgBZrVuVkvHy9YR0AaK2GVU7KhtjBYN6wDgC0VHPCSbHFsE5kkug5AQDaqXmVk4Ll6wGgvRoTTrrRc1JNJR5ahA0AWqtBlZMIJ2XlZG4YPSdKJwDQRg0b1ik/nbzOSd4DANqmOeGk2HJDbJFKckOsdAIArdSwykkv76ucAEB7NSyclD0nw2ERTfScAEArNSicpDRj+XoAaL1GhZPFyomeEwBoq+aEk+LXYkPssMgm0gkAtFFjwolF2ACA0KBhnSUNsTFbR+EEAFqpYT0n5aczGlkhFgDaqmGVk/LTiVwS04kFFABon0ZWTsJgZDoxALRRc8JJ8WumX/achEGsdSKdAEDrNKpy0ut2823IS9hLJwDQOo0JJyGCSbca2smrxMomANA6jQonoV8N7Qw0xAJAKzWsctJJvfGViV1fBwBaqYGVk7LvZE7lBABaqXE9J+PpxFE5GckmANA6DaucxLBO+SlpiAWAdmpo5aSTBgPDOgDQRg2rnCzO1hkOhxpiAaCFmlc56S8d1hFPAKBtGlY56eRVYoPl6wGgnRpXOZmpphJbhA0A2qlZ4aTYer2y58QibADQTs0a1lnSc6JyAgDt1LDKSSf19ZwAQKs1rnISPSehXOck7wIALdKwysniOidl5UQ6AYC2aVY4icpJr5tDymCkIRYA2qhhlZNOOaxTpJPBQOUEANqoUeEkQkm/18u7GmIBoJ0aVzkpr0rcSYORqcQA0EaNq5xEz0mwCBsAtFPDKicp9WeqhlhTiQGglZoVTnLlJKJJVE6GhnUAoIWaNayTOvsP68gmANA6UwsnK6mCROWkX4WToWvrAEArTSeczI/SvkdvT9tv+WB66lt/n3bd+6U0u/WeNNq3M1JLdVLVcxLDOsV/GmIBoJ2mEk7mi3Cy9/tfTzu+9Yn01Df+Pj31bx9N27/2t2n7v/1tcez/pV13fSHtffg/03DXo2mmXOYk7d03TI9v35O275pNc7EgW3kYADjKdeYLw+EwbdmyJV188cXprrvuSmeddVbqVlcHXg3zo2Haecen0547v5IGTz2URru3Fdv2lEaD1Fm3IfVOOCP1TzozpQ3/Nd2/c3264ZZH0/za9WnT+f81PeeU49O6Y45Ja9asTb3+mtSfWZu3NWvXprVr1qWZNWtSr9dPvW65Rko/3xZb8fkXu6kTY0UAQCONRqP02GOPpY0bN6abbropXXTRRdMJJ2F+bm+affJ7ae6J76bBttgeTMMdW9Noz/Y03PtUmi+20ezuNJpP6ftzx6QnRuvT3vm1ad/8TJpLa9N8b13qF4Fl7br1RVg5Lh274bi0YcPx6dhj16eZmTXFVgSUCCczvTTT7xVBplsElF7qFAllPpVbbmoZ74fifrm/+Fj5ULWfd5fv5528X96L/eo2Kx+r9hb2Fx8vLDxe3C4cnvT4UtW9ZecvvPx+Zz/Nufn35YqjSx5Y3K328s2SEyaY/Dk8g8Un7OfAo0uOPO1L7//ACk8rPO2ZEyz7GAfz1AOs8MlPc9qBhw/yk1nx6Qf5uqvg6PofiZV9Lav+Fdf6FtbzwY/MR631jXxmtX1qndTv94ufsWuq+6tnYjgZDAYL4eSSSy45YuHkAPOjNNi1Nc1uuzvNPbal2O5Jg63fL8LKjjSa253ScJCK2FR81sPiEx/m6st88QXE/ehTKVJV8VYtDvYM5ztpUNzO5dtOGqZuGhT7w04vjYr9UXE73+mWQaW4LVJLcVsei/3xlu+nXrEffwKKrQg45X63/Mczvy9xbhEtinPj2Hy1n89feKzcYj8fz4/H3XI/H15ybnlOPrhwP9+Lx4ub+Bj57vi8OF6eUB4t7sS7EbflM/Kd+K26V/yed6p75ZOzxf3ynOqM/Pv48x7fHcuvmj9W3NnvGfsbnzN+NG6WfOz9nlXsLt4b75W3+3+++fe8v9zS88ZyAC3/W2LC8yc8d+G9XCJ/jAlPX35w8imTXnGCCZ9LacLHeNpzl1nxadX3/FlMeq8nWuF5K325FX8hYQWnrvA7snL5C1nZa67yRz6I70l1u6pW9udmRfI/7c/+SR7EW33UqO3L7a1J/ROfm05/3nnVgdUzMZzcdtttOZzcd9996XWve930wskE88O5XF2ZffT2NNyzNc3v3ZmGszvT3J6dabYILcPidjS7J3Vm96ZecW4/wkv+Qxy/FVturi0Xbytn+pQzfvJ+3OZzxuePz8l7C8fHR8b3F1X7+58wwfLzlnq654w92+OVQ3jt8R/oOGvS/sFb+vHiVZ754x8ptf1FPaLqeS9/GByd329ovn3949LDZ/23dPn/fEd1ZPVMDCdr1qzJ/xKOf1DXGU4OThEkilA1mtub5kf7iv3ZcpvblwaDvWm2CDD79u1Nc8U2u3dvGszNFsfnijdhkEbDchsWAScqMuX9Yr94vWGuzIyqSk25n+/nKs54v7wtfqsej88nbiMIlY9FZWfxnHg8bmOn2sb7xW0nnxfGx6v9QqczPlYdzze5FlDeqe5XO1l+bMlz4v74/DgyrjjFKUurT2H565b3lxs/Jx5fckZ8LeVO/j1Mfn5p/Fh59kqf83TnLR5f6plea38Tnl8cWsnzl7+HYeUfd5KVfS2H9zEmm/S1TLK6H3tlH3Nstb/uI/E+rkT+N2IVrXoF6CC/LytR13tdl5VXA+uz0r/zszPHpW1nvTJd9ob/XR1ZPRPDyf33358rJ/fee2+64oorfojCSWXhL/jibXlo8bb8b/x4oXrO4pFqb+HAknOXWsE/JvFxDurPY37JZ3/d1TXtj3dktO0fuqPb0fFnEn7YrPTf0fjJNt+dSf0166ojq2diOCmCyULPyebNm3/4wgkA8ENrUjgpMkg3BxFhBABoAokEAGgU4QQAaBThBABoFOEEAGgU4QQAaBThBABoFOEEAGgU4QQAaBThBABoFOEEAGgU4QQAaBThBABoFOEEAGiUznxhOBymO++8M23atCnddttt6cwzz3SVYgDgiCtiSHrsscfSBRdckG666aZ00UUXleFkMBjkUHLppZem6667Lp100knCCQBwxI1Go7Rz5870jne8I4eTzZs3L4aTu+++O73lLW9JvV4vdTqd6imrKz7Ot771rVyZOe200wSgBoiq2a233ppOPPHEdNZZZ/meNEB8T7Zs2ZL6/X56/vOfn/9OUq/4ntx3331p79696dxzz/U9aYD4gfbggw+mxx9/PP+ftu9J/eJ7EhWQ+LsSxY74N2ylonoSf8/+8i//Mv8dy+EkHojgsHXr1nTsscfmcHIkAkoko9e85jXpzW9+c/r5n//5tGbNmuoR6rJr1670pje9KV122WXp6quvTuvWraseoS67d+9Ov/M7v5MrmNdee2065phjqkeoS4SSP//zP88/DN/znvfkfyep1759+9KHP/zh9LnPfS595CMfSRs2bKgeoS6zs7PpxhtvzH9HPvvZz6bjjjuueuSZRQyJbc+ePfnfvZmZmcVwMg0RTl71qlela665Jr3hDW8QThogwskv/uIvpssvvzy99a1vTWvXrq0eoS7xF/Rtb3tbOvnkk9Mf/dEfCYwNEOHkXe96V3rggQfS+973PuGkASKcfOADH0if+cxn0ic+8Ym0fv366hHqMjc3l2644Yb0Z3/2Z3l45tADY0r/H+//kvHGn9fFAAAAAElFTkSuQmCC;" vertex="1" parent="1">
          <mxGeometry x="402.5" y="90" width="95" height="72" as="geometry" />
        </mxCell>
        <mxCell id="f9QI1axeGucn3QY7SPFN-35" value="Improved from 0.00109 to 0.00001 during 50 epochs" style="text;html=1;strokeColor=none;fillColor=none;align=center;verticalAlign=middle;whiteSpace=wrap;rounded=0;fontSize=6;" vertex="1" parent="1">
          <mxGeometry x="402.5" y="65" width="95" height="25" as="geometry" />
        </mxCell>
        <mxCell id="f9QI1axeGucn3QY7SPFN-36" value="Improved from 0.00376 to 0.00004 during 50 epochs" style="text;html=1;strokeColor=none;fillColor=none;align=center;verticalAlign=middle;whiteSpace=wrap;rounded=0;fontSize=6;" vertex="1" parent="1">
          <mxGeometry x="402.5" y="170.37" width="95" height="25" as="geometry" />
        </mxCell>
        <mxCell id="f9QI1axeGucn3QY7SPFN-37" value="" style="shape=image;verticalLabelPosition=bottom;labelBackgroundColor=default;verticalAlign=top;imageAspect=0;image=data:image/png,iVBORw0KGgoAAAANSUhEUgAAAisAAAGkCAYAAADwoGW4AAAAAXNSR0IArs4c6QAAAARnQU1BAACxjwv8YQUAAAAJcEhZcwAADsMAAA7DAcdvqGQAACtjSURBVHhe7d0LkBxl3e/x//TM7C3J5vZCAiaFgCDCS27AEeSmryLGU6Al4nkVj1WUAoWgaBV4SSkKCi9yqsTjKbAABUtEUQQOAoVgYRmMiMjRUkMIScAECBCSkGyy2dvM9Jzn/3T3zmV7LpvMTj9kvh/oTE9P78xkNmR//J//83SqaAgAAICjvPAWAADASYQVAADgNMIKAABwWkXPSj6fl+3bt0tfX5+kUqnwKAAAwNTSODI0NCRz5syRbDYbHg2MhxUNKuvXr5cLLrhA0um0fRAAAKBdCoWC3HjjjXL00UdXBJaKsLJmzRpZtmyZXHvttTbZUF0BAABTTaPI7t27ZcWKFbJy5UpZunRpfFjRNPPcc8/JkiVL5JlnnpGFCxeK59HSAgAAppbv+7J161Y55phjbFhZtGhRxShPRVhZt26dLF682A4HEVYAAEA7RGHliCOOiA0rpBEAAOA0wgoAAHDaXocVHT3Ssg1ba7dwVA4AAIQm3bMShRSdPaQbWks/c+2AzmQy4REAAPZvmivq9axMOqyMjIzYJxwcHAyPoJV0urguynfQQQdNWBQHAID9UUvDyvDwsF3hVgPLrFmzpKenh7VYWki/Fbp6nwbBadOmyYEHHsjnCwDY77UsrOhpAwMD8sYbb8jMmTNtWNEfpPwwbR39jMfGxmTHjh0yOjoqCxYsYDgIALDfaxRWmm6wjfpUNMDoMIU+ie5HgYVt3zf9PDWcdHV12c9bNwAAOl3TYUX/r1+36IcqpkYUXKLPGwCATrdXqUN/mGLq8PkCAFBCiaSF7rjjDvnDH/4gu3btCo8AAIB91bFh5cknn5QnnnhCtm3bFh7Zd3oByJdfftk2xwIAgNZoa1jRFgxXejFuv/12+eEPfyjPP/98eCTeZN6rXtr6wx/+sMydOzc8AgAA9lVbw0qu4MvQaF5GcwXx/eQCyyuvvGKnYesU4Q0bNsg//vEP+de//iWbN2+207b1uE7j1uO6r+vKvPrqq/aYVk+effZZW0HRdWfKvf766/Z5o5V99Wv0ebds2WJDkX6tPr8OE9E8CwBAc5peZ0V/AOsPbl20TFdX1em1EfsEDX72Fs0/b+wakTd2j0pvd1oOmNkr3dkWrCGSsv9Oyte//nW57bbb7JoxurCdThc+7bTTZN68ebbn5NJLL7X9Jxowbr75Zjvv+6c//ak89thjNpD09vbKSSedJJ/61KfklFNOGf+cTjjhBHn/+98vF154oRxyyCFyxRVXyF//+ld77tNPP21Dzvz58+Vzn/ucnHPOOfZ5qun3QcOMvjddZ6W7uzt8BACA/VPL1lmpRbPOaC4vI422sYLk8gUZM9vomC/D5n7seZPdxvKTrlJoiHjf+95nh2w0hGgF5eqrr5Y5c+bIxo0b5d5775WrrrrKBpd3vetd9muOPfZYufbaa+Whhx6Sa665xgY3/RqtmtTzl7/8RVavXm0Dyl133WW/AZdccomt4mgwAQAA9e1zZUUDw5U/eEK2bB+y9+vRV/LNL1oJ8bzWTM/t7c7I//riaTK9p0uanfGrv+WLLrpIcrmcrYK8853vtMM6t956qw0q1113na2QaMVFpxFr4tNzo4Xw9LP49a9/baszF1xwga2SqLjKyu9//3u57LLL5Nxzz7XnrF27Vo477jj55S9/ac+dPn26PR6hsgIA6DRtqKyI7Bock527RxtuA4OjsnvPmOwyW9zje7PpcwZxq3nRwmu6afiINr3f399vPyQNCeXh5MEHH5TPf/7z8sEPftBWZb7xjW/Ipk2bbP9LPXp9n0MPPdQ+n24HHHCAXQFYvylRbwsAAKhtnysrBZOG/rlhmx3mqUdfZXgkLwNDo5I2zztzepd0Z0upaW+lvZQsOfIAyWYm91xRZUVvo8rKLbfcYishWjXRax9F7rzzTrnnnnvk4IMPlre//e22GqLNsqtWrbJVFa2gqLjKin6WX/va1+T444+357z22mvyjne8Q7797W/LeeedV/E6isoKAKDTTHllRYPHsW87QE44en6DbZ4sfceBcvThc+UYsy07al7MOZPf9HkmG1RU9CGEWW2cVlfKPyD1+OOPSzablTPOOEM+9rGPydlnn217WDTsNLp+T1TBqaavW/3aAABgon0OK0qrGw23tCcZs2m40X6V2HP2ctsbeuXonTt32tk9WsnQqx3XCg8aSPTxaF/7TnRROa0yAQCAqdWSsNIMjRTjsUIzQcJFBR2y0WGuBx54QL73ve/JI488MmHdlMh73vMee3vffffJTTfdZL9GQ071EA4AAGi9toUVFY2G6JorSacVXVdFm2W1J0T7SnQxt6OPPlre+9732llA5ZYvX26nOWvzrYYUXSvlox/9qO1X0a+JnHnmmbbnZ9q0afb+kiVL5NRTT7VToiO6top+7ZFHHlmxVg0AAIjXkkXhmjU0mpNXtg/Z0DJ/dp9M68mGjyBCgy0AoNNMeYPtZKTCgSAaSwEAQLPaGlbGm1bIKgAAoElt7lmJKivBBgAA0Ehbw4q+mMYVcgoAAGhWmysrwS1hBQAANKv9w0DmX22wpckWAAA0I5HKitKoQlwBAACNtDesjE8HCoMKaQUAADTg6TVvyrepVF5ZIa0AAIBmeHfeeafo9rOf/UwefPDB8PDUKV8Y7s0eVXS1vUcffVSef/758AgAAGg177bbbhPdfvzjH8u9994bHp4a2mBbXlx5s6eV5557TlasWCGPPfZYeAQAALSa9/DDD4tuWlW5+eabw8NTJ5wQZHLKm7+yAgAApp43ffp0ibboasFTKepbSXLmsvbm6MUCc7lceCSgF2vcs2ePDA8P2wsKDg4O2qsx79y5054/MjJiL7YEAADap62zgVS01kogmcSiw11nnnmmPP744xXrvTz55JPy6U9/Wr71rW/JmjVr5Pzzz5elS5fK2972NjnllFPkxhtvlJdeeik8GwAAtMO+hxXzw97PjZhtqKmtmB+Wojm/MDZktuHYcya3DU+6TPPud7/bVk7+/ve/y+uvv26PjY6OygsvvCCbNm2S0047zVZfNKD84Ac/sOHmk5/8pNx///1y11132WoLAABoj1QxLC3oD+9169bJ4sWLZf369bJw4ULxvFKW0SGSHTt2yNDQkBx00EHS1dVlj2vw2Hr/Cins3mLvNzKW98X3i5JJe5L2UpXTmfdCKtsrB370u+J1zyiNMTWgv9fPfvaztqpywQUXyAknnGB/zz/60Y/k2WeflZ/85CeSyWTs71WHxvRz0GGgq6++2n7tZz7zGTnuuONk1apV8oUvfEEuvPBCu7WCPr++1htvvCELFiyQ7u7u8BEAAPZP2mKhM2yPOOIIWblypSxatEjS6XT4aAsqK8WiL7ltL8jYa2ub2mTbOvHeWC/+1ucktyX+nMlsudfXSdEvhO+mOfoBnH766baKsnHjRvsh6fTjF198UY4//niZMWOGDWfadPzVr37VhpNLL73UzvrRYaBt27aFzwQAAKbavldWCjnZ8+yjUhwdtPcb2Tk4JqP5gvR1Z+ym1ZV9ks7K9H//75LK6Ptp/rk0mFx88cVy4oknynnnnScPPPCA/Pa3v5XLL79clixZIj//+c/lnnvusT0rM2fOtL9fDSvZbNZWUc4++2wqKwAAtECjyso+hxWlgaVZr2zfI3tGcjJzWrfMnt4l2UzpzeytlJdpeggoor/fK664wgYDDSyrV6+2v78bbrhBdu/ebYNMX1+ffPnLX7ahQT+Lq666ylZjNJh86EMfIqwAANACUz4MpFLp7KQ2rYZI2gSMdFfs45Pd9qbxRT+Ek046yQaU++67T7Zs2WI/nDlz5tgPTUOZTufW+1pN0dlBOmSk05cBAED7tCSsTEZlrJjcLJ5W0/4UrRA99dRTtqKhjbZKQ8rJJ58sa9eutbN/dNP+FQ02VDoAAGiv9oeVVLDkvg4+BQNQyXnrW99qQ4nO7Fm2bJkce+yx9vjs2bPteitaefnjH/8ov/vd7+Twww+Xs846yw4ZzZ07157X399ve1rmz59v7wMAgNZrSc/KZGzZMSS7hsZkem+XzJnRLd3Zfe9Z2Z/QswIA6DRt6VmZDLuCrdKIlHBlBQAAuK/tYSWi67NwKUMAANBIIg22k5+7AwAAOlUCw0DBL3rtYuoqAACgkb0KK2FP7l4ZXxKFnpWa9uXzBQBgf9N0WNGZQbppx24u1/yKtdWiBluySjz9fHVGkJ3iPZ7sAADoXE2HFf3BqSu56q1OrR0eHrahRac0T2bzzQ9ivfCgb/YLVY91+qafp66Qq5te9bl82hYAAJ2q6XVW1NjYmAwMDMjg4KANLnuz1srgcM6us5LxUtI/rVt6uviBXE4/Yw0ts2bNshvVFQDA/q7ROiuTCitKf5jqhf50cbi96a3QCxlufGWXCTppOfSgfpnb3xM+AqXhpKenx16TiMoKAKATtDysRPR83SbrD/98RX698nmZ1tclHzn9cFl0+L+Fj0DpZ67fICoqAIBOMWUr2OqT6DDQZDcvnZXhkaIMDhfEl717jv15014VggoAACV7HVb2VjadEs/8LC4UiuIzRRcAADTQ9rCSyXi2clDwTVgxGwAAQD3tDyteyi63r2GFwgoAAGgkgcpK0DxayPtUVgAAQEPtDytpHQYKKiv0rAAAgEYSCispW1UpUlkBAAANtD2s6GygoLLiU1kBAAANJVdZKVBZAQAAjSUQVlL2RXUYiKwCAAAaSaiyoovC+VRWAABAQ8kNA9nKCmEFAADU1/awkrUr2IbDQNq3QmABAAB1JFZZUQUTVBgJAgAA9SQQVoKpy0qrK7o4HAAAQC3JVFbs1YHCVWwJKwAAoI62hxUvlRJPL2aoM4J8324AAAC1tD2sqHTYt1IoUFkBAAD1JRRWtLJiwgo9KwAAoIFEwooXLQynPStkFQAAUEeyw0AaVkgrAACgjmTCijbYms3XBtsiDbYAAKC2xHpW9IWprAAAgEaSGwbyaLAFAACNJVZZsQ22BZ/KCgAAqCuRsKKr2OricFRWAABAI8kNAzEbCAAANCGZsDK+3D5hBQAA1JfcMJCduqyLwhFWAABAbcmEFVtZoWcFAAA0llDPSkpMXmEYCAAANJRsg23Bp7ICAADqSqyyQoMtAABoRiJhJeuF66wUi3YDAACoJbFhIA0rPivYAgCABhIJKxkdBjKvzDAQAABoJJnKSkZnA4XrrBBWAABAHcmEFa+03D6zgQAAQD3JDANFy+0XqKwAAID6EupZCRtsdRiI2UAAAKCORMOKTlumsgIAAOpJpmclnA3k22Gg8CAAAECMhHpWwsqKDgNRWQEAAHUkV1lJiQ0qrGALAADqSbZnxfftKrYAAAC1JBZWdJ0VZgMBAIBGvN27d0u0DQ4Ohoenli63741fdTk8CAAAEMM78cQTRbeTTz5ZPv7xj4eHp5YNKyat+DoMRFoBAAB1eP/1X/8lul1zzTXyxS9+MTw8tXQ2EMNAAACgGd7y5ctFtw984ANy6qmnhoenVtBgG8wGKpoNAACgFi+bzUr51g5pe22gVLgoHGEFAADUlujU5aJdbl/MbfgAAABAlWQWhcsEPSsaUuhbAQAA9SQSVrKezgYK9jWs6BRmAACAOMlUVsJF4RRXXgYAAPUkElZ0JpBuStdZybPWCgAAqCGRsKJVFU+vvGwSi13FlusDAQCAGhIJKyq48nKwMBw9KwAAoJbEwopnl9wPrg9EWAEAALUkV1mxS+57VFYAAEBdCQ4DhT0rRcIKAACoLblhIBNUdPYylRUAAFBPgsNA2rNCgy0AAKgv2WGgFFOXAQBAfYlWVlJhZSVPZQUAANSQXM+KTl1OBcvtMwwEAABqSSysZMp6VnQDAACIk1xlRZfb1xVsbWWFnhUAABAvwQbbYLl9HQJiGAgAANSSaFjR5fYZBgIAAPUkF1bKelaorAAAgFoSCyuZsGfFDgMVCCsAACBewsNAVFYAAEB9CQ4DlWYD+cwGAgAANSRbWWE2EAAAaCDZyop5dYaBAABAPYlWVqJrAxFWAABALQlWVoJhIA0rugEAAMRJPKzYnhWmLgMAgBoSCyuZdNizorOBzAYAABDHiWGgQoGpywAAIF6ClRUWhQMAAI0lWFkJF4UzQYVhIAAAUEtyYcX2rJiwoj0rNNgCAIAaHOhZCRaGAwAAiJNgZYWeFQAA0FhyDbZhz4pdZ4WwAgAAakgurNjKikjR94WrLgMAgFoc6FmhwRYAANSWfFjR2UAMAwEAgBqS7VkxgaWolRXflyJrrQAAgBjJVVbC2UCaUbRlhawCAADiJBhWPEmnUnZfh4LyDAUBAIAYyQ0DhSvYqmCtFWYEAQCAiRILK9pcq1lF44pWVgrMCAIAADESCys6ApQyaUU3KisAAKCWxMKK8jzPhBadvixUVgAAQKxkw0rZ9YFosAUAAHESDSt2YTgNKzobqMAwEAAAmCjhYaBSZYWLGQIAgDhuhBU7G4jKCgAAmCj5YaDw+kD0rAAAgDgJV1aCheHsMBCVFQAAECPZsFI2G4ieFQAAECf5YSDbs8I6KwAAIJ4bYcWkFXpWAABAnIR7VspmA7HcPgAAiJFsWLEXM4zCCpUVAAAwUbLDQOmUHQrSokqenhUAABAj4Z6V8qnLhBUAADCRAz0rIkV6VgAAQA0JV1bCnhVbWSGsAACAiRIPK7ZnhQZbAABQQ/KVFc9j6jIAAKgp4bDiBZUVk1NosAUAAHESDSvBtYEkqKwQVgAAQAxvdHRUom1sbCw83B7BMFDYYEvPCgAAiOHdfPPNotstt9wiv/jFL8LD7WHDSiroWcnTswIAAGJ4v/nNb0S3Rx99VFatWhUebg+tqtCzAgAA6vHuvvtu0e2uu+6SG264ITzcHtEwULAoHGEFAABM5E2bNk2ira+vLzzcHuOzgZi6DAAAakh+nZWU2AZbn2EgAAAQI9mwYqcue3YYSAMLAABAtcQrK0GDbVHyXBsIAADESH4YSMNKUWiwBQAAsRINKzoEpIGlSM8KAACowZHKCrOBAABAvOR7VlJUVgAAQG1uVFZMWCnQYAsAAGIkHFbCnpVisNYKAABAteQrKzoMFK6zor0rAAAA5ZINK7oonNlU0GRLWAEAAJWcaLBVWlRhYTgAAFDNiQZbpZWVPDOCAABAlUTDSioVhBUtrmjfCjOCAABAtUTDitKwEkxfZhgIAABM5ExYsZUVGmwBAEAVN8JK2gt7VqisAACASomHlahvRWcD5WiwBQAAVZyorOhKtnadFcIKAACoknhYiaYva2Ulz5WXAQBAFWeGgaisAACAOMkPA6V1GCglRZ8GWwAAMFHyw0BaWTGBRWctE1YAAEA1Rxpso3VWCCsAAKCSG2ElFfSsMHUZAABUcyKsRMNAXBsIAABUSz6spErDQHmW2wcAAFUcqKwE1RXfBJVCnsoKAAColHhY0aqKrmBrF4WjZwUAAFRxo2dFKyt2NhBhBQAAVHIgrHhhzwrrrAAAgImSDythg61WVggrAACgmkM9KzobiLACAAAqOdGzkrbrrOiFDAkrAACgkhOVFQ0sRZNTuOoyAACo5kZlRcOKrawQVgAAQCWHGmyFnhUAADCBIw22VFYAAEA8R4aBPKYuAwCAWA5VVmiwBQAAE7lRWdGpy75WVggrAACgkhOVFV1yXysrPsNAAACgSvKVlXA2kG2w5UKGAACgiiMNttFsICorAACgkjMNtnadFcIKAACo4kxY0coKPSsAAKCaO8NAPovCAQCAiZxosPXSYWWF5fYBAEAVR4aBgqnLWlnR0AIAABBxZhhI2cDC9GUAAFDGmQZbpVUVVrEFAADlnKqsaFElx4wgAABQxo0GWxNWzE1QWckTVgAAQEniYUXZsKJNtmY/z4wgAABQxomwkiq7PhA9KwAAoJwzlZVgrRVhGAgAAFRwp7KSDtZa4fpAAACgnDuVlXAYiNlAAACgnBthpaJnhbACAABK3BgGMu9Ch4E0ptBgCwAAyrlTWYkabKmsAACAMs70rDAMBAAA4rgxDJTSBltmAwEAgIkcGwZiUTgAAFDJ831fyrckeNpga4eBRHIsCgcAAMp4mzdvlmjbsmVLeLi9tLKS0UXhzD8MAwEAgHLekUceKbodddRRsnz58vBwe5UabIULGQIAgAre008/Lbo99dRTcvfdd4eH26uiZyVPzwoAACjxtKISbYcddlh4uL3sonBRZYVhIAAAUMZLp9NSviUhWG7fE5/ZQAAAoIo7U5e1smL284VCcBAAAMBwI6xog63OBqKyAgAAqrhVWaFnBQAAVHGwskJYAQAAJQ6FlbCywtRlAABQxplhoAzDQAAAIIYjYUXXWQmW2y/4VFYAAECJe8NATF0GAABlnAgrqfHZQExdBgAAlZwIKxpUMmFlpZCnZwUAAJQ4NAzEonAAAGAiR4aBwgZbrawwGwgAAJRxo7ISTV3W2UCEFQAAUMaZnpXSbCCGgQAAQIkzlRUNLJpWCkxdBgAAZZxpsM2M96xQWQEAACXu9KwwdRkAAMRwpLISzQZiuX0AAFDJnZ6VdMruF01YIbAAAICIMz0rWllRwYwghoIAAEDAmcqK9qwoXWsln6eyAgAAAk6EFZNVbHVFaWUlly/YWwAAAEfCSspWVzytroRhBQAAQDkRVlTK9q0ES+7nWGsFAACE3AkrOhSkV142+3lfG2wJLAAAwKmwotOXzduxw0DMBgIAAAFnwkqw1kpQWckVfOoqAADAcqqyktGelWKRKy8DAIBxzvWsqDGGgQAAQMidYSAvJZlMcDHDvE5dprgCAAAMpyor9mKG5h+W2wcAABGnelbsxQyLwWwgCisAAEC5MwxkcoptsDX7OhsIAABAOVZZ8bjqMgAAqOBWWGG5fQAAUMWpYSBWsAUAANXcqazo1OVwBVsdBtLhIAAAAIcqK6XZQPm8JhXSCgAAcGwYKGPCii63zzAQAACIuDMMlCoNAxX8QnAQAAB0PKfCiq5gq/JUVgAAQMipYSDtWbHDQKyzAgAAQu5UVspmA+lVl2mvBQAAyqHKioaVYDZQQYeBSCsAAMBwqGclWBROh4HyrGALAABCblVWvOBChlwbCAAARByrrJhfDMIKAACIONazEl51manLAAAg5FBlJRgG0rSiV12mawUAACh3KivmnWTS6aBnJUdlBQAABNwaBsoEw0AF7VnRHQAA0PGcGgaiwRYAAFRzqLIiwdRl1lkBAABlnKqsZMYvZMhVlwEAQMCtnhV7IcOgZ4XaCgAAUO5UVsw70XVW9KJArLMCAAAiTlVWtMGW2UAAAKCcY8NAwdvx/aKYfwEAANxssNWGFdu3QmABAKDjOVRZiXpWbFaxS+4HewAAoJM5VVmJFoVTuTwzggAAgFNhRSTtpcSzFzPUsFJgGAgAALgTViJBdaVoKyuUVgAAgFNhRYeCPL2YodnP+zoMRFoBAKDTORZWdCgoeEv0rAAAAOUNDw9LtI2MjISHkxE02YZhxS4MZ3cBAEAH877yla+IbitWrJDvfve74eFkaGXFTl82ISXP9YEAAIDh+b4v5VuSounLGlLG8kUpMh0IAICO511//fWi23XXXSeXX355eDgZOg8oWhjOzgYCAAAdz+vt7ZVo6+npCQ8nI+WlJJMJwkqedVYAAIARJANHlFdW8vZKhqQVAAA6nVNhRTtsg56VYFE4KisAAMCtygqzgQAAQBXnhoH0+kBKwwoAAIBjlZXUeM/KmB0GorYCAECncyqsaFElkwnWWaGyAgAAlLOVlTwNtgAAwHAsrASVFS2tcCFDAACgnKusRBcytMNAlFYAAOh47lVWwrBCZQUAACi3wor5J+t5pQZb0goAAB3P0cpKuIJtcBgAAHQw98KKNtga+UKRdVYAAIB7DbaZdDpYbj/POisAAMDFsBIuCpfTawNRWAEAoOO5NwzkBW+JFWwBAIByK6yYLZOOela0skJpBQCATudgz0pYWWE2EAAAMNwbBtKwEjXYklYAAOh4ToUVzzbYhovC5YtkFQAA4F5lJVvWs8J0IAAA4FhYiXpWikGDbXAYAAB0MLfCitmiBtsCU5cBAIDhaGUlnA1EaQUAgI7nWFgJ1lnRkFKwy+2TVgAA6HROhRWdDZQtq6yQVQAAgHuVlUzwlnzfF59xIAAAOp5jYaXUs2KHgvwiS+4DANDh3KushGFFMX0ZAAC4FVbMPxkvWBRO5QtaWQnvAACAjuRcZSVtworeKq68DAAAnAoryjNhJR0OBeXyBSorAAB0OOfCikqPXx+IBlsAADqdc2HFzgjKpu0+DbYAAMDNyorn2b4VKisAAMDBykppYbhcQReGs7sAAKBDOVhZKTXYMnUZAAC4WVmxYSUV9qyQVgAA6GQOVlZE0plwNhBTlwEA6HhuVlbKelZosAUAoLM5WFlJSTbtmV/pWQEAAC5XVswty+0DAAD3worZMuMr2GpYsbsAAKBDuTcMpJWV8qnLzAYCAKCjOVhZCXpWFJUVAADgXlhJ6dTlMKzkabAFAKDTORdWVNaEFe1aYeoyAABwsLLCMBAAAChxL6yYrWLqMg22AAB0NPeGgXQ2kEdlBQAABBysrKRsz4ruBWGFtAIAQCdre1gpDO+Uop8P701Ufm0gKisAAKB9YcWkjtzAyzL4j/tleOMTJrTs0IPBY1Wi2UDB1GXSCgAAnaxtYaVY9GX45adk15/vkIE//UiG1j8m+V2vStEvhGcEbGWlfLl9uwcAADpVG4eBTOwo5CXTP09yr66XgSd+JIOr75fcjk1SLIyF54Q9K+HU5QJXXQYAoOO1LaykvIz0L/qYzHzPZ6Vrwb+LPzQou/78Uxn48+0y+vpaKeZHwhODYSC9pcEWAAC0sbIS6DvkZJn7gSul96jTbIAZ+udvZMfvvit7Nq6SYiFne1XSTF0GAAChtocVlZ15sMx59xUy48TzJD1rnoy9vEYGfvd/ZOAvt5nAMipdUYMtV10GAKDjJRJWJOVJunem9C/+HzLr3ZdK9yGLpbDzNRn8f/fIG7+9Srry281JRdmyZbfc9uAaefBPG+WV7Xuk4BNcAADoNMmEFZVKidczU/reerLMfNcF0nfscvFHB6Xwwp9l7j+/J8sOelXSkpO1z2+X//vYevnfP/+r3Prr1fKnNa/JzsHR8EkAAMD+LrmwEvK6Z0j3wYtkxnH/Kf3/7ZOS7u6Snm1r5D8Kj8j/fOtf5H0Hr5XZxQ2yefOL8sTfXpRfPrJWbrnvn/Kr32+QNZt2SC7vh88EAAD2R6liON2mUCjIunXrZPHixbJ+/XpZuHCheGGjazvoqraFwS0ytGGlDK5+QHKvbBCZPlt2FafLa0NdsmOkVwb9XtmpW6pfijPmSf/cBfJvByyQgw6cLf3Tu2VGX9ZsXTKjNyvTzdaVSdt1WwAAgLt835etW7fKEUccIStXrpRFixZJOp0OH3UorASKdihoaOMqGXn+SckPbJbCnu3i79lhjg9JzhfZ5XfJ9kKfDPj9Jrz0Sz49S/pmz5auvl7J9PRKtqdPusyW0S3bJ+kuc9s9zRybJt3mWDbbJV3ZrLnN2EberqzZTKjRtV08j2QDAEC7vcnCSqjoS27gRbtgnK5y6+/aJoXBHfa6Qv6wuR0ZMLcDUhwZFD+Xkz1FT4aLWRn2zVbskhHplpFitxTSJsB0TzcBpl96+nSbLt1dJtB0dZktIxndTGjJmADjZTKS8tJSTGXMZj6glPm9R5s5LuaYPq739VanXafM55PS++Ex/byi+3Y/PDZ+PLwNHov2U8GtyUmplO6bW/2H3AQA6BBvzrASw8+PmMCy1YaY/MDLkt/5ihQGtoi/Z7cU88N2jRZdCTfYcub8sXDLmd9cXlJ+QbxwGrROKhozgWDMhJwxc3SsqK28Gcmbzfey4qe6pGjCiKTNprfmmA0naXNrNi9two3eZoLjnvlAPXNO2pzv2S09vp82Icju2/N0XwOK2c8E56THA40JKGbzbGAJNn23wTsO9lXRTuoOjO+bm9jjVrBvj40frnrc3g2ORa83riI1lR8f/6XsVoX744eqHos9HtLfd7gbKLun70PfXMUJVc9h75aOBXtx56i441XHrNIx/Z40Zs4pO013S2+76oEJYg7WeM3S0arHm3zeRs9aeUL82ary7dU+rynmy6v/BNRXdW6TX9rUa1ScMpn3VG7i1zX1R6imJr/YnBZ/5l6+eM0v28vni1H7JVr3GpPX+LWbfnctPnHyn8rkvyKW+X5kzM+9TDYbHmidhmElr1cLNKKwsmzZMifDSqyiL4WRXZLf87r4Wm0xm1ZddMvtGZCxoQHJD+0SGd0j6dyoZIoF+zX2ekTm1u6bY0XzIfnmmB7XD0zv67WMdEW64FabeM3HpLnObmX3rSgemFt7KDiux6KYUe+PioYnfUa7FfUrUuP3g31zzPwh0WfytSdazzFPqI/ZLdzXfuny4/oHq2h7qPUxPS+4VcWUOW53o3N0N3w8vI2eIzpvfLOPq2g/Oq430espPRbuR+eN3w9f0wqOl8JAdJ7ehveDHfNrcBs9HnxJ+TG9tY8EO/Z+eBsdG38oOK7nTnye8n27Y3ajfVV6vOJw1XPojX7fgqPhr7HPo1t0VvS4uR1/ODqmxg+Gt6XH7N74/eC28mtLJoavsu/J+FNUnmPv2WPBcfvc4SnhTYzgc5go5gsr/lwYNZ9bj1QerRUmq4/XfS+RipPK9u1u7BNUqPmZ1xxqrjwee5Z5T41f2aj+DMdVvUbMk9lDE47HvWrcMX3O+OMTxJwX+5VNP194W0eTn17Avm7j85t+RvN8zf1Wmn1dc07TL946KfM/6plZb5H5hxwVHmmdhmHlmWeesT9NNaxs3LhRzjnnnDdPWJkkG0a0CjM2JH7O3OaHpGD2cybMjA7rNihj5jY3ao6bcFPI58QvjJjzgmqNmFvzhebDCraUnzfhJAg+nrn1NEqYD1wrOClzLG1u0+aY3pb+CAbhJbiJ9sPF74J/9UC4Ey6JF4ai8v1AeDx4wO6Ps89ZztyrOFD1qL1beayk7Hid5yipdX6chieEYs5r6kubff5mNHgufbjWXyBNv41Wvt94rfk7Lu596jNP/fufjNb8Xl3l1mfdDvv399N9o5kZ8trC/5DT//PK8EjrNAwrXV1d43/iwxGh/TasJErDQ1il0ZlPRRMOTQoy36C8CYp5yZtgpOGokNfqTsEe8805vglHeqthUo/bY+F+UAEyt6LHfLvpfV8DlD6m59jXNZu5r6/t29fX86L3Yr7n+hz6vdf79s9A+F6jW3tc7+p71vOCTf+x7Dl6rh4Pzje/hI/pbXR+sKv1IXvcPqb0Vu/r1yndD2/NlgrPC55BHwvuB/vBntaBVPT+o/vBOdG+Oa/sa+2euR/8Baj3wsdKp1vBc5XO1/0Jf2kGD9rdlC2vBefb88zXBI+E98eZo/aB8ueLzgyFj6vS+yyZ8D708bKvqT5fRV8z/nwV58c9Z7ny5yv/mvCrqp5Llb4X9Z+7/LHSV1Q+V6TW8zR+rYnPV+89VarxXuIPV4n5M2M0/9rVJve5NCP+/TX1m7P25bUnav7319rXbf75mvu+q+ZObPXvYzKaLWCNZWfIDhNWTjn3K+GR1mkYVjZt2mQ/Sf1h+MILL8jy5csJK1POfORlf37Hf5TZm2C/9LDZK92x7PlVxwITTiw7EvsFoYoT62h8kj1j/LSmnrRJ+/5ccf896rOW/tJp5ftN2v70e9l7Sf4AwL7iz7B7THz1spLp6gnvt07DsGJCiv0TEfWsLF26lLACAADaplFYMXkkmEobbQAAAC4hnQAAAKcRVgAAgNMIKwAAwGmEFQAA4DTCCgAAcBphBQAAOI2wAgAAnEZYAQAATiOsAAAApxFWAACA0wgrAADAaYQVAADgNMIKAABwWqpo6E6hUJDnnntOlixZIs8884wsWLCAqzADAIApp1Fk69atcswxx8jKlStl0aJFkk6nw0fLwko+n7ch5bjjjpOrr75aZs+eTVgBAABTzvd9GRwclCuvvNKGlaVLl0o2mw0frQorGzZskIsvvtimmVQqZU9oNX2dv/3tb7ZyM2/ePAKRA7Sqtnr1apk1a5YsXLiQ74kD9Huybt06yWQycthhh1X8HwaSod+TjRs3ysjIiBx11FF8TxygP+A2b94s27Ztm/B/4kiGfk+0QqL/rWjxQ/8Oa5bGEf3v7Pvf/779byw2rCgNEtu3b5e+vj4bVqYisGhyOuuss+Siiy6Sj3zkI9LV1RU+gqTs2bNHzj//fDnllFPkwgsvlJ6envARJGVoaEi+9KUv2QrnihUrpLe3N3wESdGQcv3119sfjjfccIP9exLJGh0dldtvv10eeeQRueOOO2T69OnhI0jK2NiYPPDAA/a/kYcfflhmzJgRPlKfRhHdhoeH7d975UFFVYSVdtCwcsYZZ8ill14q5557LmHFARpWPvGJT8jpp58ul1xyiXR3d4ePICn6H+xll10mc+bMkW9+85sESAdoWLnmmmvkpZdekptuuomw4gANK7feeqs89NBD8qtf/UqmTZsWPoKk5HI5ue++++Q73/mOHc5pVYCk3g8AAJxGWAEAAE5Lf1NrzG2ko04DAwO28eYtb3kLzZyO2L17t50yduihh/I9cYD+d6LDc/r9oJnTDdF4+vz582Xx4sV8Txyhw3M6OeCEE06YVDMnpo72rWg7gfZBtup70vaeFe0UfvXVV2XmzJl2fHGqZh2hefpHYMuWLbaJs7+/n++JA/R7ojMcNDhq3wrfk+Tp92THjh12IsIBBxzA98QB+j3ZtWuXbUjXEMn3JHn6PdH/0dq5c6ccfPDBLfqfX5H/DweNw+K3+Ca4AAAAAElFTkSuQmCC;" vertex="1" parent="1">
          <mxGeometry x="402.5" y="195.37" width="95" height="72" as="geometry" />
        </mxCell>
      </root>
    </mxGraphModel>
  </diagram>
</mxfile>
